<?xml version="1.0" encoding="utf-8"?>
<!-- Generator: Adobe Illustrator 24.3.0, SVG Export Plug-In . SVG Version: 6.00 Build 0)  -->
<svg version="1.1" id="Capa_1" xmlns="http://www.w3.org/2000/svg" xmlns:xlink="http://www.w3.org/1999/xlink" x="0px" y="0px"
	 viewBox="0 0 384 103" style="enable-background:new 0 0 384 103;" xml:space="preserve">
<style type="text/css">
	.st0{fill:#374681;}
	.st1{enable-background:new    ;}
	.st2{fill:#EFEFEF;}
	.st3{fill:none;stroke:#F8F7F7;stroke-width:5.0007;stroke-miterlimit:10.0014;}
</style>
<rect id="Rectángulo_241" class="st0" width="384" height="103"/>
<g class="st1">
	<path class="st2" d="M29,29.8c-0.2-0.1-0.2-0.3-0.2-0.6V16.7c0-0.2,0.1-0.4,0.2-0.6c0.2-0.1,0.4-0.2,0.6-0.2h7.5
		c0.2,0,0.4,0.1,0.6,0.2c0.1,0.1,0.2,0.3,0.2,0.5s-0.1,0.4-0.2,0.5c-0.1,0.1-0.3,0.2-0.6,0.2h-6.7v4.9h6.3c0.2,0,0.4,0.1,0.6,0.2
		c0.1,0.1,0.2,0.3,0.2,0.5c0,0.2-0.1,0.4-0.2,0.5c-0.1,0.1-0.3,0.2-0.6,0.2h-6.3v5.1h6.7c0.2,0,0.4,0.1,0.6,0.2
		c0.1,0.1,0.2,0.3,0.2,0.5c0,0.2-0.1,0.4-0.2,0.5c-0.1,0.1-0.3,0.2-0.6,0.2h-7.5C29.3,30,29.1,29.9,29,29.8z"/>
	<path class="st2" d="M41.7,29.9c-0.6-0.1-1-0.4-1.5-0.6c-0.2-0.2-0.4-0.3-0.5-0.5c-0.1-0.1-0.1-0.3-0.1-0.5c0-0.2,0.1-0.3,0.1-0.4
		c0.1-0.1,0.2-0.2,0.4-0.2s0.4,0.1,0.7,0.3c0.4,0.2,0.8,0.4,1.2,0.6c0.4,0.1,0.9,0.2,1.5,0.2c0.7,0,1.3-0.1,1.7-0.4
		c0.4-0.3,0.6-0.6,0.6-1.1c0-0.3-0.1-0.5-0.2-0.7c-0.1-0.2-0.4-0.3-0.8-0.5c-0.4-0.1-0.9-0.3-1.6-0.4c-1.2-0.3-2-0.6-2.5-1
		c-0.5-0.4-0.8-1-0.8-1.7c0-0.6,0.2-1.1,0.5-1.5c0.3-0.4,0.8-0.8,1.3-1c0.6-0.3,1.2-0.4,1.9-0.4c0.5,0,1,0.1,1.5,0.2
		c0.5,0.1,0.9,0.3,1.3,0.6c0.5,0.3,0.7,0.7,0.7,1c0,0.2-0.1,0.3-0.2,0.4c-0.1,0.1-0.2,0.2-0.4,0.2c-0.2,0-0.4-0.1-0.7-0.3
		c-0.4-0.2-0.7-0.4-1.1-0.6c-0.3-0.1-0.7-0.2-1.2-0.2c-0.6,0-1.1,0.1-1.5,0.4c-0.4,0.3-0.6,0.7-0.6,1.1c0,0.3,0.1,0.5,0.2,0.7
		c0.1,0.2,0.4,0.3,0.7,0.5c0.3,0.1,0.8,0.3,1.4,0.4c0.9,0.2,1.6,0.4,2.1,0.7c0.5,0.2,0.9,0.5,1.1,0.9c0.2,0.3,0.3,0.8,0.3,1.3
		c0,0.8-0.4,1.5-1.1,2c-0.7,0.5-1.6,0.8-2.8,0.8C42.8,30.1,42.2,30.1,41.7,29.9z"/>
	<path class="st2" d="M54.8,29.5c0,0.2-0.1,0.4-0.2,0.5c-0.2,0.1-0.4,0.2-0.8,0.1l-0.5,0c-1.1-0.1-1.9-0.4-2.4-1
		c-0.5-0.6-0.8-1.4-0.8-2.5v-5h-1.3c-0.2,0-0.4-0.1-0.5-0.2c-0.1-0.1-0.2-0.3-0.2-0.5c0-0.2,0.1-0.4,0.2-0.5
		c0.1-0.1,0.3-0.2,0.5-0.2h1.3V18c0-0.3,0.1-0.5,0.2-0.6c0.1-0.1,0.3-0.2,0.6-0.2c0.2,0,0.4,0.1,0.6,0.2c0.1,0.1,0.2,0.3,0.2,0.6
		v2.3H54c0.2,0,0.4,0.1,0.5,0.2c0.1,0.1,0.2,0.3,0.2,0.5c0,0.2-0.1,0.3-0.2,0.5c-0.1,0.1-0.3,0.2-0.5,0.2h-2.2v5.1
		c0,0.7,0.1,1.3,0.4,1.6c0.3,0.3,0.8,0.5,1.4,0.5l0.5,0C54.6,28.9,54.8,29.1,54.8,29.5z"/>
	<path class="st2" d="M64.1,23.9v5.4c0,0.2-0.1,0.4-0.2,0.6c-0.1,0.1-0.3,0.2-0.6,0.2c-0.2,0-0.4-0.1-0.6-0.2
		c-0.1-0.1-0.2-0.3-0.2-0.6v-1c-0.3,0.6-0.6,1-1.2,1.3s-1.1,0.5-1.8,0.5c-0.6,0-1.2-0.1-1.7-0.4c-0.5-0.3-0.9-0.6-1.2-1.1
		c-0.3-0.5-0.5-1-0.5-1.5c0-0.7,0.2-1.3,0.6-1.7c0.4-0.4,1-0.7,1.8-0.9c0.9-0.2,2-0.3,3.6-0.3h0.4v-0.7c0-0.8-0.2-1.4-0.5-1.8
		s-0.9-0.6-1.6-0.6c-0.9,0-1.8,0.2-2.8,0.7c-0.4,0.2-0.6,0.3-0.8,0.3c-0.2,0-0.3-0.1-0.4-0.2c-0.1-0.1-0.2-0.3-0.2-0.5
		c0-0.2,0.1-0.3,0.2-0.5c0.1-0.1,0.3-0.3,0.6-0.4c0.5-0.3,1-0.5,1.6-0.6s1.2-0.2,1.8-0.2C62.9,20,64.1,21.3,64.1,23.9z M61.7,28
		c0.5-0.5,0.8-1.2,0.8-2.1v-0.6h-0.4c-1.2,0-2.1,0-2.7,0.2c-0.6,0.1-1,0.3-1.3,0.5c-0.3,0.2-0.4,0.6-0.4,1c0,0.5,0.2,1,0.6,1.3
		c0.4,0.3,0.9,0.5,1.4,0.5C60.6,28.9,61.2,28.6,61.7,28z"/>
	<path class="st2" d="M68.6,29.9c-0.6-0.1-1-0.4-1.5-0.6c-0.2-0.2-0.4-0.3-0.5-0.5c-0.1-0.1-0.1-0.3-0.1-0.5c0-0.2,0.1-0.3,0.1-0.4
		c0.1-0.1,0.2-0.2,0.4-0.2s0.4,0.1,0.7,0.3c0.4,0.2,0.8,0.4,1.2,0.6c0.4,0.1,0.9,0.2,1.5,0.2c0.7,0,1.3-0.1,1.7-0.4
		c0.4-0.3,0.6-0.6,0.6-1.1c0-0.3-0.1-0.5-0.2-0.7c-0.1-0.2-0.4-0.3-0.8-0.5c-0.4-0.1-0.9-0.3-1.6-0.4c-1.2-0.3-2-0.6-2.5-1
		c-0.5-0.4-0.8-1-0.8-1.7c0-0.6,0.2-1.1,0.5-1.5c0.3-0.4,0.8-0.8,1.3-1c0.6-0.3,1.2-0.4,1.9-0.4c0.5,0,1,0.1,1.5,0.2
		c0.5,0.1,0.9,0.3,1.3,0.6c0.5,0.3,0.7,0.7,0.7,1c0,0.2-0.1,0.3-0.2,0.4c-0.1,0.1-0.2,0.2-0.4,0.2c-0.2,0-0.4-0.1-0.7-0.3
		c-0.4-0.2-0.7-0.4-1.1-0.6c-0.3-0.1-0.7-0.2-1.2-0.2c-0.6,0-1.1,0.1-1.5,0.4c-0.4,0.3-0.6,0.7-0.6,1.1c0,0.3,0.1,0.5,0.2,0.7
		c0.1,0.2,0.4,0.3,0.7,0.5c0.3,0.1,0.8,0.3,1.4,0.4c0.9,0.2,1.6,0.4,2.1,0.7c0.5,0.2,0.9,0.5,1.1,0.9c0.2,0.3,0.3,0.8,0.3,1.3
		c0,0.8-0.4,1.5-1.1,2c-0.7,0.5-1.6,0.8-2.8,0.8C69.7,30.1,69.1,30.1,68.6,29.9z"/>
	<path class="st2" d="M89.4,23.9v5.4c0,0.2-0.1,0.4-0.2,0.6c-0.1,0.1-0.3,0.2-0.6,0.2c-0.2,0-0.4-0.1-0.6-0.2
		c-0.1-0.1-0.2-0.3-0.2-0.6v-1c-0.3,0.6-0.6,1-1.2,1.3s-1.1,0.5-1.8,0.5c-0.6,0-1.2-0.1-1.7-0.4c-0.5-0.3-0.9-0.6-1.2-1.1
		c-0.3-0.5-0.5-1-0.5-1.5c0-0.7,0.2-1.3,0.6-1.7c0.4-0.4,1-0.7,1.8-0.9c0.9-0.2,2-0.3,3.6-0.3h0.4v-0.7c0-0.8-0.2-1.4-0.5-1.8
		s-0.9-0.6-1.6-0.6c-0.9,0-1.8,0.2-2.8,0.7c-0.4,0.2-0.6,0.3-0.8,0.3c-0.2,0-0.3-0.1-0.4-0.2c-0.1-0.1-0.2-0.3-0.2-0.5
		c0-0.2,0.1-0.3,0.2-0.5c0.1-0.1,0.3-0.3,0.6-0.4c0.5-0.3,1-0.5,1.6-0.6s1.2-0.2,1.8-0.2C88.2,20,89.4,21.3,89.4,23.9z M87.1,28
		c0.5-0.5,0.8-1.2,0.8-2.1v-0.6h-0.4c-1.2,0-2.1,0-2.7,0.2c-0.6,0.1-1,0.3-1.3,0.5c-0.3,0.2-0.4,0.6-0.4,1c0,0.5,0.2,1,0.6,1.3
		c0.4,0.3,0.9,0.5,1.4,0.5C85.9,28.9,86.6,28.6,87.1,28z"/>
	<path class="st2" d="M105.5,20.3c0.1,0.1,0.2,0.3,0.2,0.6v8.5c0,0.2-0.1,0.4-0.2,0.6c-0.1,0.1-0.3,0.2-0.6,0.2
		c-0.2,0-0.4-0.1-0.6-0.2c-0.1-0.1-0.2-0.3-0.2-0.5v-1c-0.3,0.6-0.7,1-1.3,1.3c-0.6,0.3-1.2,0.5-1.9,0.5c-1.2,0-2-0.3-2.6-1
		s-0.9-1.6-0.9-2.9v-5.4c0-0.2,0.1-0.4,0.2-0.6c0.1-0.1,0.3-0.2,0.6-0.2s0.5,0.1,0.6,0.2c0.1,0.1,0.2,0.3,0.2,0.6v5.4
		c0,0.9,0.2,1.5,0.5,1.9c0.3,0.4,0.9,0.6,1.6,0.6c0.9,0,1.5-0.3,2.1-0.8s0.8-1.3,0.8-2.2v-4.9c0-0.2,0.1-0.4,0.2-0.6
		c0.1-0.1,0.3-0.2,0.6-0.2S105.4,20.1,105.5,20.3z"/>
	<path class="st2" d="M117.2,23.9v5.4c0,0.3-0.1,0.5-0.2,0.6c-0.1,0.1-0.3,0.2-0.6,0.2c-0.3,0-0.5-0.1-0.6-0.2
		c-0.1-0.1-0.2-0.3-0.2-0.6V24c0-0.9-0.2-1.6-0.5-2c-0.4-0.4-0.9-0.6-1.7-0.6c-0.9,0-1.6,0.3-2.1,0.8s-0.8,1.3-0.8,2.2v4.9
		c0,0.3-0.1,0.5-0.2,0.6c-0.1,0.1-0.3,0.2-0.6,0.2s-0.5-0.1-0.6-0.2c-0.1-0.1-0.2-0.3-0.2-0.6v-8.4c0-0.2,0.1-0.4,0.2-0.6
		c0.1-0.1,0.3-0.2,0.6-0.2c0.2,0,0.4,0.1,0.6,0.2c0.1,0.1,0.2,0.3,0.2,0.6v1c0.3-0.6,0.8-1.1,1.3-1.4s1.2-0.5,2-0.5
		C116,20,117.2,21.3,117.2,23.9z"/>
	<path class="st2" d="M132.5,20.7c0.7,0.4,1.2,1,1.5,1.8c0.4,0.8,0.5,1.7,0.5,2.7s-0.2,1.9-0.5,2.6c-0.4,0.8-0.9,1.3-1.5,1.8
		c-0.6,0.4-1.4,0.6-2.3,0.6c-0.8,0-1.4-0.2-2-0.5c-0.6-0.3-1-0.8-1.3-1.4v4.7c0,0.2-0.1,0.4-0.2,0.6c-0.1,0.1-0.3,0.2-0.6,0.2
		s-0.5-0.1-0.6-0.2c-0.1-0.1-0.2-0.3-0.2-0.6V20.9c0-0.2,0.1-0.4,0.2-0.6c0.1-0.1,0.3-0.2,0.6-0.2s0.5,0.1,0.6,0.2
		c0.1,0.1,0.2,0.3,0.2,0.6v1.1c0.3-0.6,0.7-1.1,1.3-1.4c0.6-0.3,1.2-0.5,2-0.5C131.1,20,131.8,20.2,132.5,20.7z M132.1,27.8
		c0.5-0.6,0.8-1.5,0.8-2.7s-0.3-2.1-0.8-2.8s-1.3-1-2.2-1c-0.9,0-1.7,0.3-2.2,1c-0.5,0.6-0.8,1.6-0.8,2.7s0.3,2.1,0.8,2.8
		c0.5,0.6,1.2,1,2.2,1C130.8,28.8,131.6,28.5,132.1,27.8z"/>
	<path class="st2" d="M144.6,23.9v5.4c0,0.2-0.1,0.4-0.2,0.6c-0.1,0.1-0.3,0.2-0.6,0.2c-0.2,0-0.4-0.1-0.6-0.2
		c-0.1-0.1-0.2-0.3-0.2-0.6v-1c-0.3,0.6-0.6,1-1.2,1.3c-0.5,0.3-1.1,0.5-1.8,0.5c-0.6,0-1.2-0.1-1.7-0.4c-0.5-0.3-0.9-0.6-1.2-1.1
		c-0.3-0.5-0.5-1-0.5-1.5c0-0.7,0.2-1.3,0.6-1.7c0.4-0.4,1-0.7,1.8-0.9c0.9-0.2,2-0.3,3.6-0.3h0.4v-0.7c0-0.8-0.2-1.4-0.5-1.8
		c-0.3-0.4-0.9-0.6-1.6-0.6c-0.9,0-1.8,0.2-2.8,0.7c-0.4,0.2-0.6,0.3-0.8,0.3c-0.2,0-0.3-0.1-0.4-0.2c-0.1-0.1-0.2-0.3-0.2-0.5
		c0-0.2,0.1-0.3,0.2-0.5c0.1-0.1,0.3-0.3,0.6-0.4c0.5-0.3,1-0.5,1.6-0.6s1.2-0.2,1.8-0.2C143.4,20,144.6,21.3,144.6,23.9z M142.2,28
		c0.5-0.5,0.8-1.2,0.8-2.1v-0.6h-0.4c-1.2,0-2.1,0-2.7,0.2c-0.6,0.1-1,0.3-1.3,0.5c-0.3,0.2-0.4,0.6-0.4,1c0,0.5,0.2,1,0.6,1.3
		c0.4,0.3,0.9,0.5,1.4,0.5C141.1,28.9,141.7,28.6,142.2,28z"/>
	<path class="st2" d="M149.1,29.9c-0.6-0.1-1-0.4-1.5-0.6c-0.2-0.2-0.4-0.3-0.5-0.5c-0.1-0.1-0.1-0.3-0.1-0.5c0-0.2,0-0.3,0.1-0.4
		c0.1-0.1,0.2-0.2,0.4-0.2c0.2,0,0.4,0.1,0.7,0.3c0.4,0.2,0.8,0.4,1.2,0.6c0.4,0.1,0.9,0.2,1.5,0.2c0.7,0,1.3-0.1,1.7-0.4
		c0.4-0.3,0.6-0.6,0.6-1.1c0-0.3-0.1-0.5-0.2-0.7c-0.1-0.2-0.4-0.3-0.8-0.5c-0.4-0.1-0.9-0.3-1.6-0.4c-1.2-0.3-2-0.6-2.5-1
		s-0.8-1-0.8-1.7c0-0.6,0.2-1.1,0.5-1.5c0.3-0.4,0.8-0.8,1.3-1c0.6-0.3,1.2-0.4,1.9-0.4c0.5,0,1,0.1,1.5,0.2
		c0.5,0.1,0.9,0.3,1.3,0.6c0.5,0.3,0.7,0.7,0.7,1c0,0.2-0.1,0.3-0.2,0.4s-0.2,0.2-0.4,0.2c-0.2,0-0.4-0.1-0.7-0.3
		c-0.4-0.2-0.7-0.4-1.1-0.6c-0.3-0.1-0.7-0.2-1.2-0.2c-0.6,0-1.1,0.1-1.5,0.4c-0.4,0.3-0.6,0.7-0.6,1.1c0,0.3,0.1,0.5,0.2,0.7
		c0.1,0.2,0.4,0.3,0.7,0.5c0.3,0.1,0.8,0.3,1.4,0.4c0.9,0.2,1.6,0.4,2.1,0.7c0.5,0.2,0.9,0.5,1.1,0.9c0.2,0.3,0.3,0.8,0.3,1.3
		c0,0.8-0.4,1.5-1.1,2c-0.7,0.5-1.6,0.8-2.8,0.8C150.2,30.1,149.6,30.1,149.1,29.9z"/>
	<path class="st2" d="M158.7,29.5c-0.7-0.4-1.2-1-1.6-1.8s-0.6-1.7-0.6-2.7s0.2-1.9,0.6-2.7s0.9-1.4,1.6-1.8
		c0.7-0.4,1.5-0.6,2.4-0.6s1.7,0.2,2.4,0.6c0.7,0.4,1.2,1,1.6,1.8s0.6,1.7,0.6,2.7s-0.2,1.9-0.6,2.7s-0.9,1.4-1.6,1.8
		c-0.7,0.4-1.5,0.6-2.4,0.6S159.4,29.9,158.7,29.5z M163.4,27.8c0.5-0.6,0.8-1.6,0.8-2.8c0-1.2-0.3-2.1-0.8-2.8
		c-0.5-0.6-1.3-1-2.2-1c-0.9,0-1.7,0.3-2.2,1c-0.5,0.6-0.8,1.6-0.8,2.8c0,1.2,0.3,2.1,0.8,2.8c0.5,0.6,1.2,1,2.2,1
		S162.9,28.5,163.4,27.8z"/>
	<path class="st2" d="M181.8,16c0.1,0.1,0.2,0.3,0.2,0.6v12.7c0,0.2-0.1,0.4-0.2,0.6s-0.3,0.2-0.6,0.2c-0.3,0-0.5-0.1-0.6-0.2
		c-0.1-0.1-0.2-0.3-0.2-0.6v-1.1c-0.3,0.6-0.7,1.1-1.3,1.4c-0.6,0.3-1.2,0.5-2,0.5c-0.9,0-1.6-0.2-2.3-0.6c-0.7-0.4-1.2-1-1.5-1.8
		s-0.5-1.7-0.5-2.7c0-1,0.2-1.9,0.5-2.6c0.4-0.8,0.9-1.3,1.5-1.8c0.7-0.4,1.4-0.6,2.3-0.6c0.8,0,1.4,0.2,2,0.5
		c0.6,0.3,1,0.8,1.3,1.4v-5.4c0-0.2,0.1-0.4,0.2-0.6c0.1-0.1,0.3-0.2,0.6-0.2C181.5,15.8,181.7,15.9,181.8,16z M179.6,27.8
		c0.5-0.6,0.8-1.6,0.8-2.8s-0.3-2.1-0.8-2.7c-0.5-0.6-1.2-1-2.2-1c-0.9,0-1.7,0.3-2.2,1c-0.5,0.6-0.8,1.5-0.8,2.7
		c0,1.2,0.3,2.1,0.8,2.8c0.5,0.7,1.3,1,2.2,1C178.4,28.8,179.1,28.5,179.6,27.8z"/>
	<path class="st2" d="M193,27.9c0.1,0.1,0.2,0.3,0.2,0.5c0,0.3-0.2,0.6-0.7,0.9c-0.5,0.3-1,0.5-1.5,0.6c-0.5,0.1-1.1,0.2-1.6,0.2
		c-1.5,0-2.7-0.4-3.6-1.3c-0.9-0.9-1.3-2.1-1.3-3.7c0-1,0.2-1.9,0.6-2.6s0.9-1.4,1.6-1.8s1.5-0.6,2.4-0.6c1.3,0,2.3,0.4,3,1.2
		c0.7,0.8,1.1,1.9,1.1,3.4c0,0.3-0.1,0.5-0.2,0.6s-0.3,0.2-0.5,0.2h-6.4c0.1,2.3,1.2,3.4,3.3,3.4c0.5,0,1-0.1,1.3-0.2
		c0.4-0.1,0.8-0.3,1.2-0.6c0.3-0.2,0.6-0.3,0.7-0.3C192.7,27.7,192.9,27.8,193,27.9z M187,22.1c-0.5,0.5-0.8,1.3-0.9,2.3h5.7
		c0-1-0.3-1.7-0.7-2.3c-0.5-0.5-1.1-0.8-2-0.8C188.2,21.3,187.5,21.5,187,22.1z"/>
	<path class="st2" d="M203.4,17.8c-0.4,0.4-0.5,1-0.5,1.8v0.6h2.2c0.2,0,0.4,0.1,0.5,0.2c0.1,0.1,0.2,0.3,0.2,0.5s-0.1,0.4-0.2,0.5
		c-0.1,0.1-0.3,0.2-0.5,0.2h-2.2v7.8c0,0.3-0.1,0.5-0.2,0.6c-0.2,0.1-0.3,0.2-0.6,0.2c-0.2,0-0.4-0.1-0.6-0.2
		c-0.2-0.1-0.2-0.3-0.2-0.6v-7.8h-1.3c-0.2,0-0.4-0.1-0.5-0.2s-0.2-0.3-0.2-0.5c0-0.2,0.1-0.4,0.2-0.5c0.1-0.1,0.3-0.2,0.5-0.2h1.3
		v-0.4c0-1.2,0.3-2.1,0.9-2.8c0.6-0.7,1.5-1.1,2.6-1.2l0.5,0c0.3,0,0.6,0,0.8,0.1c0.2,0.1,0.2,0.3,0.2,0.5c0,0.4-0.2,0.6-0.7,0.7
		l-0.5,0C204.3,17.2,203.8,17.5,203.4,17.8z"/>
	<path class="st2" d="M208.8,29.5c-0.7-0.4-1.2-1-1.6-1.8s-0.6-1.7-0.6-2.7s0.2-1.9,0.6-2.7s0.9-1.4,1.6-1.8
		c0.7-0.4,1.5-0.6,2.4-0.6s1.7,0.2,2.4,0.6c0.7,0.4,1.2,1,1.6,1.8s0.6,1.7,0.6,2.7s-0.2,1.9-0.6,2.7s-0.9,1.4-1.6,1.8
		c-0.7,0.4-1.5,0.6-2.4,0.6S209.5,29.9,208.8,29.5z M213.4,27.8c0.5-0.6,0.8-1.6,0.8-2.8c0-1.2-0.3-2.1-0.8-2.8
		c-0.5-0.6-1.3-1-2.2-1c-0.9,0-1.7,0.3-2.2,1c-0.5,0.6-0.8,1.6-0.8,2.8c0,1.2,0.3,2.1,0.8,2.8c0.5,0.6,1.2,1,2.2,1
		S212.9,28.5,213.4,27.8z"/>
	<path class="st2" d="M224,20.7c0,0.2-0.1,0.4-0.2,0.5c-0.1,0.1-0.3,0.2-0.6,0.2l-0.6,0.1c-0.9,0.1-1.6,0.4-2,1
		c-0.4,0.6-0.6,1.2-0.6,2v4.9c0,0.3-0.1,0.5-0.2,0.6c-0.1,0.1-0.3,0.2-0.6,0.2c-0.2,0-0.4-0.1-0.6-0.2c-0.2-0.1-0.2-0.3-0.2-0.6
		v-8.4c0-0.3,0.1-0.5,0.2-0.6c0.2-0.1,0.4-0.2,0.6-0.2c0.2,0,0.4,0.1,0.5,0.2c0.1,0.1,0.2,0.3,0.2,0.6V22c0.3-0.6,0.7-1,1.2-1.3
		c0.5-0.3,1.1-0.5,1.8-0.5l0.3,0C223.7,20,224,20.2,224,20.7z"/>
	<path class="st2" d="M239.4,23.9v5.4c0,0.3-0.1,0.5-0.2,0.6c-0.1,0.1-0.3,0.2-0.6,0.2c-0.2,0-0.4-0.1-0.6-0.2
		c-0.2-0.1-0.2-0.3-0.2-0.6v-5.4c0-0.9-0.2-1.5-0.5-1.9c-0.3-0.4-0.8-0.6-1.5-0.6c-0.8,0-1.5,0.3-1.9,0.8s-0.7,1.3-0.7,2.2v4.9
		c0,0.3-0.1,0.5-0.2,0.6c-0.2,0.1-0.3,0.2-0.6,0.2s-0.4-0.1-0.6-0.2c-0.1-0.1-0.2-0.3-0.2-0.6v-5.4c0-0.9-0.2-1.5-0.5-1.9
		c-0.3-0.4-0.8-0.6-1.5-0.6c-0.8,0-1.4,0.3-1.9,0.8c-0.5,0.5-0.7,1.3-0.7,2.2v4.9c0,0.3-0.1,0.5-0.2,0.6c-0.1,0.1-0.3,0.2-0.6,0.2
		c-0.2,0-0.4-0.1-0.6-0.2c-0.2-0.1-0.2-0.3-0.2-0.6v-8.4c0-0.2,0.1-0.4,0.2-0.6c0.2-0.1,0.3-0.2,0.6-0.2c0.2,0,0.4,0.1,0.6,0.2
		c0.1,0.1,0.2,0.3,0.2,0.6v1c0.3-0.6,0.7-1,1.2-1.3c0.5-0.3,1.1-0.5,1.8-0.5c1.5,0,2.5,0.6,3,1.9c0.3-0.6,0.7-1.1,1.3-1.4
		s1.2-0.5,2-0.5C238.4,20,239.4,21.3,239.4,23.9z"/>
	<path class="st2" d="M250,23.9v5.4c0,0.2-0.1,0.4-0.2,0.6c-0.1,0.1-0.3,0.2-0.6,0.2c-0.2,0-0.4-0.1-0.6-0.2
		c-0.1-0.1-0.2-0.3-0.2-0.6v-1c-0.3,0.6-0.6,1-1.2,1.3c-0.5,0.3-1.1,0.5-1.8,0.5c-0.6,0-1.2-0.1-1.7-0.4c-0.5-0.3-0.9-0.6-1.2-1.1
		s-0.5-1-0.5-1.5c0-0.7,0.2-1.3,0.6-1.7c0.4-0.4,1-0.7,1.8-0.9c0.9-0.2,2-0.3,3.6-0.3h0.4v-0.7c0-0.8-0.2-1.4-0.5-1.8
		c-0.3-0.4-0.9-0.6-1.6-0.6c-0.9,0-1.8,0.2-2.8,0.7c-0.4,0.2-0.6,0.3-0.8,0.3c-0.2,0-0.3-0.1-0.4-0.2c-0.1-0.1-0.2-0.3-0.2-0.5
		c0-0.2,0.1-0.3,0.2-0.5c0.1-0.1,0.3-0.3,0.5-0.4c0.5-0.3,1-0.5,1.6-0.6c0.6-0.2,1.2-0.2,1.8-0.2C248.8,20,250,21.3,250,23.9z
		 M247.7,28c0.5-0.5,0.8-1.2,0.8-2.1v-0.6h-0.4c-1.2,0-2.1,0-2.7,0.2c-0.6,0.1-1,0.3-1.3,0.5s-0.4,0.6-0.4,1c0,0.5,0.2,1,0.6,1.3
		c0.4,0.3,0.9,0.5,1.4,0.5C246.5,28.9,247.2,28.6,247.7,28z"/>
	<path class="st2" d="M258.7,20.7c0,0.2-0.1,0.4-0.2,0.5c-0.1,0.1-0.3,0.2-0.6,0.2l-0.6,0.1c-0.9,0.1-1.6,0.4-2,1
		c-0.4,0.6-0.6,1.2-0.6,2v4.9c0,0.3-0.1,0.5-0.2,0.6c-0.1,0.1-0.3,0.2-0.6,0.2c-0.2,0-0.4-0.1-0.6-0.2c-0.2-0.1-0.2-0.3-0.2-0.6
		v-8.4c0-0.3,0.1-0.5,0.2-0.6c0.2-0.1,0.4-0.2,0.6-0.2c0.2,0,0.4,0.1,0.5,0.2c0.1,0.1,0.2,0.3,0.2,0.6V22c0.3-0.6,0.7-1,1.2-1.3
		c0.5-0.3,1.1-0.5,1.8-0.5l0.3,0C258.4,20,258.7,20.2,258.7,20.7z"/>
</g>
<g class="st1">
	<path class="st2" d="M35.7,47.7c0.7,0.4,1.2,1,1.5,1.8c0.4,0.8,0.5,1.7,0.5,2.7s-0.2,1.9-0.5,2.6c-0.4,0.8-0.9,1.3-1.5,1.8
		c-0.6,0.4-1.4,0.6-2.3,0.6c-0.8,0-1.4-0.2-2-0.5c-0.6-0.3-1-0.8-1.3-1.4v4.7c0,0.2-0.1,0.4-0.2,0.6c-0.1,0.1-0.3,0.2-0.6,0.2
		s-0.5-0.1-0.6-0.2c-0.1-0.1-0.2-0.3-0.2-0.6V47.9c0-0.2,0.1-0.4,0.2-0.6c0.1-0.1,0.3-0.2,0.6-0.2s0.5,0.1,0.6,0.2
		c0.1,0.1,0.2,0.3,0.2,0.6v1.1c0.3-0.6,0.7-1.1,1.3-1.4c0.6-0.3,1.2-0.5,2-0.5C34.3,47,35,47.2,35.7,47.7z M35.3,54.8
		c0.5-0.6,0.8-1.5,0.8-2.7s-0.3-2.1-0.8-2.8s-1.3-1-2.2-1c-0.9,0-1.7,0.3-2.2,1c-0.5,0.6-0.8,1.6-0.8,2.7s0.3,2.1,0.8,2.8
		c0.5,0.6,1.2,1,2.2,1C34,55.8,34.8,55.5,35.3,54.8z"/>
	<path class="st2" d="M47.8,50.9v5.4c0,0.2-0.1,0.4-0.2,0.6c-0.1,0.1-0.3,0.2-0.6,0.2c-0.2,0-0.4-0.1-0.6-0.2
		c-0.1-0.1-0.2-0.3-0.2-0.6v-1c-0.3,0.6-0.6,1-1.2,1.3s-1.1,0.5-1.8,0.5c-0.6,0-1.2-0.1-1.7-0.4c-0.5-0.3-0.9-0.6-1.2-1.1
		c-0.3-0.5-0.5-1-0.5-1.5c0-0.7,0.2-1.3,0.6-1.7c0.4-0.4,1-0.7,1.8-0.9c0.9-0.2,2-0.3,3.6-0.3h0.4v-0.7c0-0.8-0.2-1.4-0.5-1.8
		s-0.9-0.6-1.6-0.6c-0.9,0-1.8,0.2-2.8,0.7c-0.4,0.2-0.6,0.3-0.8,0.3c-0.2,0-0.3-0.1-0.4-0.2C40.1,49.1,40,49,40,48.8
		c0-0.2,0.1-0.3,0.2-0.5c0.1-0.1,0.3-0.3,0.6-0.4c0.5-0.3,1-0.5,1.6-0.6s1.2-0.2,1.8-0.2C46.6,47,47.8,48.3,47.8,50.9z M45.4,55
		c0.5-0.5,0.8-1.2,0.8-2.1v-0.6h-0.4c-1.2,0-2.1,0-2.7,0.2c-0.6,0.1-1,0.3-1.3,0.5c-0.3,0.2-0.4,0.6-0.4,1c0,0.5,0.2,1,0.6,1.3
		c0.4,0.3,0.9,0.5,1.4,0.5C44.3,55.9,44.9,55.6,45.4,55z"/>
	<path class="st2" d="M56.4,47.7c0,0.2-0.1,0.4-0.2,0.5s-0.3,0.2-0.6,0.2L55,48.5c-0.9,0.1-1.6,0.4-2,1c-0.4,0.6-0.6,1.2-0.6,2v4.9
		c0,0.3-0.1,0.5-0.2,0.6c-0.1,0.1-0.3,0.2-0.6,0.2c-0.2,0-0.4-0.1-0.6-0.2c-0.2-0.1-0.2-0.3-0.2-0.6v-8.4c0-0.3,0.1-0.5,0.2-0.6
		c0.2-0.1,0.4-0.2,0.6-0.2c0.2,0,0.4,0.1,0.5,0.2c0.1,0.1,0.2,0.3,0.2,0.6V49c0.3-0.6,0.7-1,1.2-1.3c0.5-0.3,1.1-0.5,1.8-0.5l0.3,0
		C56.1,47,56.4,47.2,56.4,47.7z"/>
	<path class="st2" d="M63.8,56.5c0,0.2-0.1,0.4-0.2,0.5c-0.2,0.1-0.4,0.2-0.8,0.1l-0.5,0c-1.1-0.1-1.9-0.4-2.4-1
		c-0.5-0.6-0.8-1.4-0.8-2.5v-5h-1.3c-0.2,0-0.4-0.1-0.5-0.2c-0.1-0.1-0.2-0.3-0.2-0.5c0-0.2,0.1-0.4,0.2-0.5
		c0.1-0.1,0.3-0.2,0.5-0.2h1.3V45c0-0.3,0.1-0.5,0.2-0.6c0.1-0.1,0.3-0.2,0.6-0.2c0.2,0,0.4,0.1,0.6,0.2c0.1,0.1,0.2,0.3,0.2,0.6
		v2.3H63c0.2,0,0.4,0.1,0.5,0.2c0.1,0.1,0.2,0.3,0.2,0.5c0,0.2-0.1,0.3-0.2,0.5c-0.1,0.1-0.3,0.2-0.5,0.2h-2.2v5.1
		c0,0.7,0.1,1.3,0.4,1.6c0.3,0.3,0.8,0.5,1.4,0.5l0.5,0C63.5,55.9,63.8,56.1,63.8,56.5z"/>
	<path class="st2" d="M73.3,54.9c0.1,0.1,0.2,0.3,0.2,0.5c0,0.3-0.2,0.6-0.7,0.9c-0.5,0.3-1,0.5-1.5,0.6c-0.5,0.1-1.1,0.2-1.6,0.2
		c-1.5,0-2.7-0.4-3.6-1.3c-0.9-0.9-1.3-2.1-1.3-3.7c0-1,0.2-1.9,0.6-2.6s0.9-1.4,1.6-1.8c0.7-0.4,1.5-0.6,2.4-0.6
		c1.3,0,2.3,0.4,3,1.2c0.7,0.8,1.1,1.9,1.1,3.4c0,0.3-0.1,0.5-0.2,0.6c-0.1,0.1-0.3,0.2-0.5,0.2h-6.4c0.1,2.3,1.2,3.4,3.3,3.4
		c0.5,0,1-0.1,1.3-0.2c0.4-0.1,0.8-0.3,1.2-0.6c0.3-0.2,0.6-0.3,0.7-0.3C73.1,54.7,73.2,54.8,73.3,54.9z M67.4,49.1
		c-0.5,0.5-0.8,1.3-0.9,2.3h5.7c0-1-0.3-1.7-0.7-2.3c-0.5-0.5-1.1-0.8-2-0.8C68.6,48.3,67.9,48.5,67.4,49.1z"/>
	<path class="st2" d="M89.5,43c0.1,0.1,0.2,0.3,0.2,0.6v12.7c0,0.2-0.1,0.4-0.2,0.6c-0.1,0.1-0.3,0.2-0.6,0.2s-0.4-0.1-0.6-0.2
		s-0.2-0.3-0.2-0.6v-1.1c-0.3,0.6-0.7,1.1-1.3,1.4c-0.6,0.3-1.2,0.5-2,0.5c-0.9,0-1.6-0.2-2.3-0.6s-1.2-1-1.5-1.8s-0.5-1.7-0.5-2.7
		c0-1,0.2-1.9,0.5-2.6c0.4-0.8,0.9-1.3,1.5-1.8c0.7-0.4,1.4-0.6,2.3-0.6c0.8,0,1.4,0.2,2,0.5c0.6,0.3,1,0.8,1.3,1.4v-5.4
		c0-0.2,0.1-0.4,0.2-0.6c0.1-0.1,0.3-0.2,0.6-0.2S89.4,42.9,89.5,43z M87.3,54.8c0.5-0.6,0.8-1.6,0.8-2.8s-0.3-2.1-0.8-2.7
		c-0.5-0.6-1.2-1-2.2-1c-0.9,0-1.7,0.3-2.2,1c-0.5,0.6-0.8,1.5-0.8,2.7c0,1.2,0.3,2.1,0.8,2.8c0.5,0.7,1.3,1,2.2,1
		C86.1,55.8,86.8,55.5,87.3,54.8z"/>
	<path class="st2" d="M100.6,54.9c0.1,0.1,0.2,0.3,0.2,0.5c0,0.3-0.2,0.6-0.7,0.9c-0.5,0.3-1,0.5-1.5,0.6c-0.5,0.1-1.1,0.2-1.6,0.2
		c-1.5,0-2.7-0.4-3.6-1.3c-0.9-0.9-1.3-2.1-1.3-3.7c0-1,0.2-1.9,0.6-2.6s0.9-1.4,1.6-1.8c0.7-0.4,1.5-0.6,2.4-0.6
		c1.3,0,2.3,0.4,3,1.2c0.7,0.8,1.1,1.9,1.1,3.4c0,0.3-0.1,0.5-0.2,0.6c-0.1,0.1-0.3,0.2-0.5,0.2h-6.4c0.1,2.3,1.2,3.4,3.3,3.4
		c0.5,0,1-0.1,1.3-0.2c0.4-0.1,0.8-0.3,1.2-0.6c0.3-0.2,0.6-0.3,0.7-0.3C100.4,54.7,100.5,54.8,100.6,54.9z M94.7,49.1
		c-0.5,0.5-0.8,1.3-0.9,2.3h5.7c0-1-0.3-1.7-0.7-2.3c-0.5-0.5-1.1-0.8-2-0.8C95.9,48.3,95.2,48.5,94.7,49.1z"/>
	<path class="st2" d="M108.6,56.9c-0.2-0.1-0.2-0.3-0.2-0.6V43.6c0-0.3,0.1-0.4,0.2-0.6c0.2-0.1,0.4-0.2,0.6-0.2
		c0.2,0,0.4,0.1,0.6,0.2c0.2,0.1,0.2,0.3,0.2,0.6v12.7c0,0.3-0.1,0.5-0.2,0.6c-0.2,0.1-0.3,0.2-0.6,0.2
		C109,57.1,108.8,57,108.6,56.9z"/>
	<path class="st2" d="M120.7,50.9v5.4c0,0.2-0.1,0.4-0.2,0.6c-0.1,0.1-0.3,0.2-0.6,0.2c-0.2,0-0.4-0.1-0.6-0.2
		c-0.1-0.1-0.2-0.3-0.2-0.6v-1c-0.3,0.6-0.6,1-1.2,1.3s-1.1,0.5-1.8,0.5c-0.6,0-1.2-0.1-1.7-0.4c-0.5-0.3-0.9-0.6-1.2-1.1
		c-0.3-0.5-0.5-1-0.5-1.5c0-0.7,0.2-1.3,0.6-1.7c0.4-0.4,1-0.7,1.8-0.9c0.9-0.2,2-0.3,3.6-0.3h0.4v-0.7c0-0.8-0.2-1.4-0.5-1.8
		s-0.9-0.6-1.6-0.6c-0.9,0-1.8,0.2-2.8,0.7c-0.4,0.2-0.6,0.3-0.8,0.3c-0.2,0-0.3-0.1-0.4-0.2c-0.1-0.1-0.2-0.3-0.2-0.5
		c0-0.2,0.1-0.3,0.2-0.5c0.1-0.1,0.3-0.3,0.6-0.4c0.5-0.3,1-0.5,1.6-0.6s1.2-0.2,1.8-0.2C119.5,47,120.7,48.3,120.7,50.9z M118.3,55
		c0.5-0.5,0.8-1.2,0.8-2.1v-0.6h-0.4c-1.2,0-2.1,0-2.7,0.2c-0.6,0.1-1,0.3-1.3,0.5c-0.3,0.2-0.4,0.6-0.4,1c0,0.5,0.2,1,0.6,1.3
		c0.4,0.3,0.9,0.5,1.4,0.5C117.2,55.9,117.8,55.6,118.3,55z"/>
	<path class="st2" d="M142.9,50.9v5.4c0,0.3-0.1,0.5-0.2,0.6c-0.1,0.1-0.3,0.2-0.6,0.2c-0.2,0-0.4-0.1-0.6-0.2
		c-0.2-0.1-0.2-0.3-0.2-0.6v-5.4c0-0.9-0.2-1.5-0.5-1.9c-0.3-0.4-0.8-0.6-1.5-0.6c-0.8,0-1.5,0.3-1.9,0.8c-0.5,0.5-0.7,1.3-0.7,2.2
		v4.9c0,0.3-0.1,0.5-0.2,0.6c-0.2,0.1-0.4,0.2-0.6,0.2c-0.2,0-0.4-0.1-0.6-0.2c-0.1-0.1-0.2-0.3-0.2-0.6v-5.4c0-0.9-0.2-1.5-0.5-1.9
		c-0.3-0.4-0.8-0.6-1.5-0.6c-0.8,0-1.4,0.3-1.9,0.8c-0.5,0.5-0.7,1.3-0.7,2.2v4.9c0,0.3-0.1,0.5-0.2,0.6c-0.1,0.1-0.3,0.2-0.6,0.2
		c-0.2,0-0.4-0.1-0.6-0.2c-0.2-0.1-0.2-0.3-0.2-0.6v-8.4c0-0.2,0.1-0.4,0.2-0.6s0.4-0.2,0.6-0.2c0.2,0,0.4,0.1,0.6,0.2
		c0.1,0.1,0.2,0.3,0.2,0.6v1c0.3-0.6,0.7-1,1.2-1.3s1.1-0.5,1.8-0.5c1.5,0,2.5,0.6,3,1.9c0.3-0.6,0.7-1.1,1.3-1.4s1.2-0.5,2-0.5
		C141.8,47,142.9,48.3,142.9,50.9z"/>
	<path class="st2" d="M147.5,56.5c-0.7-0.4-1.2-1-1.6-1.8s-0.6-1.7-0.6-2.7s0.2-1.9,0.6-2.7s0.9-1.4,1.6-1.8
		c0.7-0.4,1.5-0.6,2.4-0.6s1.7,0.2,2.4,0.6c0.7,0.4,1.2,1,1.6,1.8s0.6,1.7,0.6,2.7s-0.2,1.9-0.6,2.7s-0.9,1.4-1.6,1.8
		c-0.7,0.4-1.5,0.6-2.4,0.6S148.2,56.9,147.5,56.5z M152.1,54.8c0.5-0.6,0.8-1.6,0.8-2.8c0-1.2-0.3-2.1-0.8-2.8
		c-0.5-0.6-1.3-1-2.2-1c-0.9,0-1.7,0.3-2.2,1c-0.5,0.6-0.8,1.6-0.8,2.8c0,1.2,0.3,2.1,0.8,2.8c0.5,0.6,1.2,1,2.2,1
		S151.6,55.5,152.1,54.8z"/>
	<path class="st2" d="M165.4,43c0.1,0.1,0.2,0.3,0.2,0.6v12.7c0,0.2-0.1,0.4-0.2,0.6s-0.3,0.2-0.6,0.2c-0.3,0-0.5-0.1-0.6-0.2
		c-0.1-0.1-0.2-0.3-0.2-0.6v-1.1c-0.3,0.6-0.7,1.1-1.3,1.4c-0.6,0.3-1.2,0.5-2,0.5c-0.9,0-1.6-0.2-2.3-0.6c-0.7-0.4-1.2-1-1.5-1.8
		s-0.5-1.7-0.5-2.7c0-1,0.2-1.9,0.5-2.6c0.4-0.8,0.9-1.3,1.5-1.8c0.7-0.4,1.4-0.6,2.3-0.6c0.8,0,1.4,0.2,2,0.5
		c0.6,0.3,1,0.8,1.3,1.4v-5.4c0-0.2,0.1-0.4,0.2-0.6c0.1-0.1,0.3-0.2,0.6-0.2C165,42.8,165.2,42.9,165.4,43z M163.2,54.8
		c0.5-0.6,0.8-1.6,0.8-2.8s-0.3-2.1-0.8-2.7c-0.5-0.6-1.2-1-2.2-1c-0.9,0-1.7,0.3-2.2,1c-0.5,0.6-0.8,1.5-0.8,2.7
		c0,1.2,0.3,2.1,0.8,2.8c0.5,0.7,1.3,1,2.2,1C162,55.8,162.7,55.5,163.2,54.8z"/>
	<path class="st2" d="M176.2,50.9v5.4c0,0.2-0.1,0.4-0.2,0.6c-0.1,0.1-0.3,0.2-0.6,0.2c-0.2,0-0.4-0.1-0.6-0.2
		c-0.1-0.1-0.2-0.3-0.2-0.6v-1c-0.3,0.6-0.6,1-1.2,1.3c-0.5,0.3-1.1,0.5-1.8,0.5c-0.6,0-1.2-0.1-1.7-0.4c-0.5-0.3-0.9-0.6-1.2-1.1
		s-0.5-1-0.5-1.5c0-0.7,0.2-1.3,0.6-1.7c0.4-0.4,1-0.7,1.8-0.9c0.9-0.2,2-0.3,3.6-0.3h0.4v-0.7c0-0.8-0.2-1.4-0.5-1.8
		c-0.3-0.4-0.9-0.6-1.6-0.6c-0.9,0-1.8,0.2-2.8,0.7c-0.4,0.2-0.6,0.3-0.8,0.3c-0.2,0-0.3-0.1-0.4-0.2c-0.1-0.1-0.2-0.3-0.2-0.5
		c0-0.2,0.1-0.3,0.2-0.5c0.1-0.1,0.3-0.3,0.5-0.4c0.5-0.3,1-0.5,1.6-0.6c0.6-0.2,1.2-0.2,1.8-0.2C175,47,176.2,48.3,176.2,50.9z
		 M173.9,55c0.5-0.5,0.8-1.2,0.8-2.1v-0.6h-0.4c-1.2,0-2.1,0-2.7,0.2c-0.6,0.1-1,0.3-1.3,0.5s-0.4,0.6-0.4,1c0,0.5,0.2,1,0.6,1.3
		c0.4,0.3,0.9,0.5,1.4,0.5C172.7,55.9,173.4,55.6,173.9,55z"/>
	<path class="st2" d="M187.1,56.3c-1-0.6-1.7-1.4-2.2-2.5s-0.8-2.4-0.8-3.8c0-1.5,0.3-2.8,0.8-3.8c0.5-1.1,1.3-1.9,2.2-2.5
		s2.1-0.9,3.4-0.9c1.3,0,2.5,0.3,3.4,0.9c1,0.6,1.7,1.4,2.2,2.5c0.5,1.1,0.8,2.4,0.8,3.8s-0.3,2.7-0.8,3.8c-0.5,1.1-1.3,1.9-2.2,2.5
		s-2.1,0.9-3.4,0.9S188.1,56.9,187.1,56.3z M194,54.3c0.8-1,1.2-2.4,1.2-4.3c0-1.9-0.4-3.3-1.2-4.3c-0.8-1-2-1.5-3.5-1.5
		c-1.5,0-2.7,0.5-3.5,1.5c-0.8,1-1.2,2.4-1.2,4.3c0,1.9,0.4,3.3,1.2,4.3c0.8,1,2,1.5,3.5,1.5S193.2,55.3,194,54.3z"/>
	<path class="st2" d="M210.8,49.8c0.1,0.1,0.2,0.3,0.2,0.5v5c0,0.3-0.1,0.6-0.2,0.7s-0.3,0.3-0.5,0.4c-0.5,0.2-1.2,0.4-1.9,0.5
		s-1.5,0.2-2.3,0.2c-1.4,0-2.6-0.3-3.6-0.9c-1-0.6-1.8-1.4-2.3-2.5s-0.8-2.4-0.8-3.9c0-1.5,0.3-2.8,0.8-3.8s1.3-1.9,2.3-2.5
		s2.2-0.9,3.5-0.9c0.9,0,1.8,0.1,2.6,0.4c0.8,0.3,1.5,0.7,2,1.2c0.2,0.2,0.3,0.5,0.3,0.7c0,0.2-0.1,0.4-0.2,0.5
		c-0.1,0.1-0.2,0.2-0.4,0.2s-0.3-0.1-0.6-0.2c-0.7-0.5-1.3-0.9-1.9-1.1c-0.6-0.2-1.2-0.3-1.9-0.3c-1.6,0-2.8,0.5-3.7,1.5
		s-1.3,2.4-1.3,4.3c0,1.9,0.4,3.4,1.3,4.3c0.9,1,2.1,1.5,3.8,1.5c1.2,0,2.4-0.2,3.4-0.6v-4.3h-2.9c-0.2,0-0.4-0.1-0.5-0.2
		c-0.1-0.1-0.2-0.3-0.2-0.5c0-0.2,0.1-0.4,0.2-0.5c0.1-0.1,0.3-0.2,0.5-0.2h3.7C210.6,49.7,210.7,49.7,210.8,49.8z"/>
	<path class="st2" d="M225.3,49.8c0.1,0.1,0.2,0.3,0.2,0.5v5c0,0.3-0.1,0.6-0.2,0.7s-0.3,0.3-0.5,0.4c-0.5,0.2-1.2,0.4-1.9,0.5
		s-1.5,0.2-2.3,0.2c-1.4,0-2.6-0.3-3.6-0.9c-1-0.6-1.8-1.4-2.3-2.5s-0.8-2.4-0.8-3.9c0-1.5,0.3-2.8,0.8-3.8s1.3-1.9,2.3-2.5
		s2.2-0.9,3.5-0.9c0.9,0,1.8,0.1,2.6,0.4c0.8,0.3,1.5,0.7,2,1.2c0.2,0.2,0.3,0.5,0.3,0.7c0,0.2-0.1,0.4-0.2,0.5
		c-0.1,0.1-0.2,0.2-0.4,0.2s-0.3-0.1-0.6-0.2c-0.7-0.5-1.3-0.9-1.9-1.1c-0.6-0.2-1.2-0.3-1.9-0.3c-1.6,0-2.8,0.5-3.7,1.5
		s-1.3,2.4-1.3,4.3c0,1.9,0.4,3.4,1.3,4.3c0.9,1,2.1,1.5,3.8,1.5c1.2,0,2.4-0.2,3.4-0.6v-4.3h-2.9c-0.2,0-0.4-0.1-0.5-0.2
		c-0.1-0.1-0.2-0.3-0.2-0.5c0-0.2,0.1-0.4,0.2-0.5c0.1-0.1,0.3-0.2,0.5-0.2h3.7C225,49.7,225.2,49.7,225.3,49.8z"/>
	<path class="st2" d="M229.1,56.9c-0.1-0.2-0.2-0.4-0.2-0.6V43.6c0-0.3,0.1-0.5,0.2-0.6s0.3-0.2,0.6-0.2c0.3,0,0.5,0.1,0.6,0.2
		c0.1,0.2,0.2,0.4,0.2,0.6v12.6c0,0.3-0.1,0.5-0.2,0.6c-0.1,0.2-0.3,0.2-0.6,0.2C229.4,57.1,229.2,57,229.1,56.9z"/>
	<path class="st2" d="M235.3,55.2c0.2,0.3,0.3,0.6,0.3,1.2c0,1.1-0.3,1.9-1,2.7c-0.1,0.1-0.3,0.2-0.5,0.2c-0.1,0-0.3,0-0.4-0.2
		c-0.1-0.1-0.2-0.2-0.2-0.3c0-0.1,0.1-0.3,0.2-0.4c0.3-0.4,0.6-0.8,0.7-1.3c-0.3,0-0.5-0.1-0.7-0.3s-0.3-0.4-0.3-0.8
		c0-0.3,0.1-0.6,0.3-0.8c0.2-0.2,0.5-0.3,0.8-0.3C234.8,54.8,235.1,55,235.3,55.2z"/>
</g>
<g class="st1">
	<path class="st2" d="M28.9,83.8c-0.2-0.2-0.4-0.6-0.4-0.9V71.1c0-0.4,0.1-0.7,0.3-0.9c0.2-0.2,0.5-0.3,0.9-0.3h7
		c0.8,0,1.2,0.3,1.2,1c0,0.7-0.4,1-1.2,1h-5.7v3.8h5.3c0.8,0,1.2,0.3,1.2,1c0,0.7-0.4,1-1.2,1h-5.3v5c0,0.4-0.1,0.7-0.3,0.9
		c-0.2,0.2-0.5,0.4-0.9,0.4S29.1,84,28.9,83.8z"/>
	<path class="st2" d="M40.2,83.8c-0.2-0.2-0.4-0.6-0.4-0.9V71.1c0-0.4,0.1-0.7,0.4-0.9c0.2-0.2,0.5-0.4,0.9-0.4c0.4,0,0.7,0.1,1,0.4
		c0.2,0.2,0.4,0.5,0.4,0.9v11.7c0,0.4-0.1,0.7-0.4,0.9c-0.2,0.2-0.5,0.4-1,0.4C40.7,84.1,40.4,84,40.2,83.8z"/>
	<path class="st2" d="M57,70.2c0.2,0.2,0.3,0.5,0.3,0.9v11.7c0,0.4-0.1,0.7-0.3,0.9c-0.2,0.2-0.5,0.4-0.9,0.4c-0.4,0-0.8-0.2-1-0.5
		l-7.3-9.5v8.7c0,0.4-0.1,0.7-0.3,0.9c-0.2,0.2-0.5,0.4-0.9,0.4c-0.4,0-0.7-0.1-0.9-0.4s-0.3-0.6-0.3-0.9V71.1
		c0-0.4,0.1-0.7,0.3-0.9s0.5-0.4,0.9-0.4c0.4,0,0.7,0.2,1,0.5l7.3,9.5v-8.6c0-0.4,0.1-0.7,0.3-0.9c0.2-0.2,0.5-0.4,0.9-0.4
		C56.5,69.8,56.8,69.9,57,70.2z"/>
	<path class="st2" d="M73.3,83c0,0.3-0.1,0.6-0.4,0.8c-0.2,0.2-0.5,0.3-0.8,0.3c-0.2,0-0.4-0.1-0.6-0.2c-0.2-0.1-0.3-0.3-0.4-0.5
		l-1.2-2.7h-7l-1.2,2.7c-0.1,0.2-0.3,0.4-0.4,0.5c-0.2,0.1-0.4,0.2-0.6,0.2c-0.3,0-0.6-0.1-0.8-0.3c-0.3-0.2-0.4-0.5-0.4-0.8
		c0-0.2,0-0.3,0.1-0.5L65,70.6c0.1-0.3,0.3-0.5,0.5-0.6c0.2-0.1,0.5-0.2,0.8-0.2c0.3,0,0.5,0.1,0.8,0.2c0.2,0.1,0.4,0.3,0.5,0.6
		l5.5,11.9C73.3,82.6,73.3,82.8,73.3,83z M69,78.7l-2.6-5.9l-2.6,5.9H69z"/>
	<path class="st2" d="M75.6,83.7c-0.2-0.2-0.3-0.5-0.3-0.9V71.1c0-0.4,0.1-0.7,0.4-0.9c0.2-0.2,0.5-0.4,0.9-0.4c0.4,0,0.7,0.1,1,0.4
		c0.2,0.2,0.4,0.5,0.4,0.9v10.8h5.6c0.8,0,1.2,0.4,1.2,1.1c0,0.7-0.4,1.1-1.2,1.1h-7C76.1,84,75.8,83.9,75.6,83.7z"/>
	<path class="st2" d="M86.7,83.8c-0.2-0.2-0.4-0.6-0.4-0.9V71.1c0-0.4,0.1-0.7,0.4-0.9c0.2-0.2,0.5-0.4,0.9-0.4c0.4,0,0.7,0.1,1,0.4
		c0.2,0.2,0.4,0.5,0.4,0.9v11.7c0,0.4-0.1,0.7-0.4,0.9c-0.2,0.2-0.5,0.4-1,0.4C87.2,84.1,86.9,84,86.7,83.8z"/>
	<path class="st2" d="M102,83c0,0.7-0.4,1-1.2,1h-8.5c-0.3,0-0.6-0.1-0.8-0.3c-0.2-0.2-0.3-0.5-0.3-0.8c0-0.3,0.1-0.6,0.3-0.9
		l7.2-10h-6.3c-0.8,0-1.2-0.3-1.2-1c0-0.7,0.4-1,1.2-1h8.3c0.3,0,0.6,0.1,0.8,0.3c0.2,0.2,0.3,0.5,0.3,0.8s-0.1,0.6-0.3,0.9l-7.2,10
		h6.5C101.6,81.9,102,82.3,102,83z"/>
	<path class="st2" d="M116.7,83c0,0.3-0.1,0.6-0.4,0.8c-0.2,0.2-0.5,0.3-0.8,0.3c-0.2,0-0.4-0.1-0.6-0.2c-0.2-0.1-0.3-0.3-0.4-0.5
		l-1.2-2.7h-7l-1.2,2.7c-0.1,0.2-0.3,0.4-0.4,0.5c-0.2,0.1-0.4,0.2-0.6,0.2c-0.3,0-0.6-0.1-0.8-0.3c-0.3-0.2-0.4-0.5-0.4-0.8
		c0-0.2,0-0.3,0.1-0.5l5.5-11.9c0.1-0.3,0.3-0.5,0.5-0.6c0.2-0.1,0.5-0.2,0.8-0.2c0.3,0,0.5,0.1,0.8,0.2c0.2,0.1,0.4,0.3,0.5,0.6
		l5.5,11.9C116.7,82.6,116.7,82.8,116.7,83z M112.4,78.7l-2.6-5.9l-2.6,5.9H112.4z"/>
	<path class="st2" d="M127.7,83.8c-0.2-0.2-0.4-0.5-0.4-0.9V72h-3.6c-0.8,0-1.2-0.4-1.2-1.1c0-0.7,0.4-1.1,1.2-1.1h9.9
		c0.8,0,1.2,0.4,1.2,1.1c0,0.7-0.4,1.1-1.2,1.1H130v10.8c0,0.4-0.1,0.7-0.4,0.9s-0.5,0.3-0.9,0.3C128.3,84.1,128,84,127.7,83.8z"/>
	<path class="st2" d="M137.7,82.7c-1-1-1.5-2.5-1.5-4.4v-7.2c0-0.4,0.1-0.7,0.3-0.9s0.5-0.4,0.9-0.4c0.4,0,0.7,0.1,0.9,0.4
		c0.2,0.2,0.3,0.5,0.3,0.9v7.4c0,1.2,0.3,2.1,0.9,2.8c0.6,0.6,1.4,0.9,2.5,0.9c1.1,0,1.9-0.3,2.5-0.9c0.6-0.6,0.9-1.5,0.9-2.7v-7.4
		c0-0.4,0.1-0.7,0.3-0.9s0.5-0.4,0.9-0.4s0.7,0.1,0.9,0.4s0.3,0.5,0.3,0.9v7.2c0,1.9-0.5,3.4-1.5,4.4s-2.5,1.5-4.4,1.5
		C140.2,84.2,138.7,83.7,137.7,82.7z"/>
	<path class="st2" d="M159.1,83.3c-1-0.6-1.8-1.4-2.3-2.5c-0.5-1.1-0.8-2.4-0.8-3.8s0.3-2.7,0.8-3.8c0.5-1.1,1.3-1.9,2.3-2.5
		c1-0.6,2.2-0.9,3.6-0.9c0.9,0,1.7,0.1,2.5,0.4c0.8,0.3,1.5,0.6,2.1,1.1c0.2,0.1,0.3,0.3,0.4,0.4s0.1,0.3,0.1,0.5
		c0,0.3-0.1,0.5-0.2,0.7c-0.2,0.2-0.4,0.3-0.6,0.3c-0.3,0-0.5-0.1-0.8-0.3c-0.6-0.4-1.1-0.7-1.6-0.9s-1-0.2-1.6-0.2
		c-1.4,0-2.4,0.4-3.2,1.3c-0.7,0.9-1.1,2.1-1.1,3.8c0,1.7,0.4,3,1.1,3.8c0.7,0.9,1.8,1.3,3.2,1.3c0.6,0,1.1-0.1,1.6-0.3
		c0.5-0.2,1-0.5,1.6-0.9c0.1-0.1,0.3-0.1,0.4-0.2c0.1-0.1,0.3-0.1,0.4-0.1c0.2,0,0.4,0.1,0.6,0.3s0.2,0.4,0.2,0.7
		c0,0.2,0,0.4-0.1,0.5s-0.2,0.3-0.4,0.4c-0.6,0.5-1.3,0.9-2.1,1.1s-1.6,0.4-2.5,0.4C161.3,84.2,160.1,83.9,159.1,83.3z"/>
	<path class="st2" d="M172.4,83.3c-1-0.6-1.8-1.4-2.3-2.5c-0.5-1.1-0.8-2.4-0.8-3.8s0.3-2.7,0.8-3.8s1.3-1.9,2.3-2.5
		c1-0.6,2.2-0.9,3.6-0.9s2.6,0.3,3.6,0.9c1,0.6,1.8,1.4,2.3,2.5s0.8,2.4,0.8,3.8s-0.3,2.7-0.8,3.8c-0.5,1.1-1.3,1.9-2.3,2.5
		c-1,0.6-2.2,0.9-3.5,0.9C174.6,84.2,173.4,83.9,172.4,83.3z M179,80.8c0.7-0.9,1.1-2.2,1.1-3.8c0-1.7-0.4-2.9-1.1-3.8
		s-1.7-1.3-3-1.3c-1.3,0-2.3,0.4-3,1.3s-1.1,2.2-1.1,3.8c0,1.7,0.4,2.9,1.1,3.8s1.7,1.3,3,1.3C177.3,82.1,178.3,81.7,179,80.8z"/>
	<path class="st2" d="M198.7,70.2c0.2,0.2,0.3,0.5,0.3,0.9v11.8c0,0.4-0.1,0.7-0.3,0.9c-0.2,0.2-0.5,0.3-0.8,0.3s-0.6-0.1-0.8-0.3
		s-0.3-0.5-0.3-0.9v-8.2l-3.4,6.4c-0.2,0.3-0.3,0.5-0.5,0.6c-0.2,0.1-0.4,0.2-0.7,0.2s-0.5-0.1-0.7-0.2c-0.2-0.1-0.4-0.4-0.5-0.7
		l-3.4-6.3v8.1c0,0.4-0.1,0.7-0.3,0.9s-0.5,0.3-0.8,0.3s-0.6-0.1-0.8-0.3c-0.2-0.2-0.3-0.5-0.3-0.9V71.1c0-0.4,0.1-0.7,0.3-0.9
		c0.2-0.2,0.5-0.4,0.9-0.4c0.5,0,0.9,0.3,1.2,0.9l4.4,8.5l4.4-8.5c0.3-0.6,0.7-0.9,1.2-0.9C198.2,69.8,198.5,69.9,198.7,70.2z"/>
	<path class="st2" d="M202.4,83.8c-0.2-0.2-0.4-0.5-0.4-0.9V71.1c0-0.4,0.1-0.7,0.3-0.9c0.2-0.2,0.5-0.3,0.9-0.3h4.9
		c1.5,0,2.7,0.4,3.5,1.1s1.3,1.8,1.3,3.2c0,1.4-0.4,2.4-1.3,3.2s-2,1.1-3.5,1.1h-3.6v4.3c0,0.4-0.1,0.7-0.3,0.9
		c-0.2,0.2-0.5,0.4-1,0.4C203,84.1,202.7,84,202.4,83.8z M207.9,76.5c1.8,0,2.7-0.8,2.7-2.3c0-1.5-0.9-2.3-2.7-2.3h-3.3v4.6H207.9z"
		/>
	<path class="st2" d="M226.8,83.1c0,0.3-0.1,0.6-0.4,0.8s-0.5,0.3-0.9,0.3c-0.2,0-0.4,0-0.6-0.1c-0.2-0.1-0.4-0.2-0.5-0.5l-2.7-4
		c-0.3-0.4-0.5-0.7-0.8-0.9c-0.3-0.2-0.7-0.3-1.2-0.3h-2v4.5c0,0.4-0.1,0.7-0.3,0.9c-0.2,0.2-0.5,0.4-0.9,0.4s-0.7-0.1-0.9-0.4
		c-0.2-0.2-0.4-0.5-0.4-0.9V71.1c0-0.4,0.1-0.7,0.3-0.9c0.2-0.2,0.5-0.3,0.9-0.3h5c1.6,0,2.8,0.4,3.7,1.1c0.8,0.7,1.2,1.7,1.2,3.1
		c0,1.1-0.3,2-0.9,2.7c-0.6,0.7-1.5,1.2-2.6,1.3c0.4,0.1,0.7,0.3,1,0.5c0.3,0.2,0.6,0.6,0.9,1l1.8,2.8
		C226.7,82.6,226.8,82.9,226.8,83.1z M223.3,75.8c0.5-0.4,0.7-0.9,0.7-1.7c0-0.8-0.2-1.3-0.7-1.7c-0.5-0.4-1.2-0.5-2.1-0.5h-3.4v4.5
		h3.4C222.2,76.4,222.9,76.2,223.3,75.8z"/>
	<path class="st2" d="M241.9,83c0,0.3-0.1,0.6-0.4,0.8c-0.2,0.2-0.5,0.3-0.8,0.3c-0.2,0-0.4-0.1-0.6-0.2s-0.3-0.3-0.4-0.5l-1.2-2.7
		h-7l-1.2,2.7c-0.1,0.2-0.3,0.4-0.4,0.5c-0.2,0.1-0.4,0.2-0.6,0.2c-0.3,0-0.6-0.1-0.8-0.3c-0.3-0.2-0.4-0.5-0.4-0.8
		c0-0.2,0-0.3,0.1-0.5l5.5-11.9c0.1-0.3,0.3-0.5,0.5-0.6c0.2-0.1,0.5-0.2,0.8-0.2s0.5,0.1,0.8,0.2c0.2,0.1,0.4,0.3,0.5,0.6l5.5,11.9
		C241.9,82.6,241.9,82.8,241.9,83z M237.6,78.7l-2.6-5.9l-2.6,5.9H237.6z"/>
</g>
<g id="Grupo_589" transform="matrix(1, -0.017, 0.017, 1, 101.147, -285.227)">
	<path id="Trazado_1303" class="st3" d="M153.1,365.9c8.7,3.8,18.9,3.5,28,0.6s17.1-8.4,24.3-14.6c14.8-12.8,26.1-29,37.2-45.1"/>
	<path id="Trazado_1304" class="st3" d="M216,315.2c10.1-2.5,20-6.2,29.3-11"/>
	<path id="Trazado_1305" class="st3" d="M243.2,305l3.4,16.5c0.9,4.2,2.4,9.1,6.5,10.2"/>
</g>
</svg>
