<svg id="Layer_1" data-name="Layer 1" xmlns="http://www.w3.org/2000/svg" viewBox="0 0 15.37 16"><defs><style>.cls-1{fill:#fff;}</style></defs><path class="cls-1" d="M15.37,2a.47.47,0,0,0-.14-.33L13.67.14a.46.46,0,0,0-.52-.1l-.09,0H.71A.71.71,0,0,0,0,.73V15.29A.71.71,0,0,0,.71,16H13.48a.71.71,0,0,0,.71-.71V3.84a.7.7,0,0,0-.1-.34l1.14-1.14A.44.44,0,0,0,15.37,2ZM11.25,3.22l.8,1L6.54,9.72l-1.31.42.41-1.31ZM1.41,14.58V1.43H11.7L4.9,8.24a.39.39,0,0,0-.12.19l-.73,2.29a.48.48,0,0,0,.12.48.46.46,0,0,0,.33.13.32.32,0,0,0,.14,0l2.29-.72a.62.62,0,0,0,.19-.12l5.65-5.65v9.76Zm11.31-11-.81-1L13,1.43h0a.69.69,0,0,0,.42-.15l.75.75Z"/></svg>