<svg id="Layer_1" data-name="Layer 1" xmlns="http://www.w3.org/2000/svg" viewBox="0 0 27.03 23.62"><defs><style>.cls-1{fill:#333;}</style></defs><path class="cls-1" d="M26.65,4a2.15,2.15,0,0,0-1.75-.94H19.7A2.28,2.28,0,0,1,21.47,4.9H24.9a.32.32,0,0,1,.28.15.33.33,0,0,1,0,.32L22.75,12.2a.34.34,0,0,1-.32.23H8.55L6.34,2.76a2.6,2.6,0,0,0-2.51-2H1.37A1.38,1.38,0,0,0,0,2.1,1.37,1.37,0,0,0,1.37,3.47H3.75l3,13a2.56,2.56,0,0,0,2.44,2A2.87,2.87,0,0,0,8,20.81a2.76,2.76,0,0,0,5.51.1v-.1a2.86,2.86,0,0,0-1.13-2.28h5.14a2.84,2.84,0,0,0-1.14,2.28,2.76,2.76,0,0,0,5.51.1v-.1a2.84,2.84,0,0,0-1.14-2.28H22a1.37,1.37,0,0,0,0-2.74H9.32L9,14.27H22.42a2.15,2.15,0,0,0,2-1.43L26.89,6A2.21,2.21,0,0,0,26.65,4Z"/><path class="cls-1" d="M15.75,5.5a.27.27,0,0,0,.39,0h0l2.06-2.06a.28.28,0,0,0,.06-.3A.33.33,0,0,0,18,3h-.8V.28A.29.29,0,0,0,16.93,0H15a.28.28,0,0,0-.28.28V3h-.8a.33.33,0,0,0-.26.18.28.28,0,0,0,.06.3Z"/></svg>