<?xml version="1.0" encoding="UTF-8" standalone="no"?>
<svg
   xmlns:dc="http://purl.org/dc/elements/1.1/"
   xmlns:cc="http://creativecommons.org/ns#"
   xmlns:rdf="http://www.w3.org/1999/02/22-rdf-syntax-ns#"
   xmlns:svg="http://www.w3.org/2000/svg"
   xmlns="http://www.w3.org/2000/svg"
   xmlns:sodipodi="http://sodipodi.sourceforge.net/DTD/sodipodi-0.dtd"
   xmlns:inkscape="http://www.inkscape.org/namespaces/inkscape"
   inkscape:version="1.0 (4035a4fb49, 2020-05-01)"
   sodipodi:docname="OGGI_Jeans.svg"
   viewBox="0 0 257.33334 257.33334"
   height="257.33334"
   width="257.33334"
   xml:space="preserve"
   id="svg2"
   version="1.1"><metadata
     id="metadata8"><rdf:RDF><cc:Work
         rdf:about=""><dc:format>image/svg+xml</dc:format><dc:type
           rdf:resource="http://purl.org/dc/dcmitype/StillImage" /><dc:title></dc:title></cc:Work></rdf:RDF></metadata><defs
     id="defs6" /><sodipodi:namedview
     inkscape:current-layer="g12"
     inkscape:window-maximized="1"
     inkscape:window-y="0"
     inkscape:window-x="0"
     inkscape:cy="128.66667"
     inkscape:cx="128.66667"
     inkscape:zoom="3.2603626"
     showgrid="false"
     id="namedview4"
     inkscape:window-height="1020"
     inkscape:window-width="1920"
     inkscape:pageshadow="2"
     inkscape:pageopacity="0"
     guidetolerance="10"
     gridtolerance="10"
     objecttolerance="10"
     borderopacity="1"
     bordercolor="#666666"
     pagecolor="#ffffff" /><g
     transform="matrix(1.3333333,0,0,-1.3333333,0,257.33333)"
     inkscape:label="ink_ext_XXXXXX"
     inkscape:groupmode="layer"
     id="g10"><g
       transform="scale(0.1)"
       id="g12"><path
         id="path14"
         style="fill:#ffffff;fill-opacity:1;fill-rule:evenodd;stroke:none"
         d="M 0,1927.56 H 1927.56 V 0 H 0 v 1927.56" /><path
         inkscape:export-ydpi="96"
         inkscape:export-xdpi="96"
         id="path16"
         style="fill:#ff3333;fill-opacity:1;fill-rule:evenodd;stroke:none"
         d="M 963.781,462.918 85.0391,704.898 V 1464.64 H 1842.52 V 704.898 L 963.781,462.918" /><path
         id="path18"
         style="fill:#ffffff;fill-opacity:1;fill-rule:evenodd;stroke:none"
         d="m 164.133,1040.06 c 0,176.97 143.41,320.61 320.375,320.61 177.207,0 320.609,-143.64 320.609,-320.61 0,-176.966 -143.402,-320.607 -320.609,-320.607 -176.965,0 -320.375,143.641 -320.375,320.607 z m 105.621,-1.64 c 0,119.93 97.168,217.1 217.101,217.1 119.938,0 217.34,-97.17 217.34,-217.1 0,-119.94 -97.402,-217.338 -217.34,-217.338 -119.933,0 -217.101,97.398 -217.101,217.338" /><path
         id="path20"
         style="fill:#ffffff;fill-opacity:1;fill-rule:evenodd;stroke:none"
         d="m 660.773,1038.42 c 0,-119.94 97.403,-217.338 217.336,-217.338 112.899,0 205.841,86.371 216.161,196.678 H 870.836 v 104.45 h 311.214 v -2.11 h 4.23 c 6.57,-25.59 10.1,-52.34 10.1,-80.04 0,-176.966 -143.65,-320.607 -320.614,-320.607 -176.969,0 -320.61,143.641 -320.61,320.607 0,176.97 143.641,320.61 320.61,320.61 49.992,0 97.402,-11.5 139.414,-31.92 l -74.637,-82.14 c -19.715,5.86 -40.836,8.91 -62.434,8.91 -119.933,0 -217.336,-97.17 -217.336,-217.1" /><path
         id="path22"
         style="fill:#ffffff;fill-opacity:1;fill-rule:evenodd;stroke:none"
         d="m 1048.74,1038.42 c 0,-119.94 97.17,-217.338 217.11,-217.338 112.89,0 205.83,86.371 216.16,196.678 h -223.44 v 104.45 h 311.22 v -2.11 h 4.23 c 6.57,-25.59 10.09,-52.34 10.09,-80.04 0,-176.966 -143.64,-320.607 -320.61,-320.607 -176.97,0 -320.609,143.641 -320.609,320.607 0,176.97 143.639,320.61 320.609,320.61 49.99,0 97.4,-11.5 139.41,-31.92 l -74.63,-82.14 c -19.72,5.86 -40.84,8.91 -62.43,8.91 -119.94,0 -217.34,-97.17 -217.11,-217.1" /><path
         id="path24"
         style="fill:#ffffff;fill-opacity:1;fill-rule:evenodd;stroke:none"
         d="m 1602.88,1365.36 h 105.86 V 722.031 h -105.86 v 643.329" /><path
         id="path26"
         style="fill:#ffffff;fill-opacity:1;fill-rule:evenodd;stroke:none"
         d="m 970.117,625.098 c 8.684,0 17.133,-2.348 25.582,-6.805 8.211,-4.457 14.781,-10.797 19.251,-19.246 4.69,-8.215 7.03,-16.899 7.03,-25.817 0,-8.921 -2.34,-17.601 -6.8,-25.816 -4.7,-8.215 -11.03,-14.789 -19.246,-19.25 -8.211,-4.457 -16.899,-6.805 -25.817,-6.805 -8.922,0 -17.601,2.348 -25.816,6.805 -8.215,4.461 -14.555,11.035 -19.25,19.25 -4.457,8.215 -6.805,16.895 -6.805,25.816 0,8.918 2.348,17.602 6.805,25.817 4.695,8.449 11.269,14.789 19.48,19.246 8.453,4.457 16.903,6.805 25.586,6.805 z m 0,-8.68 c -7.277,0 -14.316,-1.883 -21.359,-5.633 -6.805,-3.758 -12.203,-8.922 -16.195,-15.965 -3.754,-6.804 -5.629,-14.082 -5.629,-21.59 0,-7.511 1.875,-14.789 5.629,-21.593 3.757,-6.805 9.156,-12.203 15.96,-15.961 7.043,-3.754 14.082,-5.633 21.594,-5.633 7.508,0 14.551,1.879 21.594,5.633 6.805,3.758 12.199,9.156 15.959,15.961 3.76,6.804 5.63,14.082 5.63,21.593 0,7.508 -1.87,14.786 -5.86,21.59 -3.76,7.043 -9.159,12.207 -15.967,15.965 -7.039,3.75 -14.082,5.633 -21.356,5.633 z m -22.765,-71.824 v 55.629 h 19.246 c 6.57,0 11.265,-0.473 14.082,-1.41 3.05,-1.172 5.398,-2.817 7.043,-5.399 1.875,-2.582 2.578,-5.398 2.578,-8.215 0,-3.988 -1.406,-7.746 -4.223,-10.562 -3.051,-3.051 -6.808,-4.926 -11.738,-5.16 2.113,-0.942 3.758,-1.883 4.93,-3.055 2.113,-2.113 4.929,-5.867 8.214,-11.031 l 6.809,-10.797 h -11.035 l -4.926,8.687 c -3.992,7.039 -7.039,11.266 -9.387,12.907 -1.644,1.406 -4.226,2.113 -7.277,2.113 h -5.398 v -23.707 z m 8.918,31.215 h 11.031 c 5.164,0 8.683,0.941 10.562,2.347 2.11,1.645 3.051,3.758 3.051,6.34 0,1.645 -0.469,3.051 -1.406,4.457 -0.942,1.176 -2.348,2.113 -3.992,2.82 -1.411,0.704 -4.461,0.938 -8.918,0.938 H 956.27 v -16.902" /></g></g></svg>
