<?xml version="1.0" encoding="utf-8"?>
<!-- Generator: Adobe Illustrator 24.3.0, SVG Export Plug-In . SVG Version: 6.00 Build 0)  -->
<svg version="1.1" id="Capa_1" xmlns="http://www.w3.org/2000/svg" xmlns:xlink="http://www.w3.org/1999/xlink" x="0px" y="0px"
	 viewBox="0 0 141.73 141.73" style="enable-background:new 0 0 141.73 141.73;" xml:space="preserve">
<style type="text/css">
	.st0{fill:#002D5D;}
</style>
<g>
	<g>
		<g>
			<g>
				<polygon class="st0" points="55.8,44.46 55.8,55.8 51.03,55.8 49.54,50.11 51,44.46 				"/>
				<g>
					<path class="st0" d="M63.26,44.55c-3.14,0-5.67,2.5-5.67,5.59c0,3.08,2.53,5.58,5.67,5.58c3.12,0,5.66-2.5,5.66-5.58
						C68.92,47.04,66.39,44.55,63.26,44.55 M63.26,54.05c-2.2,0-3.98-1.76-3.98-3.92c0-2.17,1.78-3.92,3.98-3.92
						c2.19,0,3.97,1.75,3.97,3.92C67.23,52.29,65.46,54.05,63.26,54.05"/>
					<path class="st0" d="M79.86,45.16c-0.77-0.4-1.64-0.61-2.57-0.61c-3.13,0-5.66,2.5-5.66,5.59c0,3.08,2.54,5.58,5.66,5.58
						c3.13,0,5.66-2.5,5.66-5.58c0-0.46-0.05-0.91-0.16-1.35h-5.57v1.71l4.03-0.01c-0.19,1.99-1.89,3.56-3.95,3.56
						c-2.19,0-3.97-1.76-3.97-3.92c0-2.17,1.78-3.92,3.97-3.92c0.45,0,0.88,0.07,1.28,0.21L79.86,45.16z"/>
					<path class="st0" d="M72.85,45.16c-0.77-0.4-1.64-0.61-2.57-0.61c-3.13,0-5.66,2.5-5.66,5.59c0,3.08,2.54,5.58,5.66,5.58
						c3.13,0,5.67-2.5,5.67-5.58c0-0.46-0.05-0.91-0.16-1.35H70.2v1.71l4.04-0.01c-0.19,1.99-1.89,3.56-3.96,3.56
						c-2.19,0-3.96-1.76-3.96-3.92c0-2.17,1.78-3.92,3.96-3.92c0.45,0,0.88,0.07,1.27,0.21L72.85,45.16z"/>
					<g>
						<rect x="83.79" y="44.47" class="st0" width="1.81" height="11.28"/>
						<path class="st0" d="M89.01,44.47c-0.62,0-1.19,0.24-1.62,0.68c-0.42,0.42-0.65,0.99-0.65,1.59c0,1.25,1.02,2.27,2.28,2.27
							l0,0c1.24,0,2.26-1.02,2.25-2.28C91.26,45.48,90.25,44.47,89.01,44.47z M89.01,44.87v0.15c0.94,0,1.71,0.77,1.71,1.71
							c0,0.47-0.18,0.89-0.48,1.2l-0.65-0.99c0.42-0.08,0.65-0.35,0.65-0.77c0-0.27-0.14-0.52-0.34-0.63
							c-0.2-0.13-0.42-0.14-0.66-0.14l-1.18,0l0.01,2.66h0.57v-1.09h0.31l0.68,1.09l0.47,0c-0.3,0.25-0.68,0.4-1.1,0.4
							c-0.95,0-1.74-0.78-1.74-1.73c0-0.95,0.78-1.72,1.73-1.72L89.01,44.87L89.01,44.87z M89.66,46.17c0,0.16-0.06,0.21-0.13,0.23
							c-0.1,0.05-0.25,0.06-0.38,0.06h-0.49V45.9h0.54C89.58,45.9,89.66,45.99,89.66,46.17z"/>
					</g>
				</g>
			</g>
		</g>
	</g>
	<g>
		<path class="st0" d="M70.4,124.23c-29.23,0-53.02-23.78-53.02-53.02c0-29.24,23.78-53.02,53.02-53.02
			c29.23,0,53.02,23.78,53.02,53.02C123.42,100.45,99.64,124.23,70.4,124.23z M70.4,22.67c-26.77,0-48.55,21.78-48.55,48.55
			c0,26.77,21.78,48.54,48.55,48.54c26.77,0,48.55-21.78,48.55-48.54C118.95,44.44,97.17,22.67,70.4,22.67z"/>
	</g>
	<g>
		<g>
			<g>
				<path class="st0" d="M70.33,103.36c-0.13,0-0.24-0.06-0.3-0.18c-0.1-0.18-0.2-0.35-0.31-0.52c-0.1-0.16-0.05-0.38,0.11-0.48
					c0.16-0.1,0.37-0.06,0.47,0.11c0.12,0.18,0.23,0.37,0.33,0.55c0.1,0.17,0.03,0.38-0.13,0.47
					C70.44,103.34,70.38,103.36,70.33,103.36z M69.2,101.7c-0.1,0-0.2-0.05-0.27-0.13c-0.27-0.34-0.58-0.67-0.9-0.99
					c-0.13-0.14-0.13-0.35,0-0.49c0.13-0.13,0.35-0.13,0.49,0c0.34,0.34,0.65,0.69,0.94,1.05c0.12,0.15,0.1,0.37-0.05,0.49
					C69.35,101.68,69.28,101.7,69.2,101.7z M67.27,99.75c-0.08,0-0.16-0.03-0.23-0.08c-0.33-0.28-0.69-0.56-1.07-0.83
					c-0.15-0.11-0.19-0.33-0.07-0.48c0.12-0.16,0.33-0.19,0.48-0.08c0.39,0.28,0.76,0.58,1.11,0.87c0.15,0.12,0.17,0.34,0.04,0.48
					C67.46,99.71,67.37,99.75,67.27,99.75z M65.04,98.12c-0.06,0-0.13-0.01-0.19-0.05c-0.37-0.24-0.75-0.47-1.16-0.7
					c-0.17-0.09-0.22-0.3-0.13-0.47c0.09-0.17,0.3-0.22,0.47-0.13c0.42,0.23,0.83,0.47,1.2,0.72c0.16,0.1,0.21,0.32,0.1,0.48
					C65.26,98.07,65.15,98.12,65.04,98.12z M70.3,97.85c-0.08,0-0.15-0.03-0.21-0.08c-0.35-0.28-0.71-0.56-1.08-0.83
					c-0.15-0.11-0.19-0.33-0.08-0.48c0.12-0.15,0.33-0.19,0.48-0.07c0.38,0.29,0.75,0.57,1.11,0.86c0.15,0.12,0.17,0.34,0.05,0.49
					C70.51,97.81,70.41,97.85,70.3,97.85z M62.64,96.77c-0.05,0-0.11-0.01-0.15-0.04c-0.4-0.2-0.81-0.4-1.23-0.59
					c-0.18-0.08-0.25-0.28-0.17-0.46c0.08-0.17,0.28-0.25,0.46-0.17c0.43,0.19,0.85,0.4,1.26,0.6c0.17,0.09,0.24,0.3,0.15,0.47
					C62.89,96.69,62.77,96.77,62.64,96.77z M68.09,96.21c-0.07,0-0.14-0.02-0.19-0.06c-0.38-0.25-0.76-0.5-1.15-0.74
					c-0.16-0.1-0.21-0.32-0.11-0.48c0.1-0.16,0.31-0.21,0.47-0.11c0.4,0.24,0.79,0.5,1.17,0.75c0.16,0.11,0.2,0.32,0.1,0.48
					C68.3,96.16,68.19,96.21,68.09,96.21z M60.12,95.62c-0.05,0-0.09-0.01-0.13-0.03c-0.42-0.17-0.84-0.33-1.28-0.5
					c-0.18-0.07-0.27-0.27-0.2-0.44c0.07-0.18,0.27-0.27,0.44-0.2c0.44,0.16,0.87,0.33,1.29,0.51c0.18,0.07,0.26,0.28,0.19,0.45
					C60.38,95.54,60.26,95.62,60.12,95.62z M65.73,94.77c-0.06,0-0.11-0.01-0.17-0.04c-0.4-0.22-0.81-0.43-1.21-0.64
					c-0.17-0.08-0.24-0.29-0.15-0.46c0.08-0.17,0.29-0.24,0.46-0.15c0.42,0.21,0.83,0.43,1.24,0.65c0.16,0.09,0.22,0.3,0.13,0.47
					C65.97,94.7,65.85,94.77,65.73,94.77z M57.54,94.64c-0.03,0-0.07,0-0.11-0.02c-0.43-0.14-0.86-0.29-1.31-0.43
					c-0.18-0.06-0.28-0.25-0.22-0.43c0.06-0.18,0.25-0.28,0.43-0.22c0.44,0.14,0.88,0.28,1.32,0.44c0.18,0.06,0.27,0.26,0.21,0.44
					C57.81,94.56,57.68,94.64,57.54,94.64z M54.9,93.81c-0.03,0-0.06,0-0.09-0.01c-0.44-0.13-0.88-0.25-1.33-0.37
					c-0.18-0.05-0.29-0.24-0.24-0.42c0.05-0.18,0.24-0.29,0.43-0.24c0.45,0.12,0.89,0.25,1.33,0.37c0.19,0.06,0.29,0.25,0.24,0.43
					C55.19,93.71,55.06,93.81,54.9,93.81z M63.26,93.52c-0.04,0-0.1-0.01-0.14-0.03c-0.4-0.18-0.82-0.37-1.25-0.55
					c-0.18-0.07-0.26-0.28-0.19-0.45c0.07-0.18,0.27-0.26,0.45-0.19c0.43,0.18,0.86,0.37,1.28,0.56c0.17,0.08,0.25,0.29,0.17,0.46
					C63.52,93.44,63.39,93.53,63.26,93.52z M52.23,93.09c-0.03,0-0.06,0-0.09-0.01c-0.44-0.11-0.89-0.21-1.34-0.31
					c-0.19-0.05-0.3-0.23-0.26-0.42c0.04-0.19,0.23-0.3,0.41-0.26c0.45,0.11,0.9,0.21,1.35,0.33c0.19,0.05,0.3,0.23,0.25,0.42
					C52.53,92.99,52.39,93.09,52.23,93.09z M49.54,92.47c-0.02,0-0.05,0-0.08-0.01c-0.45-0.09-0.9-0.19-1.35-0.28
					c-0.19-0.04-0.31-0.21-0.27-0.4c0.03-0.19,0.21-0.31,0.4-0.27c0.45,0.09,0.9,0.18,1.36,0.28c0.19,0.04,0.31,0.22,0.27,0.41
					C49.84,92.36,49.7,92.48,49.54,92.47z M60.72,92.46c-0.05,0-0.09-0.01-0.12-0.02c-0.43-0.16-0.86-0.31-1.29-0.46
					c-0.18-0.07-0.28-0.26-0.22-0.44c0.07-0.18,0.26-0.28,0.44-0.22c0.44,0.15,0.87,0.31,1.31,0.47c0.18,0.07,0.27,0.26,0.2,0.44
					C60.99,92.38,60.85,92.46,60.72,92.46z M46.83,91.94c-0.01,0-0.04,0-0.06-0.01c-0.46-0.08-0.91-0.16-1.36-0.24
					c-0.19-0.03-0.31-0.21-0.28-0.4c0.04-0.19,0.21-0.32,0.4-0.29c0.45,0.08,0.91,0.16,1.37,0.25c0.19,0.03,0.31,0.21,0.27,0.39
					C47.14,91.82,46.99,91.94,46.83,91.94z M58.1,91.57c-0.03,0-0.07,0-0.1-0.01c-0.44-0.13-0.88-0.26-1.32-0.38
					c-0.19-0.05-0.3-0.24-0.24-0.43c0.05-0.18,0.24-0.29,0.42-0.24c0.45,0.13,0.89,0.25,1.34,0.39c0.18,0.05,0.28,0.25,0.23,0.43
					C58.38,91.48,58.25,91.57,58.1,91.57z M44.1,91.48c-0.02,0-0.04,0-0.06,0c-0.46-0.07-0.91-0.14-1.36-0.2
					c-0.19-0.03-0.32-0.2-0.29-0.39c0.02-0.19,0.2-0.32,0.39-0.29c0.45,0.06,0.91,0.13,1.37,0.2c0.19,0.03,0.32,0.21,0.29,0.4
					C44.42,91.36,44.27,91.48,44.1,91.48z M41.37,91.08c-0.02,0-0.03,0-0.04,0c-0.47-0.06-0.92-0.12-1.37-0.17
					c-0.19-0.02-0.32-0.2-0.3-0.38c0.02-0.19,0.19-0.32,0.39-0.31c0.45,0.06,0.91,0.11,1.37,0.18c0.19,0.02,0.33,0.19,0.3,0.38
					C41.68,90.96,41.53,91.08,41.37,91.08z M55.43,90.85c-0.02,0-0.05,0-0.08-0.01c-0.45-0.11-0.9-0.21-1.34-0.3
					c-0.19-0.05-0.3-0.23-0.27-0.41c0.04-0.18,0.22-0.31,0.41-0.27c0.45,0.1,0.9,0.2,1.36,0.31c0.18,0.05,0.3,0.23,0.25,0.42
					C55.73,90.74,55.59,90.85,55.43,90.85z M38.62,90.76c-0.01,0-0.03,0-0.04,0c-0.47-0.05-0.93-0.1-1.37-0.14
					c-0.19-0.02-0.33-0.19-0.31-0.38c0.02-0.18,0.19-0.32,0.38-0.31c0.45,0.04,0.91,0.09,1.38,0.14c0.19,0.02,0.33,0.19,0.31,0.38
					C38.94,90.63,38.79,90.76,38.62,90.76z M35.86,90.49c-0.01,0-0.02,0-0.03,0c-0.49-0.04-0.94-0.08-1.38-0.11
					c-0.19-0.01-0.33-0.18-0.31-0.37c0.01-0.19,0.17-0.33,0.37-0.32c0.44,0.03,0.9,0.07,1.39,0.11c0.19,0.01,0.33,0.19,0.31,0.37
					C36.19,90.35,36.04,90.49,35.86,90.49z M52.73,90.27c-0.02,0-0.04,0-0.07,0c-0.45-0.09-0.9-0.16-1.35-0.24
					c-0.19-0.03-0.32-0.2-0.29-0.39c0.04-0.19,0.21-0.31,0.4-0.29c0.46,0.07,0.91,0.16,1.37,0.24c0.19,0.03,0.31,0.21,0.28,0.4
					C53.04,90.15,52.9,90.27,52.73,90.27z M33.1,90.28c-0.01,0-0.02,0-0.02,0c-0.51-0.03-0.97-0.06-1.38-0.08
					c-0.19-0.01-0.34-0.17-0.33-0.36c0.01-0.19,0.18-0.34,0.36-0.33c0.01,0,0.02,0,0.03,0c-0.01-0.01-0.01-0.02-0.01-0.02
					c-0.03-0.19,0.11-0.36,0.3-0.39c0.41-0.05,0.87-0.1,1.38-0.15c0.19-0.02,0.36,0.12,0.37,0.31c0.02,0.19-0.12,0.36-0.31,0.38
					c-0.07,0.01-0.14,0.01-0.21,0.02c0.09,0.07,0.15,0.18,0.14,0.3C33.43,90.14,33.29,90.28,33.1,90.28z M30.33,90.13
					c0,0-0.01,0-0.01,0c-0.31-0.01-0.48-0.01-0.48-0.01c-0.17-0.01-0.32-0.14-0.33-0.32c-0.01-0.18,0.11-0.34,0.28-0.37
					c0,0,0.32-0.06,0.9-0.15c0.19-0.03,0.37,0.1,0.39,0.29c0.03,0.19-0.1,0.37-0.29,0.39c-0.06,0.01-0.12,0.02-0.18,0.03
					C30.54,90.08,30.44,90.13,30.33,90.13z M50.01,89.84c-0.02,0-0.04,0-0.05,0c-0.45-0.06-0.91-0.12-1.36-0.17
					c-0.19-0.03-0.33-0.2-0.31-0.39c0.02-0.19,0.2-0.32,0.39-0.3c0.46,0.05,0.92,0.11,1.38,0.17c0.19,0.02,0.31,0.2,0.29,0.39
					C50.32,89.71,50.18,89.83,50.01,89.84z M47.26,89.53c-0.02,0-0.02,0-0.03,0c-0.46-0.04-0.92-0.08-1.37-0.11
					c-0.19-0.01-0.34-0.18-0.32-0.37c0.01-0.19,0.18-0.33,0.37-0.32c0.46,0.03,0.92,0.07,1.39,0.11c0.19,0.01,0.33,0.18,0.31,0.37
					C47.59,89.4,47.44,89.53,47.26,89.53z M34.85,89.51c-0.18,0-0.33-0.14-0.35-0.32c-0.01-0.19,0.13-0.36,0.32-0.37
					c0.44-0.04,0.9-0.07,1.38-0.1c0.19-0.01,0.36,0.13,0.36,0.32c0.01,0.19-0.13,0.36-0.32,0.37c-0.48,0.03-0.94,0.06-1.37,0.1
					C34.87,89.51,34.86,89.51,34.85,89.51z M44.51,89.33c-0.01,0-0.01,0-0.02,0c-0.46-0.02-0.92-0.04-1.37-0.05
					c-0.19,0-0.34-0.16-0.33-0.35c0-0.19,0.16-0.33,0.35-0.33c0.45,0.01,0.92,0.03,1.39,0.05c0.19,0.01,0.34,0.17,0.33,0.36
					C44.85,89.19,44.69,89.34,44.51,89.33z M37.61,89.33c-0.19,0-0.34-0.15-0.35-0.33c-0.01-0.19,0.14-0.35,0.33-0.36
					c0.45-0.02,0.91-0.04,1.39-0.05c0.18,0.01,0.35,0.14,0.35,0.33c0,0.2-0.15,0.35-0.33,0.36c-0.48,0.01-0.93,0.03-1.38,0.05H37.61
					z M41.75,89.26L41.75,89.26c-0.47,0-0.93,0-1.37,0h0c-0.19,0-0.34-0.15-0.34-0.34c0-0.19,0.15-0.35,0.34-0.35
					c0.45,0,0.91,0,1.39,0c0.19,0.01,0.34,0.16,0.34,0.35C42.09,89.1,41.94,89.25,41.75,89.26z"/>
			</g>
			<g>
				<path class="st0" d="M70.33,103.36c-0.06,0-0.11-0.01-0.16-0.05c-0.17-0.08-0.24-0.29-0.15-0.46c0.18-0.34,0.39-0.68,0.61-1.02
					c0.11-0.16,0.32-0.2,0.48-0.09c0.16,0.11,0.2,0.32,0.09,0.48c-0.21,0.31-0.41,0.64-0.57,0.96
					C70.57,103.29,70.45,103.36,70.33,103.36z M71.76,101.28c-0.08,0-0.16-0.03-0.23-0.09c-0.14-0.12-0.16-0.34-0.04-0.49
					c0.3-0.35,0.62-0.69,0.97-1.02c0.13-0.13,0.35-0.12,0.49,0.01c0.13,0.14,0.12,0.35-0.01,0.49c-0.33,0.32-0.64,0.64-0.92,0.97
					C71.95,101.24,71.86,101.28,71.76,101.28z M73.74,99.37c-0.1,0-0.2-0.04-0.27-0.13c-0.12-0.14-0.1-0.36,0.05-0.48
					c0.35-0.29,0.73-0.57,1.12-0.85c0.15-0.11,0.37-0.07,0.48,0.08c0.11,0.16,0.07,0.37-0.09,0.48c-0.37,0.26-0.74,0.54-1.08,0.81
					C73.89,99.34,73.81,99.37,73.74,99.37z M70.3,97.85c-0.1,0-0.19-0.04-0.26-0.12c-0.12-0.14-0.1-0.36,0.04-0.49
					c0.35-0.29,0.71-0.59,1.09-0.87c0.15-0.11,0.37-0.09,0.48,0.06c0.12,0.15,0.09,0.37-0.07,0.49c-0.36,0.27-0.71,0.56-1.06,0.85
					C70.47,97.83,70.38,97.85,70.3,97.85z M75.99,97.78c-0.11,0-0.22-0.05-0.3-0.16c-0.09-0.16-0.05-0.38,0.12-0.48
					c0.38-0.24,0.79-0.47,1.21-0.7c0.17-0.09,0.38-0.03,0.47,0.14c0.09,0.17,0.03,0.38-0.14,0.47c-0.41,0.22-0.8,0.45-1.18,0.68
					C76.12,97.77,76.06,97.78,75.99,97.78z M78.42,96.45c-0.13,0-0.25-0.07-0.32-0.19c-0.08-0.17-0.01-0.38,0.16-0.46
					c0.41-0.2,0.83-0.4,1.26-0.59c0.18-0.08,0.38,0,0.46,0.18c0.08,0.17,0,0.38-0.18,0.46c-0.43,0.19-0.85,0.38-1.24,0.58
					C78.52,96.45,78.47,96.46,78.42,96.45z M72.5,96.17c-0.11,0-0.22-0.05-0.29-0.15c-0.11-0.15-0.07-0.37,0.09-0.48
					c0.38-0.26,0.77-0.52,1.16-0.77c0.16-0.1,0.37-0.05,0.47,0.11c0.1,0.16,0.05,0.38-0.11,0.48c-0.38,0.24-0.76,0.5-1.14,0.75
					C72.63,96.15,72.57,96.17,72.5,96.17z M80.94,95.34c-0.13,0-0.27-0.08-0.32-0.21c-0.07-0.18,0.02-0.38,0.19-0.45
					c0.43-0.17,0.86-0.34,1.3-0.5c0.18-0.07,0.38,0.03,0.44,0.21c0.07,0.18-0.03,0.37-0.21,0.44c-0.43,0.16-0.86,0.32-1.28,0.49
					C81.02,95.33,80.98,95.34,80.94,95.34z M74.83,94.7c-0.12,0-0.24-0.06-0.3-0.17c-0.09-0.16-0.03-0.38,0.13-0.47
					c0.4-0.23,0.81-0.45,1.22-0.67c0.17-0.09,0.38-0.02,0.47,0.15c0.09,0.17,0.03,0.37-0.15,0.46c-0.41,0.21-0.81,0.43-1.2,0.66
					C74.95,94.69,74.89,94.7,74.83,94.7z M83.53,94.39c-0.14,0-0.28-0.1-0.33-0.24c-0.07-0.18,0.04-0.38,0.21-0.44
					c0.44-0.15,0.88-0.29,1.32-0.43c0.18-0.06,0.37,0.04,0.43,0.23c0.05,0.18-0.05,0.38-0.23,0.43c-0.44,0.13-0.88,0.28-1.31,0.42
					C83.61,94.38,83.57,94.38,83.53,94.39z M86.17,93.57c-0.15,0-0.29-0.1-0.33-0.25c-0.05-0.18,0.06-0.38,0.24-0.43
					c0.44-0.12,0.89-0.24,1.34-0.37c0.18-0.05,0.37,0.06,0.42,0.25c0.05,0.18-0.06,0.37-0.24,0.42c-0.45,0.12-0.89,0.24-1.33,0.36
					C86.23,93.56,86.2,93.57,86.17,93.57z M77.28,93.43c-0.13,0-0.26-0.08-0.31-0.2c-0.08-0.17-0.01-0.38,0.16-0.46
					c0.41-0.19,0.84-0.38,1.27-0.57c0.17-0.07,0.38,0.01,0.45,0.19c0.08,0.17-0.01,0.37-0.18,0.45c-0.42,0.18-0.85,0.37-1.25,0.56
					C77.38,93.41,77.33,93.43,77.28,93.43z M88.85,92.86c-0.16,0-0.3-0.11-0.34-0.26c-0.05-0.18,0.07-0.37,0.25-0.42
					c0.45-0.11,0.9-0.21,1.35-0.32c0.19-0.04,0.37,0.08,0.41,0.26c0.04,0.19-0.07,0.37-0.26,0.42c-0.44,0.1-0.89,0.21-1.34,0.31
					C88.9,92.86,88.87,92.86,88.85,92.86z M79.82,92.34c-0.14,0-0.27-0.09-0.32-0.22c-0.07-0.18,0.02-0.38,0.2-0.44
					c0.44-0.17,0.87-0.33,1.31-0.48c0.18-0.06,0.38,0.03,0.44,0.21c0.06,0.18-0.03,0.38-0.21,0.44c-0.43,0.15-0.86,0.31-1.29,0.47
					C79.91,92.34,79.86,92.34,79.82,92.34z M91.54,92.25c-0.16,0-0.3-0.11-0.34-0.27c-0.04-0.19,0.08-0.37,0.26-0.41
					c0.46-0.09,0.91-0.19,1.36-0.27c0.18-0.04,0.36,0.08,0.4,0.27c0.04,0.19-0.08,0.37-0.27,0.41c-0.45,0.09-0.9,0.18-1.35,0.27
					C91.59,92.25,91.56,92.25,91.54,92.25z M94.25,91.73c-0.16,0-0.31-0.12-0.34-0.28c-0.03-0.19,0.09-0.37,0.28-0.4
					c0.46-0.08,0.91-0.16,1.36-0.23c0.19-0.04,0.37,0.09,0.4,0.28c0.04,0.19-0.1,0.36-0.29,0.4c-0.44,0.08-0.89,0.15-1.36,0.24
					C94.29,91.72,94.27,91.73,94.25,91.73z M82.43,91.43c-0.15,0-0.28-0.09-0.33-0.24c-0.06-0.18,0.05-0.38,0.23-0.43
					c0.45-0.14,0.89-0.27,1.34-0.39c0.18-0.05,0.37,0.05,0.43,0.23c0.05,0.19-0.06,0.38-0.24,0.43c-0.44,0.12-0.88,0.25-1.31,0.39
					C82.5,91.43,82.47,91.44,82.43,91.43z M96.98,91.27c-0.17,0-0.32-0.12-0.34-0.29c-0.03-0.19,0.1-0.36,0.29-0.39
					c0.46-0.07,0.92-0.14,1.37-0.2c0.18-0.03,0.36,0.1,0.38,0.29c0.03,0.19-0.1,0.36-0.3,0.39c-0.44,0.06-0.9,0.13-1.36,0.2
					C97.01,91.27,97,91.27,96.98,91.27z M99.72,90.89c-0.17,0-0.32-0.13-0.34-0.3c-0.02-0.19,0.11-0.37,0.3-0.39
					c0.46-0.06,0.92-0.12,1.38-0.17c0.19-0.03,0.36,0.11,0.38,0.3c0.02,0.19-0.12,0.36-0.31,0.38c-0.45,0.05-0.91,0.11-1.36,0.17
					C99.75,90.88,99.74,90.89,99.72,90.89z M85.09,90.69c-0.15,0-0.3-0.1-0.33-0.26c-0.05-0.19,0.06-0.37,0.25-0.42
					c0.45-0.11,0.91-0.21,1.36-0.31c0.19-0.04,0.37,0.08,0.42,0.26c0.04,0.19-0.08,0.37-0.27,0.41c-0.44,0.1-0.89,0.2-1.33,0.31
					C85.15,90.69,85.12,90.69,85.09,90.69z M102.47,90.57c-0.18,0-0.33-0.13-0.35-0.31c-0.02-0.19,0.12-0.36,0.31-0.38
					c0.47-0.05,0.94-0.1,1.38-0.14c0.19-0.03,0.36,0.12,0.38,0.31c0.02,0.19-0.12,0.36-0.31,0.38c-0.44,0.04-0.89,0.09-1.37,0.14
					C102.49,90.56,102.48,90.57,102.47,90.57z M105.22,90.3c-0.18,0-0.33-0.14-0.34-0.31c-0.02-0.19,0.13-0.36,0.32-0.37
					c0.48-0.05,0.94-0.08,1.38-0.12c0.19-0.01,0.35,0.13,0.36,0.32c0.01,0.19-0.13,0.36-0.32,0.37c-0.43,0.03-0.89,0.07-1.37,0.11
					C105.24,90.3,105.23,90.3,105.22,90.3z M87.79,90.11c-0.16,0-0.31-0.12-0.34-0.28c-0.04-0.19,0.09-0.37,0.28-0.41
					c0.46-0.08,0.91-0.16,1.36-0.24c0.19-0.03,0.37,0.1,0.4,0.29c0.02,0.19-0.1,0.37-0.29,0.4c-0.45,0.07-0.9,0.15-1.35,0.24
					C87.83,90.11,87.81,90.11,87.79,90.11z M107.98,90.1c-0.18,0-0.33-0.14-0.34-0.32c-0.01-0.11,0.03-0.2,0.1-0.27
					c-0.23-0.03-0.48-0.06-0.73-0.08c-0.19-0.02-0.33-0.19-0.32-0.37c0.03-0.19,0.2-0.33,0.38-0.31c0.5,0.05,0.96,0.11,1.38,0.15
					c0.19,0.02,0.32,0.19,0.3,0.39c0,0.02-0.01,0.05-0.01,0.08c0.22-0.01,0.42-0.02,0.61-0.03c0.03,0,0.07,0,0.1,0.01
					c0.04-0.17,0.2-0.29,0.38-0.26c0.76,0.1,1.17,0.18,1.19,0.19c0.17,0.04,0.3,0.19,0.28,0.37c-0.01,0.18-0.16,0.31-0.34,0.32
					l-0.2,0.01c-0.08,0-0.15-0.03-0.22-0.07c-0.19-0.03-0.47-0.08-0.81-0.13c-0.01,0-0.02,0-0.03-0.01
					c-0.03,0.14-0.16,0.25-0.32,0.26c-0.4,0.02-0.86,0.05-1.38,0.08C108,90.1,107.99,90.1,107.98,90.1z M90.52,89.67
					c-0.17,0-0.32-0.13-0.35-0.3c-0.02-0.19,0.11-0.36,0.29-0.39c0.46-0.06,0.92-0.12,1.38-0.17c0.19-0.03,0.36,0.11,0.39,0.3
					c0.02,0.19-0.11,0.36-0.31,0.38c-0.45,0.05-0.9,0.11-1.36,0.18C90.55,89.67,90.53,89.67,90.52,89.67z M93.26,89.35
					c-0.18,0-0.33-0.13-0.35-0.31c-0.02-0.19,0.12-0.36,0.31-0.37c0.46-0.05,0.92-0.08,1.38-0.12c0.19-0.02,0.35,0.13,0.37,0.32
					c0.01,0.19-0.13,0.35-0.32,0.37c-0.45,0.03-0.91,0.07-1.37,0.11C93.28,89.35,93.27,89.35,93.26,89.35z M105.67,89.3
					c0,0-0.01,0-0.03,0c-0.44-0.04-0.89-0.07-1.37-0.1c-0.19-0.01-0.33-0.17-0.32-0.37c0.01-0.19,0.17-0.33,0.36-0.32
					c0.48,0.03,0.94,0.06,1.38,0.1c0.19,0.02,0.33,0.18,0.32,0.37C106,89.17,105.85,89.3,105.67,89.3z M96.01,89.15
					c-0.18,0-0.34-0.14-0.35-0.33c-0.01-0.19,0.14-0.35,0.33-0.36c0.47-0.02,0.93-0.04,1.38-0.06c0.01,0.01,0.01,0,0.01,0
					c0.18,0,0.34,0.15,0.34,0.34c0,0.19-0.14,0.35-0.33,0.36c-0.45,0.01-0.91,0.03-1.37,0.06C96.02,89.15,96.02,89.15,96.01,89.15z
					 M102.91,89.13c0,0-0.01,0-0.01,0c-0.45-0.02-0.91-0.04-1.38-0.05c-0.19,0-0.34-0.16-0.34-0.35c0.01-0.19,0.16-0.34,0.34-0.34
					h0.02c0.47,0.01,0.93,0.03,1.38,0.05c0.19,0.01,0.34,0.17,0.33,0.36C103.25,88.99,103.1,89.13,102.91,89.13z M98.77,89.07
					c-0.19,0-0.34-0.15-0.34-0.34c0-0.19,0.15-0.35,0.34-0.35c0.47,0,0.93-0.01,1.39,0c0.19,0,0.34,0.16,0.34,0.35
					c0,0.19-0.16,0.34-0.35,0.34h0C99.7,89.06,99.25,89.06,98.77,89.07L98.77,89.07z"/>
			</g>
		</g>
	</g>
	<g>
		<g>
			<path class="st0" d="M48.82,84.48l7.24-22.86c0.75-2.31,2.21-3.47,4.4-3.47c2.19,0,3.65,1.17,4.4,3.5l7.2,22.83h-5.87l-1.77-5.63
				h-7.94l-1.74,5.63H48.82z M62.74,73.52l-2.65-8.43l-1.94,8.43H62.74z"/>
			<path class="st0" d="M73.36,63.52c0-0.47,0.05-0.91,0.15-1.31c0.65-2.56,2.37-3.84,5.19-3.84h11.41V64h-9.92
				c-0.55,0-0.94,0.24-1.16,0.72c-0.05,0.25-0.08,0.44-0.08,0.56v1.73c0,0.18,0.01,0.3,0.04,0.38c0.1,0.65,0.56,1.03,1.38,1.13
				c0.07,0.03,0.2,0.04,0.38,0.04h4.08c2.92,0,4.64,1.36,5.17,4.07c0.07,0.4,0.11,0.76,0.11,1.08v5.26c0,1.74-0.5,3.1-1.5,4.07
				c-1,0.97-2.36,1.45-4.1,1.45H73.36v-5.63h9.81l0.34-0.11c0.65-0.22,0.97-0.69,0.97-1.42v-1.86c0-0.75-0.4-1.17-1.19-1.27h-4.66
				c-1.92,0-3.38-0.77-4.4-2.31c-0.57-0.87-0.86-1.8-0.86-2.8V63.52z"/>
			<path class="st0" d="M91.78,84.48V58.37h5.59v26.11H91.78z"/>
			<path class="st0" d="M99.31,78.66V64.3c0-2.26,0.45-3.82,1.34-4.66c0.9-0.84,2.49-1.27,4.77-1.27h10.97V64h-10.18
				c-0.72,0.08-1.16,0.46-1.31,1.16v11.41c0,0.82,0.09,1.37,0.26,1.64c0.25,0.42,0.72,0.63,1.42,0.63h9.81v5.63h-11.79
				c-0.62,0-1.28-0.14-1.98-0.41C100.42,83.2,99.31,81.4,99.31,78.66z"/>
		</g>
		<path class="st0" d="M46.25,70.83c1.76-1,2.68-2.84,2.68-5.41c0-2.75-0.67-4.69-1.99-5.74c-1.3-1.03-3.57-1.53-6.95-1.53h-14.3
			v26.33h15.03c3.23,0,5.46-0.56,6.81-1.7c1.37-1.15,2.07-3.13,2.07-5.88C49.6,73.87,48.45,71.8,46.25,70.83z M32.31,73.49h6.04
			c2.95,0,3.76,0.33,3.98,0.47c0.17,0.12,0.58,0.57,0.58,2.29c0,1.61-0.37,2.14-0.59,2.32c-0.24,0.2-0.97,0.53-3.09,0.53l-1.83,0.04
			h-5.09V73.49z M41.66,68.14c-0.21,0.15-0.97,0.5-3.59,0.5h-5.76V63.5h6.83c2.74,0,3.09,1.24,3.09,2.33
			C42.23,67.47,41.87,67.99,41.66,68.14z"/>
	</g>
</g>
</svg>
