<svg xmlns="http://www.w3.org/2000/svg" width="59.998" height="59.998" viewBox="0 0 59.998 59.998"><defs><style>.a{fill:#20d268;}.b{fill:#fff;stroke:#f5f5f5;stroke-linecap:round;stroke-linejoin:round;stroke-width:0.8px;}</style></defs><path class="a" d="M88.966,422.253a30,30,0,0,0-24.9,46.735l-5.1,13.262,13.64-4.874a29.991,29.991,0,1,0,16.36-55.124Z" transform="translate(-58.966 -422.253)"/><path class="b" d="M74.04,450.369c3.4,3.4,10.87,7.827,14.347,7.827s6.522-2.991,6.522-5.218v-2.609s-3.2-1.576-5.218-2.609-5.216,2.609-5.216,2.609A15.68,15.68,0,0,1,74.04,439.933s3.641-3.205,2.609-5.216S74.04,429.5,74.04,429.5H71.431c-2.227,0-5.218,3.045-5.218,6.522S70.643,446.972,74.04,450.369Z" transform="translate(-50.562 -413.849)"/></svg>