<?xml version="1.0" encoding="UTF-8" standalone="no"?>
<svg
   xmlns:dc="http://purl.org/dc/elements/1.1/"
   xmlns:cc="http://creativecommons.org/ns#"
   xmlns:rdf="http://www.w3.org/1999/02/22-rdf-syntax-ns#"
   xmlns:svg="http://www.w3.org/2000/svg"
   xmlns="http://www.w3.org/2000/svg"
   xmlns:sodipodi="http://sodipodi.sourceforge.net/DTD/sodipodi-0.dtd"
   xmlns:inkscape="http://www.inkscape.org/namespaces/inkscape"
   version="1.1"
   x="0px"
   y="0px"
   viewBox="0 0 10.727 16"
   xml:space="preserve"
   id="svg2259"
   sodipodi:docname="ico_mi_cuenta_oggi.svg"
   width="10.726999"
   height="16"
   inkscape:version="1.0.1 (3bc2e813f5, 2020-09-07)"><metadata
   id="metadata2265"><rdf:RDF><cc:Work
       rdf:about=""><dc:format>image/svg+xml</dc:format><dc:type
         rdf:resource="http://purl.org/dc/dcmitype/StillImage" /></cc:Work></rdf:RDF></metadata><defs
   id="defs2263" /><sodipodi:namedview
   pagecolor="#ffffff"
   bordercolor="#666666"
   borderopacity="1"
   objecttolerance="10"
   gridtolerance="10"
   guidetolerance="10"
   inkscape:pageopacity="0"
   inkscape:pageshadow="2"
   inkscape:window-width="1920"
   inkscape:window-height="1025"
   id="namedview2261"
   showgrid="false"
   inkscape:zoom="2.8284271"
   inkscape:cx="7.4293349"
   inkscape:cy="127.37619"
   inkscape:window-x="0"
   inkscape:window-y="0"
   inkscape:window-maximized="1"
   inkscape:current-layer="svg2259" />
<style
   type="text/css"
   id="style1783">
	.st0{display:none;}
	.st1{display:inline;}
	.st2{fill:#002D5D;}
	.st3{fill:#003DA6;}
	.st4{fill:#1E110C;}
	.st5{fill:#020203;stroke:#020203;stroke-width:0.5;stroke-miterlimit:10;}
	.st6{fill:#DA261B;}
	.st7{fill:#020203;}
	.st8{fill:#040405;}
	.st9{fill:#1F140F;stroke:#1F140F;stroke-width:0.4814;stroke-miterlimit:10;}
</style>
<g
   id="Capa_1"
   class="st0">
	<g
   class="st1"
   id="g1837">
		<g
   id="g1805">
			<g
   id="g1803">
				<g
   id="g1801">
					<polygon
   class="st2"
   points="51.03,55.8 49.54,50.11 51,44.46 55.8,44.46 55.8,55.8 "
   id="polygon1785" />
					<g
   id="g1799">
						<path
   class="st2"
   d="m 63.26,44.55 c -3.14,0 -5.67,2.5 -5.67,5.59 0,3.08 2.53,5.58 5.67,5.58 3.12,0 5.66,-2.5 5.66,-5.58 0,-3.1 -2.53,-5.59 -5.66,-5.59 m 0,9.5 c -2.2,0 -3.98,-1.76 -3.98,-3.92 0,-2.17 1.78,-3.92 3.98,-3.92 2.19,0 3.97,1.75 3.97,3.92 0,2.16 -1.77,3.92 -3.97,3.92"
   id="path1787" />
						<path
   class="st2"
   d="m 79.86,45.16 c -0.77,-0.4 -1.64,-0.61 -2.57,-0.61 -3.13,0 -5.66,2.5 -5.66,5.59 0,3.08 2.54,5.58 5.66,5.58 3.13,0 5.66,-2.5 5.66,-5.58 0,-0.46 -0.05,-0.91 -0.16,-1.35 h -5.57 v 1.71 l 4.03,-0.01 c -0.19,1.99 -1.89,3.56 -3.95,3.56 -2.19,0 -3.97,-1.76 -3.97,-3.92 0,-2.17 1.78,-3.92 3.97,-3.92 0.45,0 0.88,0.07 1.28,0.21 z"
   id="path1789" />
						<path
   class="st2"
   d="m 72.85,45.16 c -0.77,-0.4 -1.64,-0.61 -2.57,-0.61 -3.13,0 -5.66,2.5 -5.66,5.59 0,3.08 2.54,5.58 5.66,5.58 3.13,0 5.67,-2.5 5.67,-5.58 0,-0.46 -0.05,-0.91 -0.16,-1.35 H 70.2 v 1.71 l 4.04,-0.01 c -0.19,1.99 -1.89,3.56 -3.96,3.56 -2.19,0 -3.96,-1.76 -3.96,-3.92 0,-2.17 1.78,-3.92 3.96,-3.92 0.45,0 0.88,0.07 1.27,0.21 z"
   id="path1791" />
						<g
   id="g1797">
							<rect
   x="83.790001"
   y="44.470001"
   class="st2"
   width="1.8099999"
   height="11.28"
   id="rect1793" />
							<path
   class="st2"
   d="m 89.01,44.47 c -0.62,0 -1.19,0.24 -1.62,0.68 -0.42,0.42 -0.65,0.99 -0.65,1.59 0,1.25 1.02,2.27 2.28,2.27 v 0 c 1.24,0 2.26,-1.02 2.25,-2.28 -0.01,-1.25 -1.02,-2.26 -2.26,-2.26 z m 0,0.4 v 0.15 c 0.94,0 1.71,0.77 1.71,1.71 0,0.47 -0.18,0.89 -0.48,1.2 l -0.65,-0.99 c 0.42,-0.08 0.65,-0.35 0.65,-0.77 0,-0.27 -0.14,-0.52 -0.34,-0.63 -0.2,-0.13 -0.42,-0.14 -0.66,-0.14 h -1.18 l 0.01,2.66 h 0.57 v -1.09 h 0.31 l 0.68,1.09 h 0.47 c -0.3,0.25 -0.68,0.4 -1.1,0.4 -0.95,0 -1.74,-0.78 -1.74,-1.73 0,-0.95 0.78,-1.72 1.73,-1.72 z m 0.65,1.3 c 0,0.16 -0.06,0.21 -0.13,0.23 -0.1,0.05 -0.25,0.06 -0.38,0.06 H 88.66 V 45.9 h 0.54 c 0.38,0 0.46,0.09 0.46,0.27 z"
   id="path1795" />
						</g>
					</g>
				</g>
			</g>
		</g>
		<g
   id="g1809">
			<path
   class="st2"
   d="m 70.4,124.23 c -29.23,0 -53.02,-23.78 -53.02,-53.02 0,-29.24 23.78,-53.02 53.02,-53.02 29.23,0 53.02,23.78 53.02,53.02 0,29.24 -23.78,53.02 -53.02,53.02 z m 0,-101.56 c -26.77,0 -48.55,21.78 -48.55,48.55 0,26.77 21.78,48.54 48.55,48.54 26.77,0 48.55,-21.78 48.55,-48.54 0,-26.78 -21.78,-48.55 -48.55,-48.55 z"
   id="path1807" />
		</g>
		<g
   id="g1821">
			<g
   id="g1819">
				<g
   id="g1813">
					<path
   class="st2"
   d="m 70.33,103.36 c -0.13,0 -0.24,-0.06 -0.3,-0.18 -0.1,-0.18 -0.2,-0.35 -0.31,-0.52 -0.1,-0.16 -0.05,-0.38 0.11,-0.48 0.16,-0.1 0.37,-0.06 0.47,0.11 0.12,0.18 0.23,0.37 0.33,0.55 0.1,0.17 0.03,0.38 -0.13,0.47 -0.06,0.03 -0.12,0.05 -0.17,0.05 z M 69.2,101.7 c -0.1,0 -0.2,-0.05 -0.27,-0.13 -0.27,-0.34 -0.58,-0.67 -0.9,-0.99 -0.13,-0.14 -0.13,-0.35 0,-0.49 0.13,-0.13 0.35,-0.13 0.49,0 0.34,0.34 0.65,0.69 0.94,1.05 0.12,0.15 0.1,0.37 -0.05,0.49 -0.06,0.05 -0.13,0.07 -0.21,0.07 z m -1.93,-1.95 c -0.08,0 -0.16,-0.03 -0.23,-0.08 -0.33,-0.28 -0.69,-0.56 -1.07,-0.83 -0.15,-0.11 -0.19,-0.33 -0.07,-0.48 0.12,-0.16 0.33,-0.19 0.48,-0.08 0.39,0.28 0.76,0.58 1.11,0.87 0.15,0.12 0.17,0.34 0.04,0.48 -0.07,0.08 -0.16,0.12 -0.26,0.12 z m -2.23,-1.63 c -0.06,0 -0.13,-0.01 -0.19,-0.05 -0.37,-0.24 -0.75,-0.47 -1.16,-0.7 -0.17,-0.09 -0.22,-0.3 -0.13,-0.47 0.09,-0.17 0.3,-0.22 0.47,-0.13 0.42,0.23 0.83,0.47 1.2,0.72 0.16,0.1 0.21,0.32 0.1,0.48 -0.07,0.1 -0.18,0.15 -0.29,0.15 z m 5.26,-0.27 c -0.08,0 -0.15,-0.03 -0.21,-0.08 -0.35,-0.28 -0.71,-0.56 -1.08,-0.83 -0.15,-0.11 -0.19,-0.33 -0.08,-0.48 0.12,-0.15 0.33,-0.19 0.48,-0.07 0.38,0.29 0.75,0.57 1.11,0.86 0.15,0.12 0.17,0.34 0.05,0.49 -0.06,0.07 -0.16,0.11 -0.27,0.11 z m -7.66,-1.08 c -0.05,0 -0.11,-0.01 -0.15,-0.04 -0.4,-0.2 -0.81,-0.4 -1.23,-0.59 -0.18,-0.08 -0.25,-0.28 -0.17,-0.46 0.08,-0.17 0.28,-0.25 0.46,-0.17 0.43,0.19 0.85,0.4 1.26,0.6 0.17,0.09 0.24,0.3 0.15,0.47 -0.07,0.11 -0.19,0.19 -0.32,0.19 z m 5.45,-0.56 c -0.07,0 -0.14,-0.02 -0.19,-0.06 -0.38,-0.25 -0.76,-0.5 -1.15,-0.74 -0.16,-0.1 -0.21,-0.32 -0.11,-0.48 0.1,-0.16 0.31,-0.21 0.47,-0.11 0.4,0.24 0.79,0.5 1.17,0.75 0.16,0.11 0.2,0.32 0.1,0.48 -0.08,0.11 -0.19,0.16 -0.29,0.16 z m -7.97,-0.59 c -0.05,0 -0.09,-0.01 -0.13,-0.03 -0.42,-0.17 -0.84,-0.33 -1.28,-0.5 -0.18,-0.07 -0.27,-0.27 -0.2,-0.44 0.07,-0.18 0.27,-0.27 0.44,-0.2 0.44,0.16 0.87,0.33 1.29,0.51 0.18,0.07 0.26,0.28 0.19,0.45 -0.05,0.13 -0.17,0.21 -0.31,0.21 z m 5.61,-0.85 c -0.06,0 -0.11,-0.01 -0.17,-0.04 -0.4,-0.22 -0.81,-0.43 -1.21,-0.64 -0.17,-0.08 -0.24,-0.29 -0.15,-0.46 0.08,-0.17 0.29,-0.24 0.46,-0.15 0.42,0.21 0.83,0.43 1.24,0.65 0.16,0.09 0.22,0.3 0.13,0.47 -0.06,0.1 -0.18,0.17 -0.3,0.17 z m -8.19,-0.13 c -0.03,0 -0.07,0 -0.11,-0.02 -0.43,-0.14 -0.86,-0.29 -1.31,-0.43 -0.18,-0.06 -0.28,-0.25 -0.22,-0.43 0.06,-0.18 0.25,-0.28 0.43,-0.22 0.44,0.14 0.88,0.28 1.32,0.44 0.18,0.06 0.27,0.26 0.21,0.44 -0.05,0.14 -0.18,0.22 -0.32,0.22 z M 54.9,93.81 c -0.03,0 -0.06,0 -0.09,-0.01 -0.44,-0.13 -0.88,-0.25 -1.33,-0.37 -0.18,-0.05 -0.29,-0.24 -0.24,-0.42 0.05,-0.18 0.24,-0.29 0.43,-0.24 0.45,0.12 0.89,0.25 1.33,0.37 0.19,0.06 0.29,0.25 0.24,0.43 -0.05,0.14 -0.18,0.24 -0.34,0.24 z m 8.36,-0.29 c -0.04,0 -0.1,-0.01 -0.14,-0.03 -0.4,-0.18 -0.82,-0.37 -1.25,-0.55 -0.18,-0.07 -0.26,-0.28 -0.19,-0.45 0.07,-0.18 0.27,-0.26 0.45,-0.19 0.43,0.18 0.86,0.37 1.28,0.56 0.17,0.08 0.25,0.29 0.17,0.46 -0.06,0.12 -0.19,0.21 -0.32,0.2 z M 52.23,93.09 c -0.03,0 -0.06,0 -0.09,-0.01 -0.44,-0.11 -0.89,-0.21 -1.34,-0.31 -0.19,-0.05 -0.3,-0.23 -0.26,-0.42 0.04,-0.19 0.23,-0.3 0.41,-0.26 0.45,0.11 0.9,0.21 1.35,0.33 0.19,0.05 0.3,0.23 0.25,0.42 -0.02,0.15 -0.16,0.25 -0.32,0.25 z m -2.69,-0.62 c -0.02,0 -0.05,0 -0.08,-0.01 -0.45,-0.09 -0.9,-0.19 -1.35,-0.28 -0.19,-0.04 -0.31,-0.21 -0.27,-0.4 0.03,-0.19 0.21,-0.31 0.4,-0.27 0.45,0.09 0.9,0.18 1.36,0.28 0.19,0.04 0.31,0.22 0.27,0.41 -0.03,0.16 -0.17,0.28 -0.33,0.27 z m 11.18,-0.01 c -0.05,0 -0.09,-0.01 -0.12,-0.02 -0.43,-0.16 -0.86,-0.31 -1.29,-0.46 -0.18,-0.07 -0.28,-0.26 -0.22,-0.44 0.07,-0.18 0.26,-0.28 0.44,-0.22 0.44,0.15 0.87,0.31 1.31,0.47 0.18,0.07 0.27,0.26 0.2,0.44 -0.05,0.15 -0.19,0.23 -0.32,0.23 z M 46.83,91.94 c -0.01,0 -0.04,0 -0.06,-0.01 -0.46,-0.08 -0.91,-0.16 -1.36,-0.24 -0.19,-0.03 -0.31,-0.21 -0.28,-0.4 0.04,-0.19 0.21,-0.32 0.4,-0.29 0.45,0.08 0.91,0.16 1.37,0.25 0.19,0.03 0.31,0.21 0.27,0.39 -0.03,0.18 -0.18,0.3 -0.34,0.3 z M 58.1,91.57 c -0.03,0 -0.07,0 -0.1,-0.01 -0.44,-0.13 -0.88,-0.26 -1.32,-0.38 -0.19,-0.05 -0.3,-0.24 -0.24,-0.43 0.05,-0.18 0.24,-0.29 0.42,-0.24 0.45,0.13 0.89,0.25 1.34,0.39 0.18,0.05 0.28,0.25 0.23,0.43 -0.05,0.15 -0.18,0.24 -0.33,0.24 z m -14,-0.09 c -0.02,0 -0.04,0 -0.06,0 -0.46,-0.07 -0.91,-0.14 -1.36,-0.2 -0.19,-0.03 -0.32,-0.2 -0.29,-0.39 0.02,-0.19 0.2,-0.32 0.39,-0.29 0.45,0.06 0.91,0.13 1.37,0.2 0.19,0.03 0.32,0.21 0.29,0.4 -0.02,0.16 -0.17,0.28 -0.34,0.28 z m -2.73,-0.4 c -0.02,0 -0.03,0 -0.04,0 -0.47,-0.06 -0.92,-0.12 -1.37,-0.17 -0.19,-0.02 -0.32,-0.2 -0.3,-0.38 0.02,-0.19 0.19,-0.32 0.39,-0.31 0.45,0.06 0.91,0.11 1.37,0.18 0.19,0.02 0.33,0.19 0.3,0.38 -0.04,0.18 -0.19,0.3 -0.35,0.3 z m 14.06,-0.23 c -0.02,0 -0.05,0 -0.08,-0.01 -0.45,-0.11 -0.9,-0.21 -1.34,-0.3 -0.19,-0.05 -0.3,-0.23 -0.27,-0.41 0.04,-0.18 0.22,-0.31 0.41,-0.27 0.45,0.1 0.9,0.2 1.36,0.31 0.18,0.05 0.3,0.23 0.25,0.42 -0.03,0.15 -0.17,0.26 -0.33,0.26 z M 38.62,90.76 c -0.01,0 -0.03,0 -0.04,0 -0.47,-0.05 -0.93,-0.1 -1.37,-0.14 -0.19,-0.02 -0.33,-0.19 -0.31,-0.38 0.02,-0.18 0.19,-0.32 0.38,-0.31 0.45,0.04 0.91,0.09 1.38,0.14 0.19,0.02 0.33,0.19 0.31,0.38 -0.03,0.18 -0.18,0.31 -0.35,0.31 z m -2.76,-0.27 c -0.01,0 -0.02,0 -0.03,0 -0.49,-0.04 -0.94,-0.08 -1.38,-0.11 -0.19,-0.01 -0.33,-0.18 -0.31,-0.37 0.01,-0.19 0.17,-0.33 0.37,-0.32 0.44,0.03 0.9,0.07 1.39,0.11 0.19,0.01 0.33,0.19 0.31,0.37 -0.02,0.18 -0.17,0.32 -0.35,0.32 z m 16.87,-0.22 c -0.02,0 -0.04,0 -0.07,0 -0.45,-0.09 -0.9,-0.16 -1.35,-0.24 -0.19,-0.03 -0.32,-0.2 -0.29,-0.39 0.04,-0.19 0.21,-0.31 0.4,-0.29 0.46,0.07 0.91,0.16 1.37,0.24 0.19,0.03 0.31,0.21 0.28,0.4 -0.03,0.16 -0.17,0.28 -0.34,0.28 z M 33.1,90.28 c -0.01,0 -0.02,0 -0.02,0 -0.51,-0.03 -0.97,-0.06 -1.38,-0.08 -0.19,-0.01 -0.34,-0.17 -0.33,-0.36 0.01,-0.19 0.18,-0.34 0.36,-0.33 0.01,0 0.02,0 0.03,0 -0.01,-0.01 -0.01,-0.02 -0.01,-0.02 -0.03,-0.19 0.11,-0.36 0.3,-0.39 0.41,-0.05 0.87,-0.1 1.38,-0.15 0.19,-0.02 0.36,0.12 0.37,0.31 0.02,0.19 -0.12,0.36 -0.31,0.38 -0.07,0.01 -0.14,0.01 -0.21,0.02 0.09,0.07 0.15,0.18 0.14,0.3 0.01,0.18 -0.13,0.32 -0.32,0.32 z m -2.77,-0.15 c 0,0 -0.01,0 -0.01,0 -0.31,-0.01 -0.48,-0.01 -0.48,-0.01 -0.17,-0.01 -0.32,-0.14 -0.33,-0.32 -0.01,-0.18 0.11,-0.34 0.28,-0.37 0,0 0.32,-0.06 0.9,-0.15 0.19,-0.03 0.37,0.1 0.39,0.29 0.03,0.19 -0.1,0.37 -0.29,0.39 -0.06,0.01 -0.12,0.02 -0.18,0.03 -0.07,0.09 -0.17,0.14 -0.28,0.14 z m 19.68,-0.29 c -0.02,0 -0.04,0 -0.05,0 -0.45,-0.06 -0.91,-0.12 -1.36,-0.17 -0.19,-0.03 -0.33,-0.2 -0.31,-0.39 0.02,-0.19 0.2,-0.32 0.39,-0.3 0.46,0.05 0.92,0.11 1.38,0.17 0.19,0.02 0.31,0.2 0.29,0.39 -0.03,0.17 -0.17,0.29 -0.34,0.3 z m -2.75,-0.31 c -0.02,0 -0.02,0 -0.03,0 -0.46,-0.04 -0.92,-0.08 -1.37,-0.11 -0.19,-0.01 -0.34,-0.18 -0.32,-0.37 0.01,-0.19 0.18,-0.33 0.37,-0.32 0.46,0.03 0.92,0.07 1.39,0.11 0.19,0.01 0.33,0.18 0.31,0.37 -0.02,0.19 -0.17,0.32 -0.35,0.32 z M 34.85,89.51 c -0.18,0 -0.33,-0.14 -0.35,-0.32 -0.01,-0.19 0.13,-0.36 0.32,-0.37 0.44,-0.04 0.9,-0.07 1.38,-0.1 0.19,-0.01 0.36,0.13 0.36,0.32 0.01,0.19 -0.13,0.36 -0.32,0.37 -0.48,0.03 -0.94,0.06 -1.37,0.1 0,0 -0.01,0 -0.02,0 z m 9.66,-0.18 c -0.01,0 -0.01,0 -0.02,0 -0.46,-0.02 -0.92,-0.04 -1.37,-0.05 -0.19,0 -0.34,-0.16 -0.33,-0.35 0,-0.19 0.16,-0.33 0.35,-0.33 0.45,0.01 0.92,0.03 1.39,0.05 0.19,0.01 0.34,0.17 0.33,0.36 -0.01,0.18 -0.17,0.33 -0.35,0.32 z m -6.9,0 c -0.19,0 -0.34,-0.15 -0.35,-0.33 -0.01,-0.19 0.14,-0.35 0.33,-0.36 0.45,-0.02 0.91,-0.04 1.39,-0.05 0.18,0.01 0.35,0.14 0.35,0.33 0,0.2 -0.15,0.35 -0.33,0.36 -0.48,0.01 -0.93,0.03 -1.38,0.05 z m 4.14,-0.07 v 0 c -0.47,0 -0.93,0 -1.37,0 v 0 c -0.19,0 -0.34,-0.15 -0.34,-0.34 0,-0.19 0.15,-0.35 0.34,-0.35 0.45,0 0.91,0 1.39,0 0.19,0.01 0.34,0.16 0.34,0.35 -0.02,0.18 -0.17,0.33 -0.36,0.34 z"
   id="path1811" />
				</g>
				<g
   id="g1817">
					<path
   class="st2"
   d="m 70.33,103.36 c -0.06,0 -0.11,-0.01 -0.16,-0.05 -0.17,-0.08 -0.24,-0.29 -0.15,-0.46 0.18,-0.34 0.39,-0.68 0.61,-1.02 0.11,-0.16 0.32,-0.2 0.48,-0.09 0.16,0.11 0.2,0.32 0.09,0.48 -0.21,0.31 -0.41,0.64 -0.57,0.96 -0.06,0.11 -0.18,0.18 -0.3,0.18 z m 1.43,-2.08 c -0.08,0 -0.16,-0.03 -0.23,-0.09 -0.14,-0.12 -0.16,-0.34 -0.04,-0.49 0.3,-0.35 0.62,-0.69 0.97,-1.02 0.13,-0.13 0.35,-0.12 0.49,0.01 0.13,0.14 0.12,0.35 -0.01,0.49 -0.33,0.32 -0.64,0.64 -0.92,0.97 -0.07,0.09 -0.16,0.13 -0.26,0.13 z m 1.98,-1.91 c -0.1,0 -0.2,-0.04 -0.27,-0.13 -0.12,-0.14 -0.1,-0.36 0.05,-0.48 0.35,-0.29 0.73,-0.57 1.12,-0.85 0.15,-0.11 0.37,-0.07 0.48,0.08 0.11,0.16 0.07,0.37 -0.09,0.48 -0.37,0.26 -0.74,0.54 -1.08,0.81 -0.06,0.06 -0.14,0.09 -0.21,0.09 z M 70.3,97.85 c -0.1,0 -0.19,-0.04 -0.26,-0.12 -0.12,-0.14 -0.1,-0.36 0.04,-0.49 0.35,-0.29 0.71,-0.59 1.09,-0.87 0.15,-0.11 0.37,-0.09 0.48,0.06 0.12,0.15 0.09,0.37 -0.07,0.49 -0.36,0.27 -0.71,0.56 -1.06,0.85 -0.05,0.06 -0.14,0.08 -0.22,0.08 z m 5.69,-0.07 c -0.11,0 -0.22,-0.05 -0.3,-0.16 -0.09,-0.16 -0.05,-0.38 0.12,-0.48 0.38,-0.24 0.79,-0.47 1.21,-0.7 0.17,-0.09 0.38,-0.03 0.47,0.14 0.09,0.17 0.03,0.38 -0.14,0.47 -0.41,0.22 -0.8,0.45 -1.18,0.68 -0.05,0.04 -0.11,0.05 -0.18,0.05 z m 2.43,-1.33 c -0.13,0 -0.25,-0.07 -0.32,-0.19 -0.08,-0.17 -0.01,-0.38 0.16,-0.46 0.41,-0.2 0.83,-0.4 1.26,-0.59 0.18,-0.08 0.38,0 0.46,0.18 0.08,0.17 0,0.38 -0.18,0.46 -0.43,0.19 -0.85,0.38 -1.24,0.58 -0.04,0.02 -0.09,0.03 -0.14,0.02 z M 72.5,96.17 c -0.11,0 -0.22,-0.05 -0.29,-0.15 -0.11,-0.15 -0.07,-0.37 0.09,-0.48 0.38,-0.26 0.77,-0.52 1.16,-0.77 0.16,-0.1 0.37,-0.05 0.47,0.11 0.1,0.16 0.05,0.38 -0.11,0.48 -0.38,0.24 -0.76,0.5 -1.14,0.75 -0.05,0.04 -0.11,0.06 -0.18,0.06 z m 8.44,-0.83 c -0.13,0 -0.27,-0.08 -0.32,-0.21 -0.07,-0.18 0.02,-0.38 0.19,-0.45 0.43,-0.17 0.86,-0.34 1.3,-0.5 0.18,-0.07 0.38,0.03 0.44,0.21 0.07,0.18 -0.03,0.37 -0.21,0.44 -0.43,0.16 -0.86,0.32 -1.28,0.49 -0.04,0.01 -0.08,0.02 -0.12,0.02 z M 74.83,94.7 c -0.12,0 -0.24,-0.06 -0.3,-0.17 -0.09,-0.16 -0.03,-0.38 0.13,-0.47 0.4,-0.23 0.81,-0.45 1.22,-0.67 0.17,-0.09 0.38,-0.02 0.47,0.15 0.09,0.17 0.03,0.37 -0.15,0.46 -0.41,0.21 -0.81,0.43 -1.2,0.66 -0.05,0.03 -0.11,0.04 -0.17,0.04 z m 8.7,-0.31 c -0.14,0 -0.28,-0.1 -0.33,-0.24 -0.07,-0.18 0.04,-0.38 0.21,-0.44 0.44,-0.15 0.88,-0.29 1.32,-0.43 0.18,-0.06 0.37,0.04 0.43,0.23 0.05,0.18 -0.05,0.38 -0.23,0.43 -0.44,0.13 -0.88,0.28 -1.31,0.42 -0.01,0.02 -0.05,0.02 -0.09,0.03 z m 2.64,-0.82 c -0.15,0 -0.29,-0.1 -0.33,-0.25 -0.05,-0.18 0.06,-0.38 0.24,-0.43 0.44,-0.12 0.89,-0.24 1.34,-0.37 0.18,-0.05 0.37,0.06 0.42,0.25 0.05,0.18 -0.06,0.37 -0.24,0.42 -0.45,0.12 -0.89,0.24 -1.33,0.36 -0.04,0.01 -0.07,0.02 -0.1,0.02 z m -8.89,-0.14 c -0.13,0 -0.26,-0.08 -0.31,-0.2 -0.08,-0.17 -0.01,-0.38 0.16,-0.46 0.41,-0.19 0.84,-0.38 1.27,-0.57 0.17,-0.07 0.38,0.01 0.45,0.19 0.08,0.17 -0.01,0.37 -0.18,0.45 -0.42,0.18 -0.85,0.37 -1.25,0.56 -0.04,0.01 -0.09,0.03 -0.14,0.03 z m 11.57,-0.57 c -0.16,0 -0.3,-0.11 -0.34,-0.26 -0.05,-0.18 0.07,-0.37 0.25,-0.42 0.45,-0.11 0.9,-0.21 1.35,-0.32 0.19,-0.04 0.37,0.08 0.41,0.26 0.04,0.19 -0.07,0.37 -0.26,0.42 -0.44,0.1 -0.89,0.21 -1.34,0.31 -0.02,0.01 -0.05,0.01 -0.07,0.01 z m -9.03,-0.52 c -0.14,0 -0.27,-0.09 -0.32,-0.22 -0.07,-0.18 0.02,-0.38 0.2,-0.44 0.44,-0.17 0.87,-0.33 1.31,-0.48 0.18,-0.06 0.38,0.03 0.44,0.21 0.06,0.18 -0.03,0.38 -0.21,0.44 -0.43,0.15 -0.86,0.31 -1.29,0.47 -0.04,0.02 -0.09,0.02 -0.13,0.02 z m 11.72,-0.09 c -0.16,0 -0.3,-0.11 -0.34,-0.27 -0.04,-0.19 0.08,-0.37 0.26,-0.41 0.46,-0.09 0.91,-0.19 1.36,-0.27 0.18,-0.04 0.36,0.08 0.4,0.27 0.04,0.19 -0.08,0.37 -0.27,0.41 -0.45,0.09 -0.9,0.18 -1.35,0.27 -0.01,0 -0.04,0 -0.06,0 z m 2.71,-0.52 c -0.16,0 -0.31,-0.12 -0.34,-0.28 -0.03,-0.19 0.09,-0.37 0.28,-0.4 0.46,-0.08 0.91,-0.16 1.36,-0.23 0.19,-0.04 0.37,0.09 0.4,0.28 0.04,0.19 -0.1,0.36 -0.29,0.4 -0.44,0.08 -0.89,0.15 -1.36,0.24 -0.01,-0.02 -0.03,-0.01 -0.05,-0.01 z m -11.82,-0.3 c -0.15,0 -0.28,-0.09 -0.33,-0.24 -0.06,-0.18 0.05,-0.38 0.23,-0.43 0.45,-0.14 0.89,-0.27 1.34,-0.39 0.18,-0.05 0.37,0.05 0.43,0.23 0.05,0.19 -0.06,0.38 -0.24,0.43 -0.44,0.12 -0.88,0.25 -1.31,0.39 -0.05,0.01 -0.08,0.02 -0.12,0.01 z m 14.55,-0.16 c -0.17,0 -0.32,-0.12 -0.34,-0.29 -0.03,-0.19 0.1,-0.36 0.29,-0.39 0.46,-0.07 0.92,-0.14 1.37,-0.2 0.18,-0.03 0.36,0.1 0.38,0.29 0.03,0.19 -0.1,0.36 -0.3,0.39 -0.44,0.06 -0.9,0.13 -1.36,0.2 -0.01,0 -0.02,0 -0.04,0 z m 2.74,-0.38 c -0.17,0 -0.32,-0.13 -0.34,-0.3 -0.02,-0.19 0.11,-0.37 0.3,-0.39 0.46,-0.06 0.92,-0.12 1.38,-0.17 0.19,-0.03 0.36,0.11 0.38,0.3 0.02,0.19 -0.12,0.36 -0.31,0.38 -0.45,0.05 -0.91,0.11 -1.36,0.17 -0.02,0 -0.03,0.01 -0.05,0.01 z m -14.63,-0.2 c -0.15,0 -0.3,-0.1 -0.33,-0.26 -0.05,-0.19 0.06,-0.37 0.25,-0.42 0.45,-0.11 0.91,-0.21 1.36,-0.31 0.19,-0.04 0.37,0.08 0.42,0.26 0.04,0.19 -0.08,0.37 -0.27,0.41 -0.44,0.1 -0.89,0.2 -1.33,0.31 -0.04,0.01 -0.07,0.01 -0.1,0.01 z m 17.38,-0.12 c -0.18,0 -0.33,-0.13 -0.35,-0.31 -0.02,-0.19 0.12,-0.36 0.31,-0.38 0.47,-0.05 0.94,-0.1 1.38,-0.14 0.19,-0.03 0.36,0.12 0.38,0.31 0.02,0.19 -0.12,0.36 -0.31,0.38 -0.44,0.04 -0.89,0.09 -1.37,0.14 -0.02,-0.01 -0.03,0 -0.04,0 z m 2.75,-0.27 c -0.18,0 -0.33,-0.14 -0.34,-0.31 -0.02,-0.19 0.13,-0.36 0.32,-0.37 0.48,-0.05 0.94,-0.08 1.38,-0.12 0.19,-0.01 0.35,0.13 0.36,0.32 0.01,0.19 -0.13,0.36 -0.32,0.37 -0.43,0.03 -0.89,0.07 -1.37,0.11 -0.01,0 -0.02,0 -0.03,0 z M 87.79,90.11 c -0.16,0 -0.31,-0.12 -0.34,-0.28 -0.04,-0.19 0.09,-0.37 0.28,-0.41 0.46,-0.08 0.91,-0.16 1.36,-0.24 0.19,-0.03 0.37,0.1 0.4,0.29 0.02,0.19 -0.1,0.37 -0.29,0.4 -0.45,0.07 -0.9,0.15 -1.35,0.24 -0.02,0 -0.04,0 -0.06,0 z m 20.19,-0.01 c -0.18,0 -0.33,-0.14 -0.34,-0.32 -0.01,-0.11 0.03,-0.2 0.1,-0.27 -0.23,-0.03 -0.48,-0.06 -0.73,-0.08 -0.19,-0.02 -0.33,-0.19 -0.32,-0.37 0.03,-0.19 0.2,-0.33 0.38,-0.31 0.5,0.05 0.96,0.11 1.38,0.15 0.19,0.02 0.32,0.19 0.3,0.39 0,0.02 -0.01,0.05 -0.01,0.08 0.22,-0.01 0.42,-0.02 0.61,-0.03 0.03,0 0.07,0 0.1,0.01 0.04,-0.17 0.2,-0.29 0.38,-0.26 0.76,0.1 1.17,0.18 1.19,0.19 0.17,0.04 0.3,0.19 0.28,0.37 -0.01,0.18 -0.16,0.31 -0.34,0.32 l -0.2,0.01 c -0.08,0 -0.15,-0.03 -0.22,-0.07 -0.19,-0.03 -0.47,-0.08 -0.81,-0.13 -0.01,0 -0.02,0 -0.03,-0.01 -0.03,0.14 -0.16,0.25 -0.32,0.26 -0.4,0.02 -0.86,0.05 -1.38,0.08 0,-0.01 -0.01,-0.01 -0.02,-0.01 z M 90.52,89.67 c -0.17,0 -0.32,-0.13 -0.35,-0.3 -0.02,-0.19 0.11,-0.36 0.29,-0.39 0.46,-0.06 0.92,-0.12 1.38,-0.17 0.19,-0.03 0.36,0.11 0.39,0.3 0.02,0.19 -0.11,0.36 -0.31,0.38 -0.45,0.05 -0.9,0.11 -1.36,0.18 -0.01,0 -0.03,0 -0.04,0 z m 2.74,-0.32 c -0.18,0 -0.33,-0.13 -0.35,-0.31 -0.02,-0.19 0.12,-0.36 0.31,-0.37 0.46,-0.05 0.92,-0.08 1.38,-0.12 0.19,-0.02 0.35,0.13 0.37,0.32 0.01,0.19 -0.13,0.35 -0.32,0.37 -0.45,0.03 -0.91,0.07 -1.37,0.11 0,0 -0.01,0 -0.02,0 z m 12.41,-0.05 c 0,0 -0.01,0 -0.03,0 -0.44,-0.04 -0.89,-0.07 -1.37,-0.1 -0.19,-0.01 -0.33,-0.17 -0.32,-0.37 0.01,-0.19 0.17,-0.33 0.36,-0.32 0.48,0.03 0.94,0.06 1.38,0.1 0.19,0.02 0.33,0.18 0.32,0.37 -0.01,0.19 -0.16,0.32 -0.34,0.32 z m -9.66,-0.15 c -0.18,0 -0.34,-0.14 -0.35,-0.33 -0.01,-0.19 0.14,-0.35 0.33,-0.36 0.47,-0.02 0.93,-0.04 1.38,-0.06 0.01,0.01 0.01,0 0.01,0 0.18,0 0.34,0.15 0.34,0.34 0,0.19 -0.14,0.35 -0.33,0.36 -0.45,0.01 -0.91,0.03 -1.37,0.06 0,-0.01 0,-0.01 -0.01,-0.01 z m 6.9,-0.02 c 0,0 -0.01,0 -0.01,0 -0.45,-0.02 -0.91,-0.04 -1.38,-0.05 -0.19,0 -0.34,-0.16 -0.34,-0.35 0.01,-0.19 0.16,-0.34 0.34,-0.34 h 0.02 c 0.47,0.01 0.93,0.03 1.38,0.05 0.19,0.01 0.34,0.17 0.33,0.36 0,0.19 -0.15,0.33 -0.34,0.33 z m -4.14,-0.06 c -0.19,0 -0.34,-0.15 -0.34,-0.34 0,-0.19 0.15,-0.35 0.34,-0.35 0.47,0 0.93,-0.01 1.39,0 0.19,0 0.34,0.16 0.34,0.35 0,0.19 -0.16,0.34 -0.35,0.34 v 0 c -0.45,-0.01 -0.9,-0.01 -1.38,0 z"
   id="path1815" />
				</g>
			</g>
		</g>
		<g
   id="g1835">
			<g
   id="g1831">
				<path
   class="st2"
   d="m 48.82,84.48 7.24,-22.86 c 0.75,-2.31 2.21,-3.47 4.4,-3.47 2.19,0 3.65,1.17 4.4,3.5 l 7.2,22.83 h -5.87 l -1.77,-5.63 h -7.94 l -1.74,5.63 z m 13.92,-10.96 -2.65,-8.43 -1.94,8.43 z"
   id="path1823" />
				<path
   class="st2"
   d="m 73.36,63.52 c 0,-0.47 0.05,-0.91 0.15,-1.31 0.65,-2.56 2.37,-3.84 5.19,-3.84 H 90.11 V 64 h -9.92 c -0.55,0 -0.94,0.24 -1.16,0.72 -0.05,0.25 -0.08,0.44 -0.08,0.56 v 1.73 c 0,0.18 0.01,0.3 0.04,0.38 0.1,0.65 0.56,1.03 1.38,1.13 0.07,0.03 0.2,0.04 0.38,0.04 h 4.08 c 2.92,0 4.64,1.36 5.17,4.07 0.07,0.4 0.11,0.76 0.11,1.08 v 5.26 c 0,1.74 -0.5,3.1 -1.5,4.07 -1,0.97 -2.36,1.45 -4.1,1.45 H 73.36 v -5.63 h 9.81 l 0.34,-0.11 c 0.65,-0.22 0.97,-0.69 0.97,-1.42 v -1.86 c 0,-0.75 -0.4,-1.17 -1.19,-1.27 h -4.66 c -1.92,0 -3.38,-0.77 -4.4,-2.31 -0.57,-0.87 -0.86,-1.8 -0.86,-2.8 v -5.57 z"
   id="path1825" />
				<path
   class="st2"
   d="M 91.78,84.48 V 58.37 h 5.59 v 26.11 z"
   id="path1827" />
				<path
   class="st2"
   d="M 99.31,78.66 V 64.3 c 0,-2.26 0.45,-3.82 1.34,-4.66 0.9,-0.84 2.49,-1.27 4.77,-1.27 h 10.97 V 64 h -10.18 c -0.72,0.08 -1.16,0.46 -1.31,1.16 v 11.41 c 0,0.82 0.09,1.37 0.26,1.64 0.25,0.42 0.72,0.63 1.42,0.63 h 9.81 v 5.63 H 104.6 c -0.62,0 -1.28,-0.14 -1.98,-0.41 -2.2,-0.86 -3.31,-2.66 -3.31,-5.4 z"
   id="path1829" />
			</g>
			<path
   class="st2"
   d="m 46.25,70.83 c 1.76,-1 2.68,-2.84 2.68,-5.41 0,-2.75 -0.67,-4.69 -1.99,-5.74 -1.3,-1.03 -3.57,-1.53 -6.95,-1.53 h -14.3 v 26.33 h 15.03 c 3.23,0 5.46,-0.56 6.81,-1.7 1.37,-1.15 2.07,-3.13 2.07,-5.88 0,-3.03 -1.15,-5.1 -3.35,-6.07 z m -13.94,2.66 h 6.04 c 2.95,0 3.76,0.33 3.98,0.47 0.17,0.12 0.58,0.57 0.58,2.29 0,1.61 -0.37,2.14 -0.59,2.32 -0.24,0.2 -0.97,0.53 -3.09,0.53 l -1.83,0.04 h -5.09 z m 9.35,-5.35 c -0.21,0.15 -0.97,0.5 -3.59,0.5 H 32.31 V 63.5 h 6.83 c 2.74,0 3.09,1.24 3.09,2.33 0,1.64 -0.36,2.16 -0.57,2.31 z"
   id="path1833" />
		</g>
	</g>
</g>
<g
   id="Capa_2"
   class="st0">
	<g
   class="st1"
   id="g1934">
		<g
   id="g1906">
			<g
   id="g1904">
				<g
   id="g1852">
					<g
   id="g1850">
						<g
   id="g1848">
							<g
   id="g1846">
								<path
   class="st3"
   d="m 55.32,70.82 c 1.74,-0.99 2.64,-2.79 2.64,-5.33 0,-2.71 -0.66,-4.61 -1.96,-5.65 -1.28,-1.01 -3.51,-1.51 -6.84,-1.51 H 35.08 v 25.92 h 14.8 c 3.18,0 5.37,-0.55 6.71,-1.67 1.35,-1.14 2.04,-3.08 2.04,-5.79 -0.01,-2.97 -1.14,-5.01 -3.31,-5.97 z M 41.6,73.44 h 5.95 c 2.9,0 3.7,0.32 3.92,0.46 0.17,0.11 0.57,0.56 0.57,2.25 0,1.59 -0.36,2.11 -0.58,2.29 -0.24,0.19 -0.95,0.52 -3.04,0.52 L 46.6,79 h -5 z m 9.2,-5.26 c -0.2,0.15 -0.95,0.49 -3.54,0.49 H 41.6 v -5.06 h 6.73 c 2.7,0 3.04,1.22 3.04,2.29 0,1.62 -0.36,2.13 -0.57,2.28 z"
   id="path1840" />
								<polygon
   class="st3"
   points="61.04,84.26 80.34,84.26 80.34,78.75 67.55,78.75 67.55,58.34 61.04,58.34 "
   id="polygon1842" />
								<path
   class="st3"
   d="m 99.17,58.34 v 17.11 c 0,2.21 -0.48,2.88 -0.76,3.08 -0.33,0.23 -1.38,0.62 -4.76,0.62 -3.3,0 -4.36,-0.38 -4.71,-0.61 -0.5,-0.34 -0.78,-1.37 -0.78,-2.9 v -17.3 h -6.51 v 17.29 c 0,3.63 0.81,5.97 2.5,7.16 1.61,1.14 4.79,1.69 9.74,1.69 4.69,0 7.75,-0.59 9.34,-1.8 1.65,-1.25 2.45,-3.64 2.45,-7.32 V 58.34 Z"
   id="path1844" />
							</g>
						</g>
					</g>
				</g>
				<g
   id="g1902">
					<g
   id="g1858">
						<path
   class="st3"
   d="m 44.08,94.96 v -6.53 h 3.21 c 0.91,0 1.55,0.2 1.92,0.6 0.36,0.4 0.55,1.1 0.55,2.09 0,1.63 -0.15,2.68 -0.44,3.14 -0.29,0.46 -0.96,0.7 -1.98,0.7 z m 1.24,-1.04 h 1.76 c 0.59,0 0.98,-0.14 1.15,-0.41 0.17,-0.27 0.26,-0.87 0.26,-1.81 0,-0.96 -0.08,-1.57 -0.23,-1.84 -0.15,-0.26 -0.52,-0.39 -1.1,-0.39 h -1.84 z"
   id="path1854" />
						<path
   class="st3"
   d="M 47.33,95.14 H 43.9 v -6.88 h 3.38 c 0.97,0 1.64,0.21 2.05,0.66 0.39,0.43 0.59,1.18 0.59,2.21 0,1.68 -0.15,2.74 -0.47,3.23 -0.32,0.52 -1.03,0.78 -2.12,0.78 z m -3.07,-0.35 h 3.07 c 0.96,0 1.58,-0.21 1.84,-0.61 0.27,-0.43 0.41,-1.46 0.41,-3.04 0,-0.95 -0.17,-1.61 -0.5,-1.98 -0.33,-0.36 -0.93,-0.54 -1.79,-0.54 h -3.03 z m 2.82,-0.7 H 45.14 V 89.3 h 2.01 c 0.64,0 1.06,0.16 1.25,0.47 0.18,0.3 0.26,0.91 0.26,1.93 0,0.97 -0.09,1.6 -0.29,1.9 -0.2,0.33 -0.62,0.49 -1.29,0.49 z M 45.5,93.74 h 1.59 c 0.53,0 0.86,-0.11 1,-0.33 0.11,-0.17 0.23,-0.6 0.23,-1.71 0,-1.15 -0.11,-1.59 -0.21,-1.75 -0.12,-0.2 -0.45,-0.3 -0.95,-0.3 H 45.5 Z"
   id="path1856" />
					</g>
					<g
   id="g1864">
						<path
   class="st3"
   d="m 53.85,88.43 v 6.53 h -1.24 v -6.53 z"
   id="path1860" />
						<path
   class="st3"
   d="m 54.03,95.14 h -1.59 v -6.88 h 1.59 z m -1.24,-0.35 h 0.89 v -6.18 h -0.89 z"
   id="path1862" />
					</g>
					<g
   id="g1870">
						<path
   class="st3"
   d="m 61.14,88.43 h 1.31 l -2.1,6.53 h -1.9 l -2.08,-6.53 h 1.29 l 1.22,3.7 c 0.11,0.35 0.29,0.95 0.51,1.78 h 0.03 l 0.12,-0.45 c 0.15,-0.55 0.28,-1 0.39,-1.33 z"
   id="path1866" />
						<path
   class="st3"
   d="m 60.48,95.14 h -2.16 l -2.2,-6.88 h 1.65 l 1.27,3.82 c 0.09,0.29 0.22,0.71 0.36,1.24 0.15,-0.53 0.27,-0.94 0.37,-1.23 l 1.25,-3.82 h 1.68 z m -1.9,-0.35 h 1.65 l 1.99,-6.18 h -0.94 l -1.17,3.58 c -0.1,0.31 -0.23,0.74 -0.39,1.32 l -0.16,0.58 h -0.27 l -0.07,-0.13 c -0.21,-0.78 -0.39,-1.4 -0.51,-1.77 L 57.53,88.62 H 56.6 Z"
   id="path1868" />
					</g>
					<g
   id="g1876">
						<path
   class="st3"
   d="m 66.19,88.43 v 6.53 h -1.24 v -6.53 z"
   id="path1872" />
						<path
   class="st3"
   d="m 66.37,95.14 h -1.59 v -6.88 h 1.59 z m -1.24,-0.35 h 0.89 v -6.18 h -0.89 z"
   id="path1874" />
					</g>
					<g
   id="g1882">
						<path
   class="st3"
   d="m 74.15,90.34 h -1.21 c -0.01,-0.06 -0.01,-0.1 -0.01,-0.13 -0.03,-0.37 -0.11,-0.6 -0.24,-0.69 -0.14,-0.09 -0.45,-0.14 -0.95,-0.14 -0.59,0 -0.97,0.05 -1.15,0.16 -0.18,0.11 -0.27,0.34 -0.27,0.68 0,0.41 0.07,0.66 0.22,0.74 0.15,0.09 0.63,0.15 1.45,0.19 0.97,0.06 1.6,0.2 1.89,0.42 0.29,0.22 0.43,0.69 0.43,1.39 0,0.87 -0.17,1.43 -0.5,1.68 -0.34,0.25 -1.08,0.38 -2.22,0.38 -1.03,0 -1.71,-0.13 -2.04,-0.37 -0.34,-0.25 -0.5,-0.75 -0.5,-1.51 L 69.04,92.9 h 1.21 v 0.14 c 0,0.46 0.08,0.74 0.24,0.84 0.16,0.1 0.6,0.15 1.3,0.15 0.56,0 0.91,-0.06 1.06,-0.18 0.15,-0.12 0.23,-0.39 0.23,-0.81 0,-0.32 -0.06,-0.53 -0.18,-0.63 -0.12,-0.1 -0.37,-0.17 -0.75,-0.19 l -0.68,-0.04 c -1.03,-0.06 -1.69,-0.2 -1.98,-0.43 -0.29,-0.23 -0.43,-0.71 -0.43,-1.46 0,-0.76 0.17,-1.27 0.52,-1.52 0.35,-0.26 1.04,-0.38 2.07,-0.38 0.98,0 1.64,0.12 1.98,0.35 0.34,0.23 0.51,0.69 0.51,1.36 v 0.24 z"
   id="path1878" />
						<path
   class="st3"
   d="m 71.59,95.19 c -1.07,0 -1.78,-0.13 -2.15,-0.41 -0.39,-0.29 -0.58,-0.83 -0.58,-1.65 l -0.01,-0.41 h 1.56 l 0.01,0.31 c 0,0.55 0.12,0.67 0.16,0.7 0.06,0.04 0.29,0.12 1.21,0.12 0.68,0 0.89,-0.09 0.95,-0.14 0.06,-0.05 0.16,-0.2 0.16,-0.68 0,-0.34 -0.07,-0.46 -0.12,-0.5 -0.04,-0.03 -0.18,-0.12 -0.65,-0.14 l -0.68,-0.04 c -1.08,-0.06 -1.76,-0.22 -2.08,-0.47 -0.33,-0.26 -0.5,-0.79 -0.5,-1.6 0,-0.83 0.19,-1.38 0.59,-1.66 0.38,-0.28 1.09,-0.41 2.17,-0.41 1.03,0 1.71,0.12 2.08,0.38 0.39,0.26 0.59,0.77 0.59,1.51 v 0.42 H 72.76 L 72.74,90.37 C 72.73,90.3 72.73,90.25 72.73,90.22 72.7,89.81 72.6,89.7 72.56,89.67 c -0.05,-0.03 -0.23,-0.11 -0.85,-0.11 -0.72,0 -0.97,0.09 -1.06,0.14 -0.12,0.07 -0.18,0.25 -0.18,0.53 0,0.5 0.12,0.58 0.13,0.59 0.06,0.03 0.3,0.11 1.38,0.17 1.02,0.06 1.67,0.21 1.98,0.45 0.33,0.26 0.5,0.76 0.5,1.53 0,0.93 -0.19,1.53 -0.57,1.82 -0.35,0.27 -1.1,0.4 -2.3,0.4 z m -2.37,-2.12 v 0.06 c 0,0.7 0.15,1.16 0.43,1.37 0.21,0.15 0.72,0.34 1.94,0.34 1.37,0 1.9,-0.19 2.11,-0.34 0.28,-0.22 0.43,-0.75 0.43,-1.54 0,-0.65 -0.12,-1.07 -0.36,-1.25 -0.18,-0.14 -0.63,-0.31 -1.79,-0.38 -1.13,-0.06 -1.41,-0.15 -1.53,-0.22 -0.2,-0.12 -0.31,-0.41 -0.31,-0.89 0,-0.41 0.12,-0.69 0.35,-0.83 0.22,-0.13 0.61,-0.19 1.24,-0.19 0.71,0 0.94,0.1 1.05,0.17 0.18,0.13 0.28,0.39 0.31,0.79 h 0.87 v -0.07 c 0,-0.61 -0.15,-1.02 -0.44,-1.22 -0.31,-0.21 -0.94,-0.32 -1.89,-0.32 -0.99,0 -1.66,0.12 -1.97,0.35 -0.3,0.21 -0.45,0.68 -0.45,1.38 0,0.67 0.13,1.13 0.36,1.32 0.18,0.14 0.65,0.32 1.88,0.39 l 0.68,0.04 c 0.44,0.02 0.71,0.1 0.86,0.23 0.16,0.14 0.23,0.39 0.23,0.76 0,0.49 -0.1,0.8 -0.3,0.95 -0.18,0.15 -0.54,0.21 -1.17,0.21 -0.99,0 -1.27,-0.1 -1.4,-0.18 -0.21,-0.14 -0.31,-0.44 -0.32,-0.95 h -0.81 z"
   id="path1880" />
					</g>
					<g
   id="g1888">
						<path
   class="st3"
   d="m 78.37,88.43 v 6.53 h -1.24 v -6.53 z"
   id="path1884" />
						<path
   class="st3"
   d="m 78.54,95.14 h -1.59 v -6.88 h 1.59 z M 77.3,94.79 h 0.89 V 88.61 H 77.3 Z"
   id="path1886" />
					</g>
					<g
   id="g1894">
						<path
   class="st3"
   d="m 84.19,88.38 c 1.18,0 1.95,0.2 2.29,0.59 0.34,0.4 0.51,1.28 0.51,2.64 0,1.5 -0.17,2.44 -0.52,2.83 -0.34,0.39 -1.17,0.58 -2.49,0.58 -1.19,0 -1.95,-0.19 -2.3,-0.58 -0.35,-0.39 -0.52,-1.23 -0.52,-2.54 0,-1.56 0.17,-2.53 0.51,-2.93 0.35,-0.39 1.19,-0.59 2.52,-0.59 z m -0.09,1.06 c -0.83,0 -1.32,0.11 -1.46,0.32 -0.14,0.21 -0.21,0.95 -0.21,2.22 0,0.94 0.08,1.5 0.25,1.69 0.16,0.19 0.65,0.29 1.45,0.29 0.77,0 1.23,-0.11 1.38,-0.32 0.15,-0.22 0.23,-0.87 0.23,-1.96 0,-1.09 -0.07,-1.74 -0.22,-1.94 -0.14,-0.2 -0.62,-0.3 -1.42,-0.3 z"
   id="path1890" />
						<path
   class="st3"
   d="m 83.99,95.19 c -1.25,0 -2.04,-0.21 -2.43,-0.63 C 81.18,94.14 81,93.27 81,91.91 c 0,-1.61 0.18,-2.61 0.55,-3.05 0.38,-0.44 1.25,-0.66 2.64,-0.66 1.25,0 2.05,0.21 2.42,0.65 0.38,0.43 0.56,1.33 0.56,2.76 0,1.55 -0.18,2.51 -0.56,2.94 -0.38,0.43 -1.24,0.64 -2.62,0.64 z m 0.2,-6.64 c -1.59,0 -2.17,0.29 -2.38,0.54 -0.21,0.25 -0.47,0.94 -0.47,2.82 0,1.25 0.16,2.07 0.48,2.42 0.31,0.34 1.04,0.52 2.17,0.52 1.57,0 2.15,-0.29 2.36,-0.52 0.22,-0.24 0.47,-0.91 0.47,-2.71 0,-1.64 -0.26,-2.28 -0.47,-2.53 -0.3,-0.36 -1.03,-0.54 -2.16,-0.54 z m -0.06,5.58 c -0.88,0 -1.38,-0.11 -1.59,-0.35 -0.12,-0.15 -0.29,-0.49 -0.29,-1.81 0,-1.73 0.13,-2.15 0.24,-2.31 0.18,-0.27 0.69,-0.4 1.6,-0.4 0.9,0 1.38,0.11 1.57,0.37 0.12,0.16 0.25,0.53 0.25,2.04 0,1.51 -0.15,1.9 -0.26,2.06 -0.19,0.28 -0.67,0.4 -1.52,0.4 z M 84.1,89.61 c -1.07,0 -1.27,0.18 -1.31,0.24 -0.07,0.1 -0.18,0.51 -0.18,2.12 0,1.21 0.14,1.51 0.2,1.58 0.06,0.07 0.3,0.22 1.32,0.22 0.96,0 1.18,-0.17 1.24,-0.25 0.07,-0.1 0.2,-0.49 0.2,-1.86 0,-1.38 -0.11,-1.74 -0.18,-1.84 -0.05,-0.03 -0.26,-0.21 -1.29,-0.21 z"
   id="path1892" />
					</g>
					<g
   id="g1900">
						<path
   class="st3"
   d="m 95.85,88.43 v 6.53 h -2.1 L 91.89,91.38 C 91.8,91.2 91.65,90.89 91.46,90.44 L 91.25,89.97 91.04,89.5 h -0.05 l 0.02,0.43 0.01,0.42 0.01,0.85 v 3.74 h -1.24 v -6.53 h 2.1 l 1.7,3.31 c 0.15,0.29 0.32,0.65 0.52,1.07 l 0.25,0.53 0.25,0.54 h 0.04 l -0.01,-0.42 -0.02,-0.42 -0.01,-0.84 v -3.76 h 1.24 z"
   id="path1896" />
						<path
   class="st3"
   d="m 96.02,95.14 h -2.38 l -1.91,-3.68 c -0.09,-0.18 -0.24,-0.5 -0.44,-0.95 l -0.1,-0.21 0.01,0.92 v 3.92 H 89.61 V 88.26 H 92 l 1.75,3.4 c 0.15,0.3 0.32,0.65 0.52,1.07 l 0.18,0.39 V 93.04 L 94.44,92.2 v -3.94 h 1.59 v 6.88 z m -2.17,-0.35 h 1.82 v -6.18 h -0.89 l 0.04,5.44 h -0.29 l -0.09,-0.1 -0.5,-1.07 c -0.2,-0.42 -0.37,-0.77 -0.52,-1.06 l -1.65,-3.21 h -1.82 v 6.18 h 0.89 l -0.05,-5.46 h 0.35 l 0.46,1.04 c 0.2,0.44 0.34,0.75 0.43,0.93 z"
   id="path1898" />
					</g>
				</g>
			</g>
		</g>
		<g
   id="g1928">
			<g
   id="g1926">
				<g
   id="g1924">
					<polygon
   class="st3"
   points="51.27,56.34 49.78,50.65 51.24,45 56.03,45 56.03,56.34 "
   id="polygon1908" />
					<g
   id="g1922">
						<path
   class="st3"
   d="m 63.5,45.09 c -3.14,0 -5.67,2.5 -5.67,5.59 0,3.08 2.53,5.58 5.67,5.58 3.12,0 5.66,-2.5 5.66,-5.58 0,-3.09 -2.54,-5.59 -5.66,-5.59 m 0,9.5 c -2.2,0 -3.98,-1.76 -3.98,-3.92 0,-2.17 1.78,-3.92 3.98,-3.92 2.19,0 3.97,1.75 3.97,3.92 0,2.17 -1.78,3.92 -3.97,3.92"
   id="path1910" />
						<path
   class="st3"
   d="m 80.1,45.7 c -0.77,-0.4 -1.64,-0.61 -2.57,-0.61 -3.13,0 -5.66,2.5 -5.66,5.59 0,3.08 2.54,5.58 5.66,5.58 3.13,0 5.66,-2.5 5.66,-5.58 0,-0.46 -0.05,-0.91 -0.16,-1.35 h -5.57 v 1.71 l 4.03,-0.01 c -0.19,1.99 -1.89,3.56 -3.95,3.56 -2.19,0 -3.97,-1.76 -3.97,-3.92 0,-2.17 1.78,-3.92 3.97,-3.92 0.45,0 0.88,0.07 1.28,0.21 z"
   id="path1912" />
						<path
   class="st3"
   d="m 73.08,45.7 c -0.77,-0.4 -1.64,-0.61 -2.57,-0.61 -3.13,0 -5.66,2.5 -5.66,5.59 0,3.08 2.54,5.58 5.66,5.58 3.13,0 5.67,-2.5 5.67,-5.58 0,-0.46 -0.05,-0.91 -0.16,-1.35 h -5.58 v 1.71 l 4.04,-0.01 c -0.19,1.99 -1.89,3.56 -3.96,3.56 -2.19,0 -3.96,-1.76 -3.96,-3.92 0,-2.17 1.78,-3.92 3.96,-3.92 0.45,0 0.88,0.07 1.27,0.21 z"
   id="path1914" />
						<g
   id="g1920">
							<rect
   x="84.029999"
   y="45.02"
   class="st3"
   width="1.8099999"
   height="11.28"
   id="rect1916" />
							<path
   class="st3"
   d="m 89.24,45.02 c -0.62,0 -1.19,0.24 -1.62,0.68 -0.42,0.42 -0.65,0.99 -0.65,1.59 0,1.25 1.02,2.27 2.28,2.27 v 0 c 1.24,0 2.26,-1.02 2.25,-2.28 0,-1.25 -1.01,-2.26 -2.26,-2.26 z m 0.01,0.4 v 0.15 c 0.94,0 1.71,0.77 1.71,1.71 0,0.47 -0.18,0.89 -0.48,1.2 l -0.65,-0.99 c 0.42,-0.08 0.65,-0.35 0.65,-0.77 0,-0.27 -0.14,-0.52 -0.34,-0.63 -0.2,-0.13 -0.42,-0.14 -0.66,-0.14 H 88.3 l 0.01,2.66 h 0.57 v -1.09 h 0.31 l 0.68,1.09 h 0.47 c -0.3,0.25 -0.68,0.4 -1.1,0.4 -0.95,0 -1.74,-0.78 -1.74,-1.73 0,-0.95 0.78,-1.72 1.73,-1.72 z m 0.64,1.3 c 0,0.16 -0.06,0.21 -0.13,0.23 C 89.67,47 89.51,47 89.38,47 h -0.49 v -0.55 h 0.54 c 0.39,0 0.46,0.08 0.46,0.27 z"
   id="path1918" />
						</g>
					</g>
				</g>
			</g>
		</g>
		<g
   id="g1932">
			<path
   class="st3"
   d="m 70.64,124.23 c -29.24,0 -53.02,-23.78 -53.02,-53.02 0,-29.24 23.78,-53.02 53.02,-53.02 29.23,0 53.02,23.78 53.02,53.02 0,29.24 -23.79,53.02 -53.02,53.02 z m 0,-101.56 c -26.77,0 -48.55,21.78 -48.55,48.55 0,26.77 21.78,48.54 48.55,48.54 26.76,0 48.55,-21.78 48.55,-48.54 0,-26.78 -21.79,-48.55 -48.55,-48.55 z"
   id="path1930" />
		</g>
	</g>
</g>
<g
   id="Capa_3"
   class="st0">
	<g
   class="st1"
   id="g1989">
		<g
   id="g1945">
			<g
   id="g1943">
				<g
   id="g1941">
					<path
   class="st4"
   d="m 106.44,58.16 h -7.68 l -5.97,10.23 -0.68,1.12 C 92,69.74 91.93,69.95 91.86,70.15 V 59.4 l 0.7,-1.24 h -6.85 l -0.25,0.44 -0.27,0.03 v 0.46 l -10.24,18.3 h -6.72 c -0.76,0 -0.76,-0.26 -0.76,-0.47 L 67.74,58.16 H 61.07 L 60.8,77.32 c 0,2.01 0.46,3.56 1.38,4.6 0.93,1.06 2.43,1.66 4.58,1.84 0.28,0.02 0.61,0.04 0.99,0.04 H 78.22 L 85.19,71.33 V 83.8 h 6.67 V 71.92 c 0.16,0.44 0.44,1.06 0.96,1.94 l 5.87,9.94 h 7.68 l -7.4,-12.84 z"
   id="path1937" />
					<path
   class="st4"
   d="m 55.58,70.49 c 1.74,-0.99 2.64,-2.8 2.64,-5.33 0,-2.71 -0.66,-4.62 -1.96,-5.66 C 54.98,58.49 52.74,58 49.41,58 H 35.32 v 25.95 h 14.81 c 3.18,0 5.38,-0.55 6.71,-1.67 1.35,-1.14 2.04,-3.09 2.04,-5.79 0,-3 -1.13,-5.04 -3.3,-6 z m -13.74,2.62 h 5.95 c 2.9,0 3.71,0.32 3.92,0.46 0.17,0.11 0.57,0.56 0.57,2.26 0,1.59 -0.37,2.11 -0.58,2.29 -0.24,0.19 -0.96,0.52 -3.05,0.52 l -1.81,0.04 h -5.01 v -5.57 z m 9.21,-5.27 c -0.2,0.15 -0.95,0.49 -3.54,0.49 h -5.68 v -5.06 h 6.73 c 2.7,0 3.05,1.22 3.05,2.29 0.01,1.63 -0.35,2.13 -0.56,2.28 z"
   id="path1939" />
				</g>
			</g>
		</g>
		<g
   id="g1967">
			<g
   id="g1965">
				<g
   id="g1963">
					<polygon
   class="st4"
   points="51.27,55.8 49.78,50.11 51.24,44.46 56.03,44.46 56.03,55.8 "
   id="polygon1947" />
					<g
   id="g1961">
						<path
   class="st4"
   d="m 63.5,44.55 c -3.14,0 -5.67,2.5 -5.67,5.59 0,3.08 2.53,5.58 5.67,5.58 3.12,0 5.66,-2.5 5.66,-5.58 0,-3.1 -2.54,-5.59 -5.66,-5.59 m 0,9.5 c -2.2,0 -3.98,-1.76 -3.98,-3.92 0,-2.17 1.78,-3.92 3.98,-3.92 2.19,0 3.97,1.75 3.97,3.92 0,2.16 -1.78,3.92 -3.97,3.92"
   id="path1949" />
						<path
   class="st4"
   d="m 80.1,45.16 c -0.77,-0.4 -1.64,-0.61 -2.57,-0.61 -3.13,0 -5.66,2.5 -5.66,5.59 0,3.08 2.54,5.58 5.66,5.58 3.13,0 5.66,-2.5 5.66,-5.58 0,-0.46 -0.05,-0.91 -0.16,-1.35 h -5.57 v 1.71 l 4.03,-0.01 c -0.19,1.99 -1.89,3.56 -3.95,3.56 -2.19,0 -3.97,-1.76 -3.97,-3.92 0,-2.17 1.78,-3.92 3.97,-3.92 0.45,0 0.88,0.07 1.28,0.21 z"
   id="path1951" />
						<path
   class="st4"
   d="m 73.08,45.16 c -0.77,-0.4 -1.64,-0.61 -2.57,-0.61 -3.13,0 -5.66,2.5 -5.66,5.59 0,3.08 2.54,5.58 5.66,5.58 3.13,0 5.67,-2.5 5.67,-5.58 0,-0.46 -0.05,-0.91 -0.16,-1.35 h -5.58 v 1.71 l 4.04,-0.01 c -0.19,1.99 -1.89,3.56 -3.96,3.56 -2.19,0 -3.96,-1.76 -3.96,-3.92 0,-2.17 1.78,-3.92 3.96,-3.92 0.45,0 0.88,0.07 1.27,0.21 z"
   id="path1953" />
						<g
   id="g1959">
							<rect
   x="84.029999"
   y="44.470001"
   class="st4"
   width="1.8099999"
   height="11.28"
   id="rect1955" />
							<path
   class="st4"
   d="m 89.25,44.47 c -0.62,0 -1.19,0.24 -1.62,0.68 -0.42,0.42 -0.65,0.99 -0.65,1.59 0,1.25 1.02,2.27 2.28,2.27 v 0 c 1.24,0 2.26,-1.02 2.25,-2.28 -0.01,-1.25 -1.02,-2.26 -2.26,-2.26 z m 0,0.4 v 0.15 c 0.94,0 1.71,0.77 1.71,1.71 0,0.47 -0.18,0.89 -0.48,1.2 l -0.65,-0.99 c 0.42,-0.08 0.65,-0.35 0.65,-0.77 0,-0.27 -0.14,-0.52 -0.34,-0.63 -0.2,-0.13 -0.42,-0.14 -0.66,-0.14 H 88.3 l 0.01,2.66 h 0.57 v -1.09 h 0.31 l 0.68,1.09 h 0.47 c -0.3,0.25 -0.68,0.4 -1.1,0.4 -0.95,0 -1.74,-0.78 -1.74,-1.73 0,-0.95 0.78,-1.72 1.73,-1.72 z m 0.65,1.3 c 0,0.16 -0.06,0.21 -0.13,0.23 -0.1,0.05 -0.25,0.06 -0.38,0.06 H 88.9 V 45.9 h 0.54 c 0.38,0 0.46,0.09 0.46,0.27 z"
   id="path1957" />
						</g>
					</g>
				</g>
			</g>
		</g>
		<g
   id="g1971">
			<path
   class="st4"
   d="m 70.64,124.23 c -29.24,0 -53.02,-23.78 -53.02,-53.02 0,-29.24 23.78,-53.02 53.02,-53.02 29.23,0 53.02,23.78 53.02,53.02 0,29.24 -23.79,53.02 -53.02,53.02 z m 0,-101.56 c -26.77,0 -48.55,21.78 -48.55,48.55 0,26.77 21.78,48.54 48.55,48.54 26.77,0 48.55,-21.78 48.55,-48.54 0,-26.78 -21.78,-48.55 -48.55,-48.55 z"
   id="path1969" />
		</g>
		<g
   id="g1987">
			<path
   class="st5"
   d="m 44.7,94.29 v -6.93 h 2.79 0.35 c 0.94,0 1.57,0.16 1.9,0.49 0.33,0.33 0.49,0.96 0.49,1.89 0,0.93 -0.16,1.54 -0.47,1.85 -0.31,0.3 -0.94,0.46 -1.89,0.46 l -0.3,0.01 H 46.02 V 94.3 H 44.7 Z m 1.31,-3.35 h 1.5 c 0.6,0 0.97,-0.07 1.14,-0.21 0.16,-0.14 0.24,-0.46 0.24,-0.97 0,-0.59 -0.07,-0.95 -0.2,-1.09 -0.13,-0.14 -0.48,-0.21 -1.04,-0.21 h -1.63 v 2.48 z"
   id="path1973" />
			<path
   class="st5"
   d="m 52.1,94.29 v -6.93 h 3.42 c 0.85,0 1.44,0.15 1.76,0.44 0.32,0.29 0.48,0.83 0.48,1.6 0,0.7 -0.08,1.18 -0.24,1.44 -0.16,0.26 -0.49,0.44 -0.99,0.53 v 0.05 c 0.77,0.05 1.15,0.5 1.15,1.35 v 1.53 h -1.32 v -1.26 c 0,-0.71 -0.35,-1.07 -1.06,-1.07 h -1.89 v 2.34 H 52.1 Z m 1.32,-3.45 h 1.89 c 0.45,0 0.75,-0.08 0.9,-0.24 0.15,-0.16 0.22,-0.48 0.22,-0.97 0,-0.49 -0.06,-0.81 -0.19,-0.96 -0.13,-0.14 -0.41,-0.22 -0.84,-0.22 h -1.98 z"
   id="path1975" />
			<path
   class="st5"
   d="m 61.02,88.46 v 1.79 h 3.25 v 0.97 h -3.25 v 1.96 h 3.46 v 1.11 h -4.77 v -6.93 h 4.74 v 1.11 h -3.43 z"
   id="path1977" />
			<path
   class="st5"
   d="m 74.61,87.36 v 6.93 h -1.32 v -3.78 c 0,-0.3 0.01,-0.64 0.02,-1.03 l 0.03,-0.52 0.03,-0.51 h -0.04 l -0.16,0.48 -0.15,0.48 c -0.14,0.43 -0.25,0.75 -0.33,0.96 l -1.52,3.91 h -1.2 L 68.43,90.4 c -0.09,-0.21 -0.2,-0.53 -0.34,-0.96 l -0.16,-0.48 -0.16,-0.48 h -0.04 l 0.02,0.5 0.03,0.51 c 0.02,0.39 0.03,0.73 0.03,1.01 v 3.78 H 66.5 v -6.93 h 2.14 l 1.24,3.21 c 0.08,0.22 0.2,0.54 0.34,0.96 l 0.15,0.48 0.16,0.48 h 0.05 L 70.73,92 70.88,91.52 C 71,91.12 71.11,90.8 71.2,90.57 l 1.22,-3.22 h 2.19 z"
   id="path1979" />
			<path
   class="st5"
   d="m 78.18,87.36 v 6.93 h -1.32 v -6.93 z"
   id="path1981" />
			<path
   class="st5"
   d="m 84.91,87.36 h 1.31 v 4.61 c 0,0.96 -0.18,1.6 -0.55,1.91 -0.37,0.31 -1.13,0.47 -2.27,0.47 -1.21,0 -2,-0.15 -2.38,-0.44 -0.38,-0.29 -0.56,-0.92 -0.56,-1.86 v -4.69 h 1.32 v 4.69 c 0,0.51 0.09,0.84 0.28,0.97 0.18,0.14 0.61,0.21 1.29,0.21 0.69,0 1.13,-0.07 1.31,-0.21 0.18,-0.14 0.27,-0.48 0.27,-1.02 v -4.64 z"
   id="path1983" />
			<path
   class="st5"
   d="m 96.58,87.36 v 6.93 h -1.32 v -3.78 c 0,-0.3 0.01,-0.64 0.03,-1.03 l 0.03,-0.52 0.02,-0.51 H 95.3 l -0.16,0.48 -0.15,0.48 c -0.14,0.43 -0.25,0.75 -0.33,0.96 l -1.52,3.91 h -1.2 L 90.4,90.4 C 90.31,90.19 90.2,89.87 90.06,89.44 L 89.9,88.96 89.74,88.48 H 89.7 l 0.03,0.5 0.02,0.51 c 0.02,0.39 0.03,0.73 0.03,1.01 v 3.78 h -1.32 v -6.93 h 2.14 l 1.24,3.21 c 0.08,0.22 0.2,0.54 0.34,0.96 l 0.15,0.48 0.16,0.48 h 0.05 L 92.69,92 92.84,91.52 c 0.13,-0.4 0.23,-0.72 0.33,-0.95 l 1.22,-3.22 h 2.19 z"
   id="path1985" />
		</g>
	</g>
</g>
<g
   id="Capa_4"
   class="st0">
	<g
   class="st1"
   id="g2080">
		<g
   id="g2012">
			<g
   id="g2010">
				<g
   id="g2008">
					<polygon
   class="st6"
   points="51.27,55.8 49.78,50.11 51.24,44.46 56.03,44.46 56.03,55.8 "
   id="polygon1992" />
					<g
   id="g2006">
						<path
   class="st6"
   d="m 63.5,44.55 c -3.14,0 -5.67,2.5 -5.67,5.59 0,3.08 2.53,5.58 5.67,5.58 3.12,0 5.66,-2.5 5.66,-5.58 0,-3.1 -2.54,-5.59 -5.66,-5.59 m 0,9.5 c -2.2,0 -3.98,-1.76 -3.98,-3.92 0,-2.17 1.78,-3.92 3.98,-3.92 2.19,0 3.97,1.75 3.97,3.92 0,2.16 -1.78,3.92 -3.97,3.92"
   id="path1994" />
						<path
   class="st6"
   d="m 80.1,45.16 c -0.77,-0.4 -1.64,-0.61 -2.57,-0.61 -3.13,0 -5.66,2.5 -5.66,5.59 0,3.08 2.54,5.58 5.66,5.58 3.13,0 5.66,-2.5 5.66,-5.58 0,-0.46 -0.05,-0.91 -0.16,-1.35 h -5.57 v 1.71 l 4.03,-0.01 c -0.19,1.99 -1.89,3.56 -3.95,3.56 -2.19,0 -3.97,-1.76 -3.97,-3.92 0,-2.17 1.78,-3.92 3.97,-3.92 0.45,0 0.88,0.07 1.28,0.21 z"
   id="path1996" />
						<path
   class="st6"
   d="m 73.08,45.16 c -0.77,-0.4 -1.64,-0.61 -2.57,-0.61 -3.13,0 -5.66,2.5 -5.66,5.59 0,3.08 2.54,5.58 5.66,5.58 3.13,0 5.67,-2.5 5.67,-5.58 0,-0.46 -0.05,-0.91 -0.16,-1.35 h -5.58 v 1.71 l 4.04,-0.01 c -0.19,1.99 -1.89,3.56 -3.96,3.56 -2.19,0 -3.96,-1.76 -3.96,-3.92 0,-2.17 1.78,-3.92 3.96,-3.92 0.45,0 0.88,0.07 1.27,0.21 z"
   id="path1998" />
						<g
   id="g2004">
							<rect
   x="84.019997"
   y="44.470001"
   class="st6"
   width="1.8099999"
   height="11.28"
   id="rect2000" />
							<path
   class="st6"
   d="m 89.24,44.47 c -0.62,0 -1.19,0.24 -1.62,0.68 -0.42,0.42 -0.65,0.99 -0.65,1.59 0,1.25 1.02,2.27 2.28,2.27 v 0 c 1.24,0 2.26,-1.02 2.25,-2.28 0,-1.25 -1.01,-2.26 -2.26,-2.26 z m 0.01,0.4 v 0.15 c 0.94,0 1.71,0.77 1.71,1.71 0,0.47 -0.18,0.89 -0.48,1.2 l -0.65,-0.99 c 0.42,-0.08 0.65,-0.35 0.65,-0.77 0,-0.27 -0.14,-0.52 -0.34,-0.63 -0.2,-0.13 -0.42,-0.14 -0.66,-0.14 H 88.3 l 0.01,2.66 h 0.57 v -1.09 h 0.31 l 0.68,1.09 h 0.47 c -0.3,0.25 -0.68,0.4 -1.1,0.4 -0.95,0 -1.74,-0.78 -1.74,-1.73 0,-0.95 0.78,-1.72 1.73,-1.72 z m 0.64,1.3 c 0,0.16 -0.06,0.21 -0.13,0.23 -0.1,0.05 -0.25,0.06 -0.38,0.06 H 88.89 V 45.9 h 0.54 c 0.39,0 0.46,0.09 0.46,0.27 z"
   id="path2002" />
						</g>
					</g>
				</g>
			</g>
		</g>
		<g
   id="g2016">
			<path
   class="st6"
   d="m 70.64,124.23 c -29.24,0 -53.02,-23.78 -53.02,-53.02 0,-29.24 23.78,-53.02 53.02,-53.02 29.23,0 53.02,23.78 53.02,53.02 0,29.24 -23.79,53.02 -53.02,53.02 z m 0,-101.56 c -26.77,0 -48.55,21.78 -48.55,48.55 0,26.77 21.78,48.54 48.55,48.54 26.76,0 48.55,-21.78 48.55,-48.54 0,-26.78 -21.79,-48.55 -48.55,-48.55 z"
   id="path2014" />
		</g>
		<g
   id="g2078">
			<g
   id="g2076">
				<g
   id="g2066">
					<g
   id="g2022">
						<path
   class="st6"
   d="m 46.39,94.15 v -6.11 h 3 c 0.85,0 1.45,0.19 1.79,0.56 0.34,0.37 0.51,1.03 0.51,1.96 0,1.52 -0.14,2.5 -0.41,2.94 -0.28,0.43 -0.89,0.65 -1.86,0.65 z m 1.16,-0.98 h 1.65 c 0.56,0 0.92,-0.13 1.08,-0.38 0.16,-0.25 0.24,-0.82 0.24,-1.69 0,-0.9 -0.07,-1.47 -0.22,-1.72 -0.14,-0.24 -0.49,-0.36 -1.03,-0.36 h -1.72 z"
   id="path2018" />
						<path
   class="st6"
   d="m 49.43,94.31 h -3.21 v -6.44 h 3.17 c 0.9,0 1.54,0.21 1.91,0.61 0.37,0.4 0.56,1.1 0.56,2.07 0,1.57 -0.14,2.56 -0.44,3.03 -0.3,0.5 -0.95,0.73 -1.99,0.73 z m -2.87,-0.33 h 2.88 c 0.9,0 1.48,-0.19 1.72,-0.57 0.26,-0.41 0.39,-1.37 0.39,-2.85 0,-0.89 -0.16,-1.51 -0.47,-1.85 -0.31,-0.34 -0.87,-0.51 -1.67,-0.51 h -2.84 v 5.78 z m 2.65,-0.64 h -1.82 v -4.49 h 1.89 c 0.61,0 0.99,0.15 1.17,0.45 0.16,0.28 0.24,0.87 0.24,1.8 0,0.91 -0.09,1.5 -0.27,1.78 -0.19,0.3 -0.6,0.46 -1.21,0.46 z m -1.49,-0.33 h 1.49 c 0.49,0 0.81,-0.1 0.94,-0.31 0.1,-0.16 0.22,-0.56 0.22,-1.6 0,-1.07 -0.11,-1.48 -0.2,-1.63 -0.14,-0.23 -0.56,-0.28 -0.89,-0.28 h -1.56 z"
   id="path2020" />
					</g>
					<g
   id="g2028">
						<path
   class="st6"
   d="m 55.55,88.04 v 6.11 h -1.16 v -6.11 z"
   id="path2024" />
						<path
   class="st6"
   d="m 55.71,94.31 h -1.49 v -6.44 h 1.49 z m -1.16,-0.33 h 0.83 V 88.2 h -0.83 z"
   id="path2026" />
					</g>
					<g
   id="g2034">
						<path
   class="st6"
   d="m 62.38,88.04 h 1.23 l -1.97,6.11 h -1.78 l -1.95,-6.11 h 1.2 l 1.15,3.46 c 0.11,0.33 0.27,0.89 0.48,1.67 h 0.03 l 0.12,-0.42 c 0.14,-0.52 0.26,-0.93 0.37,-1.24 z"
   id="path2030" />
						<path
   class="st6"
   d="m 61.75,94.31 h -2.02 l -2.06,-6.44 h 1.55 l 1.19,3.57 c 0.09,0.28 0.21,0.68 0.34,1.16 0.13,-0.46 0.24,-0.85 0.34,-1.15 l 1.17,-3.58 h 1.57 l -0.07,0.22 z m -1.78,-0.33 h 1.54 L 63.37,88.2 H 62.5 l -1.1,3.35 c -0.1,0.32 -0.23,0.73 -0.36,1.24 l -0.15,0.54 h -0.25 l -0.07,-0.12 c -0.19,-0.7 -0.36,-1.29 -0.48,-1.66 L 58.98,88.2 h -0.86 z"
   id="path2032" />
					</g>
					<g
   id="g2040">
						<path
   class="st6"
   d="m 67.11,88.04 v 6.11 h -1.16 v -6.11 z"
   id="path2036" />
						<path
   class="st6"
   d="m 67.27,94.31 h -1.49 v -6.44 h 1.49 z m -1.16,-0.33 h 0.83 V 88.2 h -0.83 z"
   id="path2038" />
					</g>
					<g
   id="g2046">
						<path
   class="st6"
   d="m 74.56,89.82 h -1.13 c -0.01,-0.06 -0.01,-0.1 -0.01,-0.12 -0.03,-0.34 -0.1,-0.56 -0.23,-0.65 -0.13,-0.09 -0.42,-0.13 -0.88,-0.13 -0.55,0 -0.91,0.05 -1.08,0.15 -0.17,0.1 -0.25,0.31 -0.25,0.64 0,0.39 0.07,0.62 0.21,0.69 0.14,0.08 0.59,0.14 1.36,0.18 0.91,0.05 1.5,0.18 1.77,0.39 0.27,0.21 0.4,0.65 0.4,1.3 0,0.81 -0.16,1.34 -0.47,1.57 -0.31,0.24 -1.01,0.36 -2.07,0.36 -0.96,0 -1.6,-0.12 -1.91,-0.35 -0.32,-0.23 -0.47,-0.7 -0.47,-1.42 V 92.2 h 1.13 l 0.01,0.13 c 0,0.43 0.07,0.69 0.22,0.78 0.15,0.1 0.56,0.14 1.22,0.14 0.52,0 0.85,-0.05 0.99,-0.16 0.14,-0.11 0.22,-0.36 0.22,-0.77 0,-0.3 -0.05,-0.49 -0.16,-0.59 -0.11,-0.1 -0.34,-0.15 -0.71,-0.18 l -0.64,-0.04 c -0.97,-0.06 -1.58,-0.19 -1.85,-0.4 -0.27,-0.21 -0.4,-0.67 -0.4,-1.37 0,-0.71 0.16,-1.19 0.48,-1.43 0.32,-0.24 0.97,-0.36 1.94,-0.36 0.92,0 1.54,0.11 1.86,0.33 0.32,0.22 0.48,0.65 0.48,1.28 v 0.26 z"
   id="path2042" />
						<path
   class="st6"
   d="m 72.17,94.37 c -1,0 -1.66,-0.12 -2.01,-0.38 -0.36,-0.27 -0.54,-0.78 -0.54,-1.55 l -0.01,-0.39 h 1.45 l 0.01,0.29 c 0,0.5 0.1,0.63 0.15,0.66 0.05,0.03 0.27,0.11 1.13,0.11 0.63,0 0.83,-0.08 0.89,-0.13 0.06,-0.04 0.15,-0.18 0.15,-0.64 0,-0.32 -0.07,-0.43 -0.11,-0.47 -0.04,-0.03 -0.17,-0.11 -0.61,-0.13 L 72.03,91.7 c -1.01,-0.06 -1.65,-0.2 -1.95,-0.44 -0.31,-0.25 -0.46,-0.74 -0.46,-1.49 0,-0.78 0.18,-1.29 0.55,-1.56 0.35,-0.26 1.02,-0.39 2.04,-0.39 0.96,0 1.6,0.12 1.95,0.36 0.37,0.25 0.55,0.73 0.55,1.41 v 0.4 H 73.26 L 73.24,89.84 C 73.23,89.77 73.23,89.72 73.23,89.7 73.2,89.31 73.1,89.21 73.07,89.19 c -0.05,-0.03 -0.21,-0.11 -0.79,-0.11 -0.64,0 -0.89,0.07 -0.99,0.13 -0.11,0.07 -0.17,0.23 -0.17,0.5 0,0.46 0.1,0.54 0.12,0.55 0.04,0.02 0.25,0.1 1.29,0.16 0.95,0.05 1.56,0.19 1.86,0.42 0.31,0.25 0.46,0.72 0.46,1.43 0,0.87 -0.17,1.43 -0.53,1.71 -0.33,0.26 -1.04,0.39 -2.15,0.39 z m -2.23,-1.99 v 0.06 c 0,0.66 0.14,1.09 0.41,1.29 0.2,0.14 0.67,0.32 1.81,0.32 1.28,0 1.78,-0.18 1.98,-0.32 0.26,-0.2 0.4,-0.7 0.4,-1.44 0,-0.6 -0.11,-1 -0.34,-1.18 -0.16,-0.13 -0.59,-0.29 -1.67,-0.35 -1.06,-0.06 -1.32,-0.14 -1.43,-0.2 -0.2,-0.11 -0.29,-0.38 -0.29,-0.84 0,-0.39 0.11,-0.65 0.33,-0.78 0.2,-0.12 0.57,-0.18 1.16,-0.18 0.52,0 0.82,0.05 0.98,0.17 0.17,0.11 0.26,0.36 0.29,0.74 h 0.82 V 89.6 c 0,-0.57 -0.14,-0.96 -0.41,-1.14 -0.29,-0.2 -0.88,-0.3 -1.77,-0.3 -0.93,0 -1.55,0.11 -1.84,0.33 -0.28,0.2 -0.42,0.64 -0.42,1.29 0,0.64 0.11,1.06 0.34,1.24 0.17,0.13 0.61,0.3 1.76,0.37 l 0.64,0.04 c 0.41,0.02 0.66,0.09 0.8,0.22 0.15,0.13 0.22,0.36 0.22,0.71 0,0.46 -0.09,0.75 -0.28,0.9 -0.18,0.14 -0.52,0.2 -1.09,0.2 -0.93,0 -1.19,-0.09 -1.31,-0.17 -0.2,-0.13 -0.29,-0.42 -0.3,-0.89 h -0.79 z"
   id="path2044" />
					</g>
					<g
   id="g2052">
						<path
   class="st6"
   d="m 78.51,88.04 v 6.11 h -1.16 v -6.11 z"
   id="path2048" />
						<path
   class="st6"
   d="m 78.67,94.31 h -1.49 v -6.44 h 1.49 z m -1.15,-0.33 h 0.83 V 88.2 h -0.83 z"
   id="path2050" />
					</g>
					<g
   id="g2058">
						<path
   class="st6"
   d="m 83.97,87.98 c 1.11,0 1.83,0.19 2.15,0.55 0.32,0.37 0.48,1.19 0.48,2.47 0,1.4 -0.16,2.28 -0.48,2.65 -0.32,0.37 -1.1,0.55 -2.33,0.55 -1.11,0 -1.83,-0.18 -2.15,-0.54 -0.32,-0.36 -0.49,-1.15 -0.49,-2.38 0,-1.46 0.16,-2.37 0.48,-2.74 0.31,-0.37 1.09,-0.56 2.34,-0.56 z m -0.09,1 c -0.78,0 -1.23,0.1 -1.37,0.3 -0.13,0.2 -0.2,0.89 -0.2,2.08 0,0.88 0.07,1.41 0.23,1.59 0.15,0.18 0.61,0.27 1.36,0.27 0.72,0 1.15,-0.1 1.29,-0.3 0.14,-0.2 0.21,-0.81 0.21,-1.83 0,-1.03 -0.07,-1.63 -0.2,-1.82 -0.13,-0.2 -0.57,-0.29 -1.32,-0.29 z"
   id="path2054" />
						<path
   class="st6"
   d="m 83.78,94.37 c -1.17,0 -1.91,-0.19 -2.28,-0.59 -0.36,-0.4 -0.53,-1.21 -0.53,-2.49 0,-1.51 0.17,-2.44 0.52,-2.85 0.35,-0.42 1.16,-0.62 2.48,-0.62 1.17,0 1.91,0.2 2.27,0.61 0.35,0.41 0.52,1.25 0.52,2.58 0,1.45 -0.17,2.35 -0.53,2.75 -0.35,0.41 -1.16,0.61 -2.45,0.61 z m 0.19,-6.22 c -1.19,0 -1.94,0.17 -2.23,0.5 -0.2,0.23 -0.44,0.88 -0.44,2.64 0,1.46 0.24,2.04 0.45,2.27 0.2,0.22 0.72,0.49 2.03,0.49 1.47,0 2.01,-0.27 2.21,-0.49 0.2,-0.23 0.44,-0.85 0.44,-2.54 0,-1.53 -0.24,-2.13 -0.44,-2.37 -0.28,-0.33 -0.98,-0.5 -2.02,-0.5 z m -0.06,5.23 c -0.82,0 -1.29,-0.1 -1.48,-0.33 -0.12,-0.14 -0.27,-0.46 -0.27,-1.7 0,-1.62 0.12,-2.01 0.22,-2.17 0.17,-0.25 0.65,-0.37 1.5,-0.37 0.84,0 1.29,0.11 1.47,0.35 0.11,0.15 0.23,0.5 0.23,1.92 0,1.4 -0.13,1.77 -0.24,1.93 -0.19,0.25 -0.64,0.37 -1.43,0.37 z m -0.03,-4.24 c -1,0 -1.19,0.17 -1.23,0.22 -0.06,0.1 -0.17,0.48 -0.17,1.99 0,1.14 0.13,1.41 0.19,1.48 0.05,0.06 0.28,0.21 1.24,0.21 0.9,0 1.11,-0.16 1.16,-0.23 0.07,-0.1 0.18,-0.45 0.18,-1.74 0,-1.34 -0.12,-1.65 -0.17,-1.72 -0.04,-0.05 -0.23,-0.21 -1.2,-0.21 z"
   id="path2056" />
					</g>
					<g
   id="g2064">
						<path
   class="st6"
   d="m 94.89,88.04 v 6.11 H 92.92 L 91.17,90.8 c -0.09,-0.16 -0.22,-0.46 -0.41,-0.88 l -0.2,-0.44 -0.19,-0.44 h -0.05 l 0.02,0.41 0.01,0.4 0.01,0.8 v 3.51 H 89.2 v -6.11 h 1.97 l 1.59,3.1 c 0.14,0.28 0.3,0.61 0.48,1 l 0.23,0.5 0.23,0.5 h 0.04 l -0.01,-0.4 -0.01,-0.39 -0.01,-0.79 v -3.52 h 1.18 z"
   id="path2060" />
						<path
   class="st6"
   d="m 95.05,94.31 h -2.23 l -1.79,-3.44 c -0.08,-0.15 -0.2,-0.41 -0.41,-0.89 l -0.09,-0.19 v 0.05 l 0.01,0.8 v 3.67 h -1.49 v -6.44 h 2.23 l 0.05,0.09 1.59,3.1 c 0.14,0.28 0.31,0.61 0.49,1.01 l 0.17,0.36 v -0.08 l -0.01,-0.79 v -3.69 h 1.49 v 6.44 z m -2.03,-0.33 h 1.7 V 88.2 h -0.83 l 0.04,5.1 H 93.61 L 93.1,92.2 c -0.18,-0.39 -0.34,-0.72 -0.48,-1 l -1.55,-3.01 h -1.7 v 5.78 h 0.83 l -0.05,-5.11 h 0.32 l 0.43,0.98 c 0.15,0.35 0.31,0.69 0.4,0.87 z"
   id="path2062" />
					</g>
				</g>
				<g
   id="g2074">
					<path
   class="st6"
   d="m 46.42,68.02 c 0.49,0 0.74,-0.31 0.74,-0.93 v -0.93 c 0,-0.62 -0.25,-0.93 -0.74,-0.93 H 35.28 v 18.6 h -7.4 L 27.86,57.8 h 22.27 c 2.97,0.02 4.45,2.49 4.45,7.42 V 68 c 0,4.65 -1.31,7.12 -3.94,7.4 l 3.94,8.37 H 45.45 L 40.77,73.61 V 68 h 5.65 z"
   id="path2068" />
					<path
   class="st6"
   d="m 94.66,76.37 h 11.13 c 0.5,0 0.74,-0.31 0.74,-0.93 v -9.28 c 0,-0.62 -0.25,-0.93 -0.74,-0.93 H 77.93 v -7.42 h 31.57 c 2.97,0.02 4.45,2.49 4.45,7.42 v 11.14 c 0,4.94 -1.48,7.42 -4.45,7.42 H 87.23 V 68.02 h 7.43 z"
   id="path2070" />
					<path
   class="st6"
   d="M 65.68,65.25 H 84.27 V 57.82 H 61.96 c -2.98,0.01 -4.46,2.49 -4.46,7.43 v 11.16 c 0,4.96 1.48,7.44 4.46,7.44 H 84.27 V 76.41 H 65.68 c -0.5,0 -0.74,-0.31 -0.74,-0.93 V 73.62 H 82.79 V 68.05 H 64.94 v -1.86 c 0,-0.63 0.24,-0.94 0.74,-0.94 z"
   id="path2072" />
				</g>
			</g>
		</g>
	</g>
</g>
<g
   id="Capa_5"
   class="st0">
	<g
   class="st1"
   id="g2215">
		<g
   id="g2115">
			<g
   id="g2113">
				<g
   id="g2111">
					<g
   id="g2109">
						<polygon
   class="st7"
   points="51.27,55.79 49.78,50.1 51.24,44.45 56.03,44.45 56.03,55.79 "
   id="polygon2083" />
						<g
   id="g2107">
							<g
   id="g2089">
								<g
   id="g2087">
									<path
   class="st7"
   d="m 63.5,44.54 c -3.14,0 -5.67,2.5 -5.67,5.59 0,3.08 2.53,5.58 5.67,5.58 3.12,0 5.66,-2.5 5.66,-5.58 0,-3.1 -2.54,-5.59 -5.66,-5.59 m 0,9.5 c -2.2,0 -3.98,-1.76 -3.98,-3.92 0,-2.17 1.78,-3.92 3.98,-3.92 2.19,0 3.97,1.75 3.97,3.92 0,2.16 -1.78,3.92 -3.97,3.92"
   id="path2085" />
								</g>
							</g>
							<g
   id="g2093">
								<path
   class="st7"
   d="m 80.1,45.15 c -0.77,-0.4 -1.64,-0.61 -2.57,-0.61 -3.13,0 -5.66,2.5 -5.66,5.59 0,3.08 2.54,5.58 5.66,5.58 3.13,0 5.66,-2.5 5.66,-5.58 0,-0.46 -0.05,-0.91 -0.16,-1.35 h -5.57 v 1.71 l 4.03,-0.01 c -0.19,1.99 -1.89,3.56 -3.95,3.56 -2.19,0 -3.97,-1.76 -3.97,-3.92 0,-2.17 1.78,-3.92 3.97,-3.92 0.45,0 0.88,0.07 1.28,0.21 z"
   id="path2091" />
							</g>
							<g
   id="g2097">
								<path
   class="st7"
   d="m 73.08,45.15 c -0.77,-0.4 -1.64,-0.61 -2.57,-0.61 -3.13,0 -5.66,2.5 -5.66,5.59 0,3.08 2.54,5.58 5.66,5.58 3.13,0 5.67,-2.5 5.67,-5.58 0,-0.46 -0.05,-0.91 -0.16,-1.35 h -5.58 v 1.71 l 4.04,-0.01 c -0.19,1.99 -1.89,3.56 -3.96,3.56 -2.19,0 -3.96,-1.76 -3.96,-3.92 0,-2.17 1.78,-3.92 3.96,-3.92 0.45,0 0.88,0.07 1.27,0.21 z"
   id="path2095" />
							</g>
							<g
   id="g2105">
								<g
   id="g2101">
									<rect
   x="84.029999"
   y="44.459999"
   class="st7"
   width="1.8099999"
   height="11.28"
   id="rect2099" />
								</g>
								<path
   class="st7"
   d="m 89.24,44.46 c -0.62,0 -1.19,0.24 -1.62,0.67 -0.42,0.42 -0.65,0.99 -0.65,1.59 0,1.25 1.02,2.27 2.28,2.27 v 0 c 1.24,0 2.26,-1.02 2.25,-2.28 0,-1.24 -1.01,-2.25 -2.26,-2.25 z m 0.01,0.4 v 0.15 c 0.94,0 1.71,0.77 1.71,1.71 0,0.47 -0.18,0.89 -0.48,1.2 l -0.65,-0.99 c 0.42,-0.08 0.65,-0.35 0.65,-0.77 0,-0.27 -0.14,-0.52 -0.34,-0.63 -0.2,-0.13 -0.42,-0.14 -0.66,-0.14 H 88.3 l 0.01,2.66 h 0.57 v -1.09 h 0.31 l 0.68,1.09 h 0.47 c -0.3,0.25 -0.68,0.4 -1.1,0.4 -0.95,0 -1.74,-0.78 -1.74,-1.73 0,-0.95 0.78,-1.72 1.73,-1.72 z m 0.64,1.3 c 0,0.16 -0.06,0.21 -0.13,0.23 -0.1,0.05 -0.25,0.06 -0.38,0.06 H 88.89 V 45.9 h 0.54 c 0.39,-0.01 0.46,0.08 0.46,0.26 z"
   id="path2103" />
							</g>
						</g>
					</g>
				</g>
			</g>
		</g>
		<g
   id="g2121">
			<g
   id="g2119">
				<path
   class="st7"
   d="m 70.64,124.23 c -29.24,0 -53.02,-23.78 -53.02,-53.02 0,-29.24 23.78,-53.02 53.02,-53.02 29.23,0 53.02,23.78 53.02,53.02 0,29.24 -23.79,53.02 -53.02,53.02 z m 0,-101.56 c -26.77,0 -48.55,21.78 -48.55,48.55 0,26.77 21.78,48.54 48.55,48.54 26.76,0 48.55,-21.78 48.55,-48.54 0,-26.78 -21.78,-48.55 -48.55,-48.55 z"
   id="path2117" />
			</g>
		</g>
		<g
   id="g2175">
			<g
   id="g2173">
				<g
   id="g2171">
					<g
   id="g2127">
						<path
   class="st7"
   d="m 46.39,93.33 v -6.11 h 3 c 0.85,0 1.45,0.19 1.79,0.56 0.34,0.37 0.51,1.03 0.51,1.96 0,1.52 -0.14,2.5 -0.41,2.94 -0.28,0.43 -0.89,0.65 -1.86,0.65 z m 1.16,-0.98 h 1.65 c 0.56,0 0.92,-0.13 1.08,-0.38 0.16,-0.25 0.24,-0.82 0.24,-1.69 0,-0.9 -0.07,-1.47 -0.22,-1.72 -0.14,-0.24 -0.49,-0.36 -1.03,-0.36 h -1.73 v 4.15 z"
   id="path2123" />
						<path
   class="st7"
   d="m 49.43,93.49 h -3.21 v -6.44 h 3.17 c 0.9,0 1.54,0.21 1.91,0.61 0.37,0.4 0.56,1.1 0.56,2.07 0,1.57 -0.14,2.56 -0.44,3.03 -0.3,0.49 -0.95,0.73 -1.99,0.73 z m -2.87,-0.33 h 2.88 c 0.9,0 1.48,-0.19 1.72,-0.57 0.26,-0.41 0.39,-1.37 0.39,-2.85 0,-0.89 -0.16,-1.51 -0.47,-1.85 -0.31,-0.34 -0.87,-0.51 -1.67,-0.51 h -2.84 v 5.78 z m 2.65,-0.64 h -1.82 v -4.49 h 1.89 c 0.61,0 0.99,0.15 1.17,0.45 0.16,0.28 0.24,0.87 0.24,1.8 0,0.91 -0.09,1.5 -0.27,1.78 -0.19,0.3 -0.6,0.46 -1.21,0.46 z m -1.49,-0.33 h 1.49 c 0.49,0 0.81,-0.1 0.94,-0.31 0.1,-0.16 0.22,-0.56 0.22,-1.6 0,-1.08 -0.11,-1.48 -0.2,-1.63 -0.14,-0.23 -0.56,-0.28 -0.89,-0.28 h -1.56 z"
   id="path2125" />
					</g>
					<g
   id="g2133">
						<path
   class="st7"
   d="m 55.55,87.21 v 6.11 h -1.16 v -6.11 z"
   id="path2129" />
						<path
   class="st7"
   d="m 55.71,93.49 h -1.49 v -6.44 h 1.49 z m -1.16,-0.33 h 0.83 v -5.78 h -0.83 z"
   id="path2131" />
					</g>
					<g
   id="g2139">
						<path
   class="st7"
   d="m 62.38,87.21 h 1.23 l -1.97,6.11 h -1.78 l -1.95,-6.11 h 1.2 l 1.15,3.46 c 0.11,0.33 0.27,0.89 0.48,1.67 h 0.03 l 0.12,-0.42 c 0.14,-0.52 0.26,-0.93 0.37,-1.24 z"
   id="path2135" />
						<path
   class="st7"
   d="m 61.75,93.49 h -2.02 l -2.06,-6.44 h 1.55 l 1.19,3.58 c 0.09,0.28 0.21,0.68 0.34,1.16 0.13,-0.46 0.24,-0.85 0.34,-1.15 l 1.17,-3.58 h 1.57 l -0.07,0.22 z m -1.78,-0.33 h 1.54 l 1.86,-5.78 H 62.5 l -1.1,3.35 c -0.1,0.32 -0.23,0.73 -0.36,1.24 l -0.15,0.54 h -0.25 l -0.07,-0.12 c -0.19,-0.7 -0.36,-1.29 -0.48,-1.66 l -1.11,-3.35 h -0.86 z"
   id="path2137" />
					</g>
					<g
   id="g2145">
						<path
   class="st7"
   d="m 67.11,87.21 v 6.11 h -1.16 v -6.11 z"
   id="path2141" />
						<path
   class="st7"
   d="m 67.27,93.49 h -1.49 v -6.44 h 1.49 z m -1.16,-0.33 h 0.83 v -5.78 h -0.83 z"
   id="path2143" />
					</g>
					<g
   id="g2151">
						<path
   class="st7"
   d="m 74.56,89 h -1.13 c -0.01,-0.06 -0.01,-0.1 -0.01,-0.12 -0.02,-0.34 -0.1,-0.56 -0.23,-0.65 -0.12,-0.09 -0.42,-0.13 -0.88,-0.13 -0.55,0 -0.91,0.05 -1.08,0.15 -0.17,0.1 -0.25,0.31 -0.25,0.64 0,0.39 0.07,0.62 0.21,0.69 0.14,0.08 0.59,0.14 1.36,0.18 0.91,0.05 1.5,0.18 1.77,0.39 0.27,0.21 0.4,0.65 0.4,1.3 0,0.81 -0.16,1.34 -0.47,1.57 -0.31,0.24 -1.01,0.36 -2.07,0.36 -0.96,0 -1.6,-0.12 -1.91,-0.35 -0.32,-0.23 -0.47,-0.7 -0.47,-1.42 v -0.22 h 1.13 l 0.01,0.13 c 0,0.43 0.07,0.69 0.22,0.78 0.15,0.1 0.56,0.14 1.22,0.14 0.52,0 0.85,-0.05 0.99,-0.16 0.14,-0.11 0.22,-0.36 0.22,-0.77 0,-0.3 -0.05,-0.49 -0.16,-0.59 -0.11,-0.1 -0.34,-0.15 -0.71,-0.18 L 72.08,90.7 c -0.97,-0.06 -1.58,-0.19 -1.85,-0.4 -0.27,-0.21 -0.4,-0.67 -0.4,-1.37 0,-0.71 0.16,-1.19 0.48,-1.42 0.32,-0.24 0.97,-0.36 1.94,-0.36 0.92,0 1.54,0.11 1.86,0.33 0.32,0.22 0.48,0.65 0.48,1.28 V 89 Z"
   id="path2147" />
						<path
   class="st7"
   d="m 72.16,93.55 c -1,0 -1.66,-0.13 -2.01,-0.38 -0.36,-0.27 -0.54,-0.78 -0.54,-1.55 L 69.6,91.23 h 1.45 l 0.01,0.29 c 0,0.5 0.1,0.63 0.15,0.66 0.05,0.03 0.27,0.11 1.13,0.11 0.63,0 0.83,-0.08 0.89,-0.13 0.06,-0.04 0.15,-0.18 0.15,-0.64 0,-0.32 -0.07,-0.43 -0.11,-0.47 -0.04,-0.03 -0.17,-0.11 -0.61,-0.13 l -0.64,-0.04 c -1.01,-0.06 -1.65,-0.2 -1.95,-0.44 -0.31,-0.25 -0.46,-0.74 -0.46,-1.49 0,-0.78 0.18,-1.29 0.55,-1.56 0.35,-0.26 1.02,-0.39 2.04,-0.39 0.96,0 1.6,0.12 1.95,0.36 0.37,0.25 0.55,0.73 0.55,1.41 v 0.4 h -1.45 l -0.02,-0.15 c -0.01,-0.07 -0.01,-0.12 -0.01,-0.14 -0.03,-0.39 -0.13,-0.49 -0.16,-0.51 -0.05,-0.03 -0.21,-0.11 -0.79,-0.11 -0.64,0 -0.89,0.07 -0.99,0.13 -0.11,0.07 -0.17,0.23 -0.17,0.5 0,0.46 0.1,0.54 0.12,0.55 0.04,0.02 0.25,0.1 1.29,0.16 0.95,0.05 1.56,0.19 1.86,0.42 0.31,0.25 0.46,0.72 0.46,1.43 0,0.87 -0.17,1.43 -0.53,1.71 -0.32,0.26 -1.03,0.39 -2.15,0.39 z m -2.22,-1.99 v 0.06 c 0,0.66 0.14,1.09 0.41,1.29 0.2,0.14 0.67,0.32 1.81,0.32 1.28,0 1.78,-0.18 1.98,-0.32 0.26,-0.2 0.4,-0.7 0.4,-1.44 0,-0.6 -0.11,-1 -0.34,-1.18 C 74.04,90.16 73.61,90 72.53,89.94 71.47,89.88 71.21,89.8 71.1,89.74 70.9,89.63 70.81,89.36 70.81,88.9 c 0,-0.39 0.11,-0.65 0.33,-0.78 0.2,-0.12 0.57,-0.18 1.16,-0.18 0.52,0 0.82,0.05 0.98,0.17 0.17,0.11 0.26,0.36 0.29,0.74 h 0.82 v -0.07 c 0,-0.57 -0.14,-0.96 -0.41,-1.14 -0.29,-0.2 -0.88,-0.3 -1.77,-0.3 -0.93,0 -1.55,0.11 -1.84,0.33 -0.28,0.2 -0.42,0.64 -0.42,1.29 0,0.64 0.11,1.06 0.34,1.24 0.17,0.13 0.61,0.3 1.76,0.37 l 0.64,0.04 c 0.41,0.02 0.66,0.09 0.8,0.22 0.15,0.13 0.22,0.36 0.22,0.71 0,0.46 -0.09,0.75 -0.28,0.9 -0.18,0.14 -0.52,0.2 -1.09,0.2 -0.93,0 -1.19,-0.09 -1.31,-0.17 -0.2,-0.13 -0.29,-0.42 -0.3,-0.89 h -0.79 z"
   id="path2149" />
					</g>
					<g
   id="g2157">
						<path
   class="st7"
   d="m 78.51,87.21 v 6.11 h -1.16 v -6.11 z"
   id="path2153" />
						<path
   class="st7"
   d="m 78.67,93.49 h -1.49 v -6.44 h 1.49 z m -1.16,-0.33 h 0.83 v -5.78 h -0.83 z"
   id="path2155" />
					</g>
					<g
   id="g2163">
						<path
   class="st7"
   d="m 83.97,87.16 c 1.11,0 1.83,0.19 2.15,0.55 0.32,0.37 0.48,1.19 0.48,2.48 0,1.4 -0.16,2.28 -0.48,2.65 -0.32,0.37 -1.1,0.55 -2.33,0.55 -1.11,0 -1.83,-0.18 -2.16,-0.54 -0.32,-0.36 -0.49,-1.15 -0.49,-2.38 0,-1.46 0.16,-2.37 0.48,-2.74 0.32,-0.39 1.1,-0.57 2.35,-0.57 z m -0.09,0.99 c -0.78,0 -1.23,0.1 -1.37,0.3 -0.13,0.2 -0.2,0.89 -0.2,2.08 0,0.88 0.08,1.41 0.23,1.59 0.15,0.18 0.61,0.27 1.36,0.27 0.72,0 1.15,-0.1 1.29,-0.3 0.14,-0.2 0.21,-0.81 0.21,-1.83 0,-1.03 -0.07,-1.63 -0.2,-1.82 -0.13,-0.19 -0.57,-0.29 -1.32,-0.29 z"
   id="path2159" />
						<path
   class="st7"
   d="m 83.78,93.55 c -1.17,0 -1.91,-0.19 -2.28,-0.59 -0.36,-0.4 -0.53,-1.21 -0.53,-2.49 0,-1.51 0.17,-2.44 0.52,-2.85 0.35,-0.42 1.16,-0.62 2.48,-0.62 1.17,0 1.91,0.2 2.27,0.61 0.35,0.41 0.52,1.25 0.52,2.58 0,1.45 -0.17,2.35 -0.52,2.75 -0.36,0.41 -1.17,0.61 -2.46,0.61 z m 0.19,-6.23 c -1.19,0 -1.94,0.17 -2.23,0.5 -0.2,0.23 -0.44,0.88 -0.44,2.64 0,1.46 0.24,2.04 0.45,2.27 0.2,0.22 0.72,0.49 2.03,0.49 1.47,0 2.01,-0.27 2.21,-0.49 0.2,-0.23 0.44,-0.85 0.44,-2.54 0,-1.53 -0.24,-2.13 -0.44,-2.37 -0.28,-0.32 -0.98,-0.5 -2.02,-0.5 z m -0.06,5.23 c -0.82,0 -1.29,-0.1 -1.49,-0.33 -0.12,-0.14 -0.27,-0.46 -0.27,-1.7 0,-1.62 0.12,-2.01 0.22,-2.17 0.17,-0.25 0.65,-0.37 1.5,-0.37 0.84,0 1.29,0.11 1.47,0.35 0.11,0.15 0.24,0.5 0.24,1.92 0,1.4 -0.13,1.77 -0.24,1.93 -0.19,0.25 -0.64,0.37 -1.43,0.37 z m -0.03,-4.23 c -1,0 -1.19,0.17 -1.23,0.22 -0.06,0.1 -0.17,0.48 -0.17,1.99 0,1.14 0.13,1.41 0.19,1.48 0.05,0.06 0.28,0.21 1.24,0.21 0.9,0 1.11,-0.16 1.16,-0.23 0.07,-0.1 0.18,-0.45 0.18,-1.74 0,-1.34 -0.12,-1.65 -0.17,-1.72 -0.04,-0.05 -0.23,-0.21 -1.2,-0.21 z"
   id="path2161" />
					</g>
					<g
   id="g2169">
						<path
   class="st7"
   d="m 94.88,87.21 v 6.11 h -1.97 l -1.75,-3.35 c -0.09,-0.16 -0.22,-0.46 -0.41,-0.88 l -0.2,-0.44 -0.19,-0.44 h -0.04 l 0.02,0.41 0.01,0.4 0.01,0.8 v 3.51 H 89.2 v -6.11 h 1.97 l 1.59,3.1 c 0.14,0.28 0.3,0.61 0.49,1 l 0.23,0.5 0.23,0.5 h 0.04 l -0.01,-0.4 -0.01,-0.39 -0.01,-0.79 v -3.52 h 1.16 z"
   id="path2165" />
						<path
   class="st7"
   d="m 95.05,93.49 h -2.23 l -1.79,-3.44 c -0.08,-0.15 -0.2,-0.41 -0.41,-0.89 l -0.09,-0.19 v 0.05 l 0.01,0.8 v 3.67 h -1.49 v -6.44 h 2.23 l 0.05,0.09 1.59,3.1 c 0.14,0.28 0.31,0.61 0.49,1.01 l 0.17,0.36 v -0.08 l -0.01,-0.79 v -3.69 h 1.49 v 6.44 z m -2.03,-0.33 h 1.7 v -5.78 h -0.83 l 0.04,5.1 h -0.32 l -0.51,-1.1 c -0.18,-0.39 -0.34,-0.72 -0.48,-1 l -1.55,-3.01 h -1.7 v 5.78 h 0.83 l -0.05,-5.11 h 0.33 l 0.43,0.98 c 0.15,0.35 0.31,0.69 0.4,0.87 z"
   id="path2167" />
					</g>
				</g>
			</g>
		</g>
		<g
   id="g2213">
			<g
   id="g2181">
				<path
   class="st7"
   d="M 24.72,77.01 V 65.05 c 0,-1.88 0.37,-3.18 1.12,-3.88 0.75,-0.7 2.07,-1.06 3.98,-1.06 h 9.13 v 4.69 h -8.48 c -0.6,0.06 -0.96,0.38 -1.09,0.96 v 9.51 c 0,0.68 0.07,1.14 0.22,1.37 0.21,0.35 0.6,0.53 1.18,0.53 h 8.17 v 4.69 h -9.82 c -0.52,0 -1.07,-0.11 -1.65,-0.34 -1.83,-0.73 -2.76,-2.23 -2.76,-4.51 z"
   id="path2177" />
				<path
   class="st7"
   d="M 39.35,82.25 H 29.14 c -0.57,0 -1.17,-0.12 -1.79,-0.37 -2,-0.79 -3.02,-2.43 -3.02,-4.88 V 65.05 c 0,-2.02 0.41,-3.38 1.24,-4.17 0.83,-0.78 2.22,-1.17 4.25,-1.17 h 9.53 v 5.49 h -8.88 c -0.37,0.04 -0.59,0.22 -0.69,0.61 v 9.46 c 0,0.82 0.11,1.08 0.15,1.15 0.06,0.09 0.2,0.34 0.84,0.34 h 8.57 v 5.49 z M 29.82,60.51 c -1.79,0 -3.04,0.32 -3.7,0.95 -0.66,0.62 -0.99,1.83 -0.99,3.59 v 11.96 c 0,2.12 0.82,3.47 2.51,4.13 0.53,0.21 1.03,0.31 1.5,0.31 h 9.42 v -3.89 h -7.77 c -0.73,0 -1.24,-0.24 -1.53,-0.73 -0.18,-0.29 -0.27,-0.79 -0.27,-1.57 L 29,65.67 c 0.16,-0.76 0.66,-1.2 1.44,-1.28 h 8.12 V 60.5 h -8.74 z"
   id="path2179" />
			</g>
			<g
   id="g2187">
				<path
   class="st7"
   d="M 41.03,81.85 V 60.11 h 4.66 v 8.48 h 6.62 v -8.48 h 4.66 v 21.75 h -4.66 v -8.57 h -6.62 v 8.57 h -4.66 z"
   id="path2183" />
				<path
   class="st7"
   d="m 57.37,82.25 h -5.46 v -8.57 h -5.82 v 8.57 H 40.63 V 59.71 h 5.46 v 8.48 h 5.82 v -8.48 h 5.46 z m -4.66,-0.8 h 3.86 V 60.51 h -3.86 v 8.48 h -7.42 v -8.48 h -3.86 v 20.95 h 3.86 v -8.57 h 7.42 z"
   id="path2185" />
			</g>
			<g
   id="g2193">
				<path
   class="st7"
   d="M 59.52,81.85 V 60.11 h 4.66 v 21.75 h -4.66 z"
   id="path2189" />
				<path
   class="st7"
   d="M 64.58,82.25 H 59.12 V 59.71 h 5.46 z m -4.66,-0.8 h 3.86 V 60.51 h -3.86 z"
   id="path2191" />
			</g>
			<g
   id="g2199">
				<path
   class="st7"
   d="M 66.72,81.85 V 64.43 c 0,-1.26 0.32,-2.32 0.96,-3.17 0.7,-0.93 1.67,-1.4 2.89,-1.4 0.52,0 1.04,0.09 1.55,0.28 1.26,0.46 2.12,1.55 2.58,3.29 L 78,76.02 V 60.11 h 4.44 V 78.1 c 0,1.12 -0.36,2.07 -1.07,2.84 -0.71,0.77 -1.62,1.19 -2.71,1.23 -2.07,0.06 -3.44,-1.17 -4.13,-3.7 L 71.2,65.97 v 15.88 z"
   id="path2195" />
				<path
   class="st7"
   d="m 78.51,82.57 c -2.18,0 -3.65,-1.34 -4.37,-4 L 71.59,69.02 V 82.25 H 66.32 V 64.43 c 0,-1.35 0.35,-2.49 1.04,-3.41 0.78,-1.03 1.86,-1.56 3.21,-1.56 0.56,0 1.13,0.1 1.69,0.3 1.39,0.5 2.34,1.7 2.83,3.57 l 2.51,9.58 v -13.2 h 5.24 V 78.1 c 0,1.22 -0.4,2.26 -1.18,3.11 -0.78,0.85 -1.79,1.31 -2.99,1.36 z M 70.8,62.92 74.92,78.36 c 0.62,2.29 1.79,3.4 3.59,3.4 h 0.14 c 0.99,-0.04 1.79,-0.4 2.43,-1.1 0.65,-0.71 0.97,-1.55 0.97,-2.57 V 60.51 H 78.4 V 79.13 L 74.32,63.54 c -0.42,-1.62 -1.19,-2.61 -2.33,-3.02 -0.47,-0.17 -0.95,-0.26 -1.42,-0.26 -1.1,0 -1.94,0.41 -2.57,1.24 -0.59,0.77 -0.88,1.76 -0.88,2.93 v 17.03 h 3.67 V 62.92 Z"
   id="path2197" />
			</g>
			<g
   id="g2205">
				<path
   class="st7"
   d="m 85.02,64.8 c 0,-0.35 0.04,-0.74 0.12,-1.15 0.27,-1.28 0.81,-2.21 1.61,-2.76 0.74,-0.52 1.8,-0.78 3.16,-0.78 h 5.52 c 3.25,0 4.87,1.56 4.87,4.69 v 12.36 c 0,3.13 -1.64,4.69 -4.91,4.69 h -5.5 c -1.43,0 -2.5,-0.24 -3.2,-0.72 -0.79,-0.56 -1.3,-1.51 -1.55,-2.85 -0.08,-0.46 -0.12,-0.83 -0.12,-1.13 z m 4.66,10.87 c 0,0.99 0.52,1.49 1.55,1.49 h 2.86 c 0.56,0 0.96,-0.09 1.2,-0.26 0.24,-0.18 0.36,-0.53 0.36,-1.07 v -9.54 c 0,-0.56 -0.12,-0.95 -0.35,-1.16 -0.23,-0.22 -0.64,-0.33 -1.22,-0.33 h -2.89 c -0.59,0 -0.98,0.1 -1.19,0.31 -0.21,0.21 -0.31,0.6 -0.31,1.18 v 9.38 z"
   id="path2201" />
				<path
   class="st7"
   d="m 95.4,82.25 h -5.5 c -1.53,0 -2.65,-0.26 -3.43,-0.79 -0.88,-0.63 -1.45,-1.67 -1.72,-3.1 -0.09,-0.49 -0.13,-0.88 -0.13,-1.2 V 64.8 c 0,-0.37 0.04,-0.79 0.13,-1.23 0.29,-1.39 0.89,-2.4 1.78,-3.02 0.81,-0.56 1.95,-0.85 3.39,-0.85 h 5.52 c 3.45,0 5.27,1.76 5.27,5.09 v 12.36 c 0,3.34 -1.84,5.1 -5.31,5.1 z M 89.92,60.51 c -1.27,0 -2.26,0.24 -2.93,0.7 -0.71,0.5 -1.2,1.34 -1.45,2.52 -0.08,0.38 -0.11,0.75 -0.11,1.07 v 12.36 c 0,0.27 0.04,0.62 0.12,1.05 0.23,1.22 0.7,2.09 1.39,2.59 0.63,0.43 1.63,0.65 2.97,0.65 h 5.5 c 3.03,0 4.51,-1.4 4.51,-4.29 V 64.8 c 0,-2.89 -1.46,-4.29 -4.47,-4.29 z m 4.17,17.05 h -2.86 c -1.26,0 -1.95,-0.67 -1.95,-1.89 v -9.38 c 0,-0.7 0.14,-1.18 0.43,-1.46 0.29,-0.29 0.77,-0.43 1.47,-0.43 h 2.89 c 0.7,0 1.19,0.14 1.5,0.43 0.32,0.3 0.47,0.78 0.47,1.46 v 9.54 c 0,0.68 -0.17,1.14 -0.52,1.39 -0.31,0.23 -0.77,0.34 -1.43,0.34 z M 91.19,65.2 c -0.64,0 -0.85,0.14 -0.91,0.2 -0.06,0.06 -0.19,0.26 -0.19,0.9 v 9.38 c 0,0.77 0.33,1.09 1.15,1.09 h 2.86 c 0.61,0 0.86,-0.12 0.96,-0.19 0.12,-0.09 0.19,-0.36 0.19,-0.75 v -9.54 c 0,-0.43 -0.08,-0.74 -0.22,-0.87 -0.09,-0.08 -0.32,-0.22 -0.95,-0.22 z"
   id="path2203" />
			</g>
			<g
   id="g2211">
				<path
   class="st7"
   d="m 102.61,64.39 c 0,-0.39 0.04,-0.76 0.12,-1.09 0.54,-2.13 1.98,-3.2 4.32,-3.2 h 9.51 v 4.69 h -8.26 c -0.46,0 -0.78,0.2 -0.97,0.59 -0.04,0.21 -0.06,0.37 -0.06,0.47 v 1.44 c 0,0.15 0.01,0.25 0.03,0.31 0.08,0.54 0.47,0.86 1.15,0.94 0.06,0.02 0.17,0.03 0.31,0.03 h 3.4 c 2.43,0 3.86,1.13 4.3,3.39 0.06,0.33 0.09,0.63 0.09,0.9 v 4.38 c 0,1.45 -0.42,2.58 -1.25,3.39 -0.83,0.81 -1.97,1.21 -3.41,1.21 h -9.29 v -4.69 h 8.17 l 0.28,-0.09 c 0.54,-0.19 0.81,-0.58 0.81,-1.18 v -1.55 c 0,-0.62 -0.33,-0.97 -0.99,-1.06 h -3.88 c -1.6,0 -2.82,-0.64 -3.67,-1.93 -0.48,-0.72 -0.71,-1.5 -0.71,-2.33 z"
   id="path2207" />
				<path
   class="st7"
   d="m 111.89,82.25 h -9.69 v -5.49 h 8.5 l 0.22,-0.07 c 0.38,-0.13 0.54,-0.37 0.54,-0.8 v -1.55 c 0,-0.35 -0.11,-0.59 -0.64,-0.66 h -3.83 c -1.73,0 -3.08,-0.71 -4,-2.11 -0.52,-0.79 -0.78,-1.65 -0.78,-2.55 v -4.63 c 0,-0.43 0.05,-0.82 0.14,-1.18 0.59,-2.33 2.17,-3.5 4.71,-3.5 h 9.91 v 5.49 h -8.66 c -0.29,0 -0.46,0.1 -0.58,0.33 -0.03,0.15 -0.04,0.26 -0.04,0.34 v 1.44 c 0,0.14 0.01,0.19 0.01,0.19 0.05,0.3 0.18,0.59 0.82,0.66 l 0.08,0.02 v 0 c 0,0 0.05,0.01 0.18,0.01 h 3.4 c 2.64,0 4.22,1.25 4.69,3.71 0.07,0.36 0.1,0.69 0.1,0.98 v 4.38 c 0,1.55 -0.46,2.79 -1.37,3.67 -0.93,0.88 -2.17,1.32 -3.71,1.32 z m -8.88,-0.8 h 8.89 c 1.33,0 2.38,-0.37 3.13,-1.1 0.76,-0.74 1.13,-1.75 1.13,-3.1 v -4.38 c 0,-0.24 -0.03,-0.52 -0.09,-0.83 -0.4,-2.06 -1.68,-3.06 -3.91,-3.06 h -3.4 c -0.17,0 -0.3,-0.01 -0.4,-0.04 -1.07,-0.14 -1.39,-0.77 -1.46,-1.27 -0.02,-0.04 -0.04,-0.18 -0.04,-0.37 v -1.44 c 0,-0.14 0.02,-0.32 0.07,-0.55 l 0.03,-0.09 c 0.25,-0.54 0.71,-0.82 1.33,-0.82 h 7.86 v -3.89 h -9.11 c -2.15,0 -3.44,0.95 -3.93,2.9 -0.07,0.3 -0.11,0.63 -0.11,0.99 v 4.63 c 0,0.76 0.21,1.45 0.65,2.11 0.78,1.17 1.87,1.75 3.33,1.75 h 3.88 c 0.92,0.11 1.39,0.63 1.39,1.46 v 1.55 c 0,0.78 -0.37,1.32 -1.08,1.56 l -0.41,0.12 h -7.77 v 3.87 z"
   id="path2209" />
			</g>
		</g>
	</g>
</g>
<g
   id="Capa_6"
   class="st0">
	<g
   class="st1"
   id="g2254">
		<g
   id="g2224">
			<g
   id="g2222">
				<g
   id="g2220">
					<path
   class="st7"
   d="M 70.4,134.78 C 35.21,134.78 6.59,106.16 6.59,70.97 6.59,35.78 35.21,7.16 70.4,7.16 c 35.18,0 63.81,28.62 63.81,63.81 0,35.19 -28.62,63.81 -63.81,63.81 z m 0,-122.23 c -32.22,0 -58.43,26.21 -58.43,58.43 0,32.22 26.21,58.43 58.43,58.43 32.21,0 58.43,-26.21 58.43,-58.43 0,-32.22 -26.21,-58.43 -58.43,-58.43 z"
   id="path2218" />
				</g>
			</g>
		</g>
		<g
   id="g2234">
			<path
   class="st8"
   d="m 26.04,28.18 c 1.6,-1.53 4.31,-3.76 7.21,-5.82 -3.34,0.45 -6.09,2.74 -7.21,5.82 z"
   id="path2226" />
			<path
   class="st8"
   d="m 89.02,30.29 c -1.26,-0.93 -1.96,-1.88 -2.1,-2.83 -0.18,-1.29 2.81,-14.07 2.81,-14.07 L 61.82,10.5 c -2.27,0 -24.69,9.1 -28.57,11.85 0.41,-0.06 0.82,-0.09 1.24,-0.09 h 44.86 c -0.64,1.58 -1.14,3.64 -0.91,5.95 H 26.02 c 0,-0.01 0.01,-0.02 0.01,-0.04 -0.35,0.34 -0.67,0.65 -0.9,0.91 -2.33,2.6 -5.36,3.29 -5.36,7.05 l -1.68,41.75 1.68,30.82 c 0,1.62 3.9,2.37 5.81,1.38 -0.07,-0.45 -0.45,-31.93 -0.45,-31.93 l 0.34,-45.71 h 54.3 c 0.83,1.55 2.12,3.18 4.18,4.7 1.7,1.26 3.24,2.69 4.62,4.24 l -8.12,-0.13 c -0.33,-0.01 -0.68,0.13 -0.92,0.38 -0.24,0.25 -0.37,0.58 -0.36,0.92 l 0.5,15.36 c 0,0.43 0.24,0.82 0.61,1.04 l 12.77,7.6 c 0.19,0.12 0.42,0.17 0.64,0.17 0.18,0 0.36,-0.04 0.53,-0.12 l 2.68,-1.25 c -0.06,1.19 -0.43,4.85 -2.43,9.19 -3.37,7.33 -9.54,12.79 -18.33,16.23 -1.47,0.58 -2.51,1.92 -2.69,3.48 -0.02,0.16 0.01,19.05 -2.65,35.03 l -16.81,-2.89 c 2.06,-13.09 2.17,-28.32 2.13,-34.38 21.3,-11.76 22.14,-26.5 22.1,-29.22 0.57,-7.88 -0.53,-12.65 -2.9,-19.13 -0.8,-2.22 -3.25,-3.35 -5.48,-2.54 -2.19,0.81 -3.34,3.25 -2.54,5.47 2.09,5.74 2.88,9.2 2.38,15.78 -0.01,0.22 -0.01,0.43 0,0.65 0.01,0.11 0.32,12.48 -19.8,22.65 -1.48,0.74 -2.39,2.27 -2.35,3.92 0.01,0.21 0.49,20.69 -2.15,36.5 -0.01,0.06 6.74,4.47 15.03,6.13 6.23,1.25 16.45,-0.12 16.45,-0.12 1.63,0.03 2.57,-5.68 2.57,-5.68 1.96,-11.97 1.58,-23.7 2.19,-28.68 22.5,-10.05 23.75,-29.61 23.81,-32.55 1.28,-10.44 -3.93,-25.68 -16.41,-34.9 z m 4.86,32.16 -10.3,-6.13 -0.36,-11.07 8.42,0.13 c 3.34,5.08 5.19,10.78 5.44,15.58 z"
   id="path2228" />
			<path
   class="st8"
   d="m 114.22,46.46 c -1.62,-0.64 -2.38,0.28 -1.97,1.78 1.21,4.54 0.67,8.75 -0.82,11.99 -0.52,1.05 -0.16,1.52 0.88,1.11 0.97,-0.41 1.94,-0.84 2.92,-1.33 0.99,-0.53 1.94,0.35 1.86,1.96 -0.25,5.46 -2.5,10.46 -6.16,14.05 -1.07,1.04 -1.45,2.41 -0.69,3.22 1.48,1.47 2.96,2.93 4.44,4.43 0.75,0.81 2.64,0 3.81,-1.93 3.95,-6.44 4.94,-13.71 3.6,-20.22 -0.4,-1.89 -0.02,-3.27 1.15,-3.09 1.09,0.2 2.19,0.44 3.28,0.72 1.15,0.34 1.3,-0.83 0.2,-2.46 -3.34,-4.82 -7.78,-8.3 -12.5,-10.23 z"
   id="path2230" />
			<path
   class="st8"
   d="m 63.93,41.77 -32.3,-0.51 c -0.32,0 -0.68,0.13 -0.92,0.38 -0.24,0.24 -0.37,0.58 -0.36,0.92 l 0.52,15.34 c 0.02,0.42 0.23,0.81 0.59,1.03 l 15.87,9.93 c 0.21,0.12 0.44,0.19 0.67,0.19 0.23,0 0.47,-0.07 0.68,-0.2 l 15.38,-9.93 c 0.35,-0.22 0.56,-0.6 0.58,-1.01 l 0.53,-14.84 c 0.02,-0.34 -0.11,-0.67 -0.34,-0.92 -0.24,-0.24 -0.56,-0.38 -0.9,-0.38 z m -3.17,14.6 -12.79,8.25 -13.2,-8.26 -0.37,-11.12 26.73,0.42 z"
   id="path2232" />
		</g>
		<g
   id="g2252">
			<path
   class="st9"
   d="m 89.67,119.33 1.16,-0.39 0.07,0.21 c 0.28,0.85 0.31,1.45 0.08,1.8 -0.23,0.35 -0.87,0.7 -1.93,1.06 -1.2,0.4 -2.01,0.45 -2.41,0.15 -0.41,-0.3 -0.9,-1.3 -1.46,-3.01 -0.33,-1.01 -0.37,-1.73 -0.1,-2.17 0.27,-0.44 1,-0.86 2.19,-1.26 0.87,-0.29 1.49,-0.35 1.87,-0.19 0.38,0.16 0.7,0.63 0.95,1.4 l 0.05,0.14 -1.16,0.39 -0.05,-0.16 c -0.13,-0.4 -0.29,-0.63 -0.48,-0.69 -0.19,-0.06 -0.55,0 -1.08,0.17 -0.72,0.24 -1.12,0.47 -1.2,0.69 -0.09,0.22 0.02,0.77 0.3,1.63 0.39,1.17 0.68,1.83 0.88,2 0.2,0.17 0.66,0.14 1.36,-0.1 0.57,-0.19 0.93,-0.37 1.06,-0.55 0.13,-0.18 0.13,-0.47 0,-0.87 z"
   id="path2236" />
			<path
   class="st9"
   d="m 93.68,113.06 1.1,-0.52 1.84,3.85 c 0.39,0.81 0.49,1.41 0.3,1.82 -0.19,0.41 -0.76,0.84 -1.71,1.3 -1.01,0.48 -1.73,0.68 -2.16,0.58 -0.43,-0.1 -0.84,-0.54 -1.21,-1.33 l -1.87,-3.91 1.1,-0.53 1.87,3.92 c 0.2,0.43 0.41,0.66 0.62,0.7 0.21,0.04 0.59,-0.07 1.16,-0.34 0.58,-0.28 0.92,-0.51 1.01,-0.7 0.09,-0.19 0.03,-0.51 -0.19,-0.96 z"
   id="path2238" />
			<path
   class="st9"
   d="m 98.97,117.52 -3.48,-5.39 2.66,-1.71 c 0.66,-0.43 1.19,-0.6 1.59,-0.54 0.4,0.07 0.79,0.4 1.18,1 0.35,0.55 0.53,0.96 0.53,1.24 0,0.28 -0.16,0.58 -0.5,0.91 l 0.02,0.04 c 0.62,-0.35 1.15,-0.19 1.57,0.47 l 0.77,1.19 -1.02,0.66 -0.63,-0.98 c -0.36,-0.56 -0.81,-0.66 -1.36,-0.3 l -1.47,0.95 1.17,1.82 z m -0.71,-3.34 1.47,-0.95 c 0.35,-0.23 0.54,-0.44 0.58,-0.64 0.03,-0.2 -0.07,-0.49 -0.31,-0.86 -0.25,-0.38 -0.46,-0.6 -0.63,-0.65 -0.17,-0.05 -0.42,0.03 -0.76,0.25 l -1.54,0.99 z"
   id="path2240" />
			<path
   class="st9"
   d="m 103.58,106.26 0.99,-0.82 2.5,6.26 -1.44,1.19 -5.67,-3.63 0.97,-0.81 3.25,2.03 c 0.31,0.2 0.81,0.54 1.5,1.03 l 0.03,-0.02 -0.18,-0.41 c -0.23,-0.52 -0.41,-0.93 -0.54,-1.25 z"
   id="path2242" />
			<path
   class="st9"
   d="m 106.21,105.16 1.19,1.15 2.09,-2.16 0.65,0.63 -2.09,2.16 1.3,1.26 2.23,-2.3 0.74,0.71 -3.07,3.18 -4.61,-4.46 3.05,-3.16 0.74,0.71 z"
   id="path2244" />
			<path
   class="st9"
   d="m 111.94,96.51 0.69,-1 3.51,2.43 c 0.73,0.51 1.12,0.99 1.16,1.43 0.04,0.45 -0.24,1.1 -0.84,1.98 -0.64,0.92 -1.17,1.45 -1.59,1.58 -0.42,0.13 -0.99,-0.05 -1.72,-0.55 l -3.57,-2.47 0.69,-1 3.57,2.47 c 0.39,0.27 0.68,0.37 0.88,0.3 0.2,-0.07 0.48,-0.36 0.84,-0.87 0.37,-0.53 0.54,-0.9 0.53,-1.1 -0.01,-0.2 -0.22,-0.46 -0.64,-0.74 z"
   id="path2246" />
			<path
   class="st9"
   d="m 118.73,97.78 -5.68,-2.98 1.2,-2.29 0.15,-0.28 c 0.4,-0.77 0.81,-1.22 1.22,-1.34 0.41,-0.13 1,0.01 1.76,0.41 0.76,0.4 1.2,0.79 1.31,1.18 0.11,0.39 -0.03,0.97 -0.44,1.75 l -0.13,0.25 -0.67,1.27 1.84,0.96 z m -2.18,-2.52 0.64,-1.23 c 0.26,-0.49 0.36,-0.83 0.32,-1.02 -0.04,-0.19 -0.27,-0.4 -0.69,-0.62 -0.48,-0.25 -0.81,-0.35 -0.98,-0.3 -0.17,0.05 -0.38,0.3 -0.62,0.76 l -0.7,1.34 z"
   id="path2248" />
			<path
   class="st9"
   d="m 116.09,88.52 3.9,1.74 -0.4,0.95 -3.97,-1.59 z m 4.83,2.09 1.07,0.45 -0.42,0.99 -1.07,-0.45 z"
   id="path2250" />
		</g>
	</g>
</g>
<g
   id="Capa_7"
   transform="matrix(0.12262231,0,0,0.12262416,-3.3267433,-0.70263644)">
	<path
   id="XMLID_3_"
   class="st7"
   d="M 86.98,80.18 H 85.35 V 74.9 c 12.72,-5.59 21.62,-18.31 21.62,-33.07 0,-19.91 -16.2,-36.1 -36.1,-36.1 -19.9,0 -36.1,16.2 -36.1,36.1 0,14.76 8.9,27.48 21.62,33.07 v 5.28 h -1.63 c -15.24,0 -27.63,12.4 -27.63,27.63 v 28.4 h 87.48 v -28.4 c 0,-15.23 -12.4,-27.63 -27.63,-27.63 z" />
</g>
</svg>
