<?xml version="1.0" encoding="UTF-8" standalone="no"?>
<svg
   xmlns:dc="http://purl.org/dc/elements/1.1/"
   xmlns:cc="http://creativecommons.org/ns#"
   xmlns:rdf="http://www.w3.org/1999/02/22-rdf-syntax-ns#"
   xmlns:svg="http://www.w3.org/2000/svg"
   xmlns="http://www.w3.org/2000/svg"
   xmlns:sodipodi="http://sodipodi.sourceforge.net/DTD/sodipodi-0.dtd"
   xmlns:inkscape="http://www.inkscape.org/namespaces/inkscape"
   version="1.1"
   x="0px"
   y="0px"
   viewBox="0 0 16 16"
   xml:space="preserve"
   id="svg3864"
   sodipodi:docname="ico_lupa_oggi.svg"
   width="16"
   height="16"
   inkscape:version="1.0.1 (3bc2e813f5, 2020-09-07)"><metadata
   id="metadata3870"><rdf:RDF><cc:Work
       rdf:about=""><dc:format>image/svg+xml</dc:format><dc:type
         rdf:resource="http://purl.org/dc/dcmitype/StillImage" /></cc:Work></rdf:RDF></metadata><defs
   id="defs3868" /><sodipodi:namedview
   pagecolor="#ffffff"
   bordercolor="#666666"
   borderopacity="1"
   objecttolerance="10"
   gridtolerance="10"
   guidetolerance="10"
   inkscape:pageopacity="0"
   inkscape:pageshadow="2"
   inkscape:window-width="1920"
   inkscape:window-height="1025"
   id="namedview3866"
   showgrid="false"
   inkscape:zoom="5.9197067"
   inkscape:cx="70.864998"
   inkscape:cy="70.864998"
   inkscape:window-x="0"
   inkscape:window-y="0"
   inkscape:window-maximized="1"
   inkscape:current-layer="svg3864" />
<style
   type="text/css"
   id="style3367">
	.st0{display:none;}
	.st1{display:inline;}
	.st2{fill:#002D5D;}
	.st3{fill:#003DA6;}
	.st4{fill:#1E110C;}
	.st5{fill:#020203;stroke:#020203;stroke-width:0.5;stroke-miterlimit:10;}
	.st6{fill:#DA261B;}
	.st7{fill:#020203;}
	.st8{fill:#040405;}
	.st9{fill:#1F140F;stroke:#1F140F;stroke-width:0.4814;stroke-miterlimit:10;}
	.st10{display:inline;fill:#020203;}
</style>








<g
   id="Capa_9"
   transform="matrix(0.13282,0,0,0.1328026,-1.8264357,-1.0152759)">
	<g
   id="g3861">
		<g
   id="g3859">
			<path
   class="st7"
   d="m 119.92,91.07 c 19.06,-19.06 19.06,-50.07 0,-69.13 -19.06,-19.06 -50.07,-19.06 -69.13,0 -16.17,16.17 -18.62,40.22 -7.35,59 0,0 0.81,1.36 -0.28,2.45 -6.23,6.23 -24.94,24.94 -24.94,24.94 -4.96,4.96 -6.15,11.91 -1.74,16.31 l 0.76,0.76 c 4.4,4.4 11.34,3.22 16.31,-1.74 0,0 18.67,-18.67 24.89,-24.89 1.15,-1.15 2.5,-0.34 2.5,-0.34 18.76,11.26 42.81,8.81 58.98,-7.36 z M 59.81,82.04 c -14.08,-14.08 -14.08,-37 0,-51.08 14.08,-14.08 37,-14.08 51.08,0 14.08,14.08 14.08,37 0,51.08 -14.08,14.09 -37,14.09 -51.08,0 z"
   id="path3853" />
			<g
   id="g3857">
				<path
   class="st7"
   d="m 62.93,53.6 c -0.66,0 -1.32,-0.13 -1.96,-0.4 -2.57,-1.09 -3.77,-4.05 -2.68,-6.61 6.83,-16.13 25.5,-23.7 41.63,-16.87 2.57,1.09 3.77,4.05 2.68,6.61 -1.09,2.57 -4.05,3.77 -6.61,2.68 -11,-4.66 -23.75,0.51 -28.4,11.51 -0.83,1.92 -2.7,3.08 -4.66,3.08 z"
   id="path3855" />
			</g>
		</g>
	</g>
</g>
</svg>
