<?xml version="1.0" encoding="utf-8"?>
<!-- Generator: Adobe Illustrator 25.2.1, SVG Export Plug-In . SVG Version: 6.00 Build 0)  -->
<svg version="1.1"
	 id="svg3864" inkscape:version="1.0.1 (3bc2e813f5, 2020-09-07)" sodipodi:docname="ico_lupa_oggi.svg" xmlns:cc="http://creativecommons.org/ns#" xmlns:dc="http://purl.org/dc/elements/1.1/" xmlns:inkscape="http://www.inkscape.org/namespaces/inkscape" xmlns:rdf="http://www.w3.org/1999/02/22-rdf-syntax-ns#" xmlns:sodipodi="http://sodipodi.sourceforge.net/DTD/sodipodi-0.dtd" xmlns:svg="http://www.w3.org/2000/svg"
	 xmlns="http://www.w3.org/2000/svg" xmlns:xlink="http://www.w3.org/1999/xlink" x="0px" y="0px" viewBox="0 0 16 16"
	 style="enable-background:new 0 0 16 16;" xml:space="preserve">
<style type="text/css">
	.st0{fill:#FFFFFF;}
</style>
<sodipodi:namedview  bordercolor="#666666" borderopacity="1" gridtolerance="10" guidetolerance="10" id="namedview3866" inkscape:current-layer="svg3864" inkscape:cx="70.864998" inkscape:cy="70.864998" inkscape:pageopacity="0" inkscape:pageshadow="2" inkscape:window-height="1025" inkscape:window-maximized="1" inkscape:window-width="1920" inkscape:window-x="0" inkscape:window-y="0" inkscape:zoom="5.9197067" objecttolerance="10" pagecolor="#ffffff" showgrid="false">
	</sodipodi:namedview>
<g id="Capa_9" transform="matrix(0.13282,0,0,0.1328026,-1.8264357,-1.0152759)">
	<g id="g3861">
		<g id="g3859">
			<path id="path3853" class="st0" d="M119.9,91.1C139,72,139,41,119.9,21.9s-50.1-19.1-69.1,0c-16.2,16.2-18.6,40.2-7.3,59
				c0,0,0.8,1.4-0.3,2.4c-6.2,6.2-24.9,24.9-24.9,24.9c-5,5-6.1,11.9-1.7,16.3l0.8,0.8c4.4,4.4,11.3,3.2,16.3-1.7
				c0,0,18.7-18.7,24.9-24.9c1.2-1.2,2.5-0.3,2.5-0.3C79.7,109.7,103.8,107.2,119.9,91.1z M59.8,82c-14.1-14-14.1-37,0-51
				s37-14.1,51.1,0s14.1,37,0,51.1C96.8,96.1,73.9,96.1,59.8,82z"/>
			<g id="g3857">
				<path id="path3855" class="st0" d="M62.9,53.6c-0.7,0-1.3-0.1-2-0.4c-2.6-1.1-3.8-4-2.7-6.6C65,30.5,83.7,22.9,99.8,29.7
					c2.6,1.1,3.8,4,2.7,6.6c-1.1,2.6-4.1,3.8-6.6,2.7c-11-4.7-23.8,0.5-28.4,11.5C66.8,52.4,64.9,53.6,62.9,53.6z"/>
			</g>
		</g>
	</g>
</g>
</svg>
