<?xml version="1.0" encoding="utf-8"?>
<!-- Generator: Adobe Illustrator 24.3.0, SVG Export Plug-In . SVG Version: 6.00 Build 0)  -->
<svg version="1.1" id="Capa_1" xmlns="http://www.w3.org/2000/svg" xmlns:xlink="http://www.w3.org/1999/xlink" x="0px" y="0px"
	 viewBox="0 0 141.7 141.7" style="enable-background:new 0 0 141.7 141.7;" xml:space="preserve">
<style type="text/css">
	.st0{display:none;}
	.st1{display:inline;}
	.st2{fill:#002D5D;}
	.st3{fill:#003DA6;}
	.st4{fill:none;stroke:#161615;stroke-width:4.8421;stroke-linecap:round;stroke-linejoin:round;}
	.st5{fill:#FFFFFF;}
	.st6{fill:none;stroke:#333333;stroke-width:2.5219;}
</style>
<g id="Capa_1_1_" class="st0">
	<g class="st1">
		<g>
			<g>
				<g>
					<polygon class="st2" points="55.8,44.5 55.8,55.8 51,55.8 49.5,50.1 51,44.5 					"/>
					<g>
						<path class="st2" d="M63.3,44.5c-3.1,0-5.7,2.5-5.7,5.6c0,3.1,2.5,5.6,5.7,5.6c3.1,0,5.7-2.5,5.7-5.6
							C68.9,47,66.4,44.5,63.3,44.5 M63.3,54c-2.2,0-4-1.8-4-3.9c0-2.2,1.8-3.9,4-3.9c2.2,0,4,1.8,4,3.9C67.2,52.3,65.5,54,63.3,54"
							/>
						<path class="st2" d="M79.9,45.2c-0.8-0.4-1.6-0.6-2.6-0.6c-3.1,0-5.7,2.5-5.7,5.6c0,3.1,2.5,5.6,5.7,5.6
							c3.1,0,5.7-2.5,5.7-5.6c0-0.5-0.1-0.9-0.2-1.3h-5.6v1.7l4,0c-0.2,2-1.9,3.6-3.9,3.6c-2.2,0-4-1.8-4-3.9c0-2.2,1.8-3.9,4-3.9
							c0.4,0,0.9,0.1,1.3,0.2L79.9,45.2z"/>
						<path class="st2" d="M72.8,45.2c-0.8-0.4-1.6-0.6-2.6-0.6c-3.1,0-5.7,2.5-5.7,5.6c0,3.1,2.5,5.6,5.7,5.6
							c3.1,0,5.7-2.5,5.7-5.6c0-0.5-0.1-0.9-0.2-1.3h-5.6v1.7l4,0c-0.2,2-1.9,3.6-4,3.6c-2.2,0-4-1.8-4-3.9c0-2.2,1.8-3.9,4-3.9
							c0.4,0,0.9,0.1,1.3,0.2L72.8,45.2z"/>
						<g>
							<rect x="83.8" y="44.5" class="st2" width="1.8" height="11.3"/>
							<path class="st2" d="M89,44.5c-0.6,0-1.2,0.2-1.6,0.7c-0.4,0.4-0.7,1-0.7,1.6c0,1.2,1,2.3,2.3,2.3l0,0c1.2,0,2.3-1,2.2-2.3
								C91.3,45.5,90.2,44.5,89,44.5z M89,44.9V45c0.9,0,1.7,0.8,1.7,1.7c0,0.5-0.2,0.9-0.5,1.2l-0.7-1c0.4-0.1,0.7-0.3,0.7-0.8
								c0-0.3-0.1-0.5-0.3-0.6c-0.2-0.1-0.4-0.1-0.7-0.1h-1.2l0,2.7h0.6V47h0.3l0.7,1.1h0.5c-0.3,0.2-0.7,0.4-1.1,0.4
								c-0.9,0-1.7-0.8-1.7-1.7S88,45,89,45L89,44.9L89,44.9z M89.7,46.2c0,0.2-0.1,0.2-0.1,0.2c-0.1,0-0.2,0.1-0.4,0.1h-0.5v-0.6
								h0.5C89.6,45.9,89.7,46,89.7,46.2z"/>
						</g>
					</g>
				</g>
			</g>
		</g>
		<g>
			<path class="st2" d="M70.4,124.2c-29.2,0-53-23.8-53-53s23.8-53,53-53c29.2,0,53,23.8,53,53S99.6,124.2,70.4,124.2z M70.4,22.7
				c-26.8,0-48.5,21.8-48.5,48.5s21.8,48.5,48.5,48.5s48.5-21.8,48.5-48.5C118.9,44.4,97.2,22.7,70.4,22.7z"/>
		</g>
		<g>
			<g>
				<g>
					<path class="st2" d="M70.3,103.4c-0.1,0-0.2-0.1-0.3-0.2c-0.1-0.2-0.2-0.3-0.3-0.5c-0.1-0.2-0.1-0.4,0.1-0.5
						c0.2-0.1,0.4-0.1,0.5,0.1c0.1,0.2,0.2,0.4,0.3,0.6c0.1,0.2,0,0.4-0.1,0.5C70.4,103.3,70.4,103.4,70.3,103.4z M69.2,101.7
						c-0.1,0-0.2-0.1-0.3-0.1c-0.3-0.3-0.6-0.7-0.9-1c-0.1-0.1-0.1-0.3,0-0.5c0.1-0.1,0.3-0.1,0.5,0c0.3,0.3,0.7,0.7,0.9,1.1
						c0.1,0.2,0.1,0.4-0.1,0.5C69.3,101.7,69.3,101.7,69.2,101.7z M67.3,99.8c-0.1,0-0.2,0-0.2-0.1c-0.3-0.3-0.7-0.6-1.1-0.8
						c-0.2-0.1-0.2-0.3-0.1-0.5c0.1-0.2,0.3-0.2,0.5-0.1c0.4,0.3,0.8,0.6,1.1,0.9c0.2,0.1,0.2,0.3,0,0.5
						C67.5,99.7,67.4,99.8,67.3,99.8z M65,98.1c-0.1,0-0.1,0-0.2-0.1c-0.4-0.2-0.8-0.5-1.2-0.7c-0.2-0.1-0.2-0.3-0.1-0.5
						s0.3-0.2,0.5-0.1c0.4,0.2,0.8,0.5,1.2,0.7c0.2,0.1,0.2,0.3,0.1,0.5C65.3,98.1,65.2,98.1,65,98.1z M70.3,97.8
						c-0.1,0-0.2,0-0.2-0.1c-0.3-0.3-0.7-0.6-1.1-0.8c-0.2-0.1-0.2-0.3-0.1-0.5c0.1-0.2,0.3-0.2,0.5-0.1c0.4,0.3,0.8,0.6,1.1,0.9
						c0.2,0.1,0.2,0.3,0.1,0.5C70.5,97.8,70.4,97.8,70.3,97.8z M62.6,96.8c0,0-0.1,0-0.2,0c-0.4-0.2-0.8-0.4-1.2-0.6
						c-0.2-0.1-0.2-0.3-0.2-0.5c0.1-0.2,0.3-0.2,0.5-0.2c0.4,0.2,0.8,0.4,1.3,0.6c0.2,0.1,0.2,0.3,0.2,0.5
						C62.9,96.7,62.8,96.8,62.6,96.8z M68.1,96.2c-0.1,0-0.1,0-0.2-0.1c-0.4-0.2-0.8-0.5-1.2-0.7c-0.2-0.1-0.2-0.3-0.1-0.5
						s0.3-0.2,0.5-0.1c0.4,0.2,0.8,0.5,1.2,0.8c0.2,0.1,0.2,0.3,0.1,0.5C68.3,96.2,68.2,96.2,68.1,96.2z M60.1,95.6c0,0-0.1,0-0.1,0
						c-0.4-0.2-0.8-0.3-1.3-0.5c-0.2-0.1-0.3-0.3-0.2-0.4c0.1-0.2,0.3-0.3,0.4-0.2c0.4,0.2,0.9,0.3,1.3,0.5c0.2,0.1,0.3,0.3,0.2,0.4
						C60.4,95.5,60.3,95.6,60.1,95.6z M65.7,94.8c-0.1,0-0.1,0-0.2,0c-0.4-0.2-0.8-0.4-1.2-0.6c-0.2-0.1-0.2-0.3-0.2-0.5
						c0.1-0.2,0.3-0.2,0.5-0.2c0.4,0.2,0.8,0.4,1.2,0.7c0.2,0.1,0.2,0.3,0.1,0.5C66,94.7,65.8,94.8,65.7,94.8z M57.5,94.6
						c0,0-0.1,0-0.1,0c-0.4-0.1-0.9-0.3-1.3-0.4c-0.2-0.1-0.3-0.2-0.2-0.4c0.1-0.2,0.2-0.3,0.4-0.2c0.4,0.1,0.9,0.3,1.3,0.4
						c0.2,0.1,0.3,0.3,0.2,0.4C57.8,94.6,57.7,94.6,57.5,94.6z M54.9,93.8C54.9,93.8,54.8,93.8,54.9,93.8c-0.5-0.1-1-0.3-1.4-0.4
						c-0.2-0.1-0.3-0.2-0.2-0.4s0.2-0.3,0.4-0.2c0.5,0.1,0.9,0.2,1.3,0.4c0.2,0.1,0.3,0.2,0.2,0.4C55.2,93.7,55.1,93.8,54.9,93.8z
						 M63.3,93.5c0,0-0.1,0-0.1,0c-0.4-0.2-0.8-0.4-1.2-0.6c-0.2-0.1-0.3-0.3-0.2-0.4c0.1-0.2,0.3-0.3,0.5-0.2
						c0.4,0.2,0.9,0.4,1.3,0.6c0.2,0.1,0.2,0.3,0.2,0.5C63.5,93.4,63.4,93.5,63.3,93.5z M52.2,93.1C52.2,93.1,52.2,93.1,52.2,93.1
						c-0.5-0.1-1-0.2-1.4-0.3c-0.2-0.1-0.3-0.2-0.3-0.4c0-0.2,0.2-0.3,0.4-0.3c0.5,0.1,0.9,0.2,1.3,0.3c0.2,0.1,0.3,0.2,0.2,0.4
						C52.5,93,52.4,93.1,52.2,93.1z M49.5,92.5C49.5,92.5,49.5,92.5,49.5,92.5c-0.5-0.1-1-0.2-1.4-0.3c-0.2,0-0.3-0.2-0.3-0.4
						c0-0.2,0.2-0.3,0.4-0.3c0.5,0.1,0.9,0.2,1.4,0.3c0.2,0,0.3,0.2,0.3,0.4C49.8,92.4,49.7,92.5,49.5,92.5z M60.7,92.5
						c0,0-0.1,0-0.1,0c-0.4-0.2-0.9-0.3-1.3-0.5c-0.2-0.1-0.3-0.3-0.2-0.4c0.1-0.2,0.3-0.3,0.4-0.2c0.4,0.2,0.9,0.3,1.3,0.5
						c0.2,0.1,0.3,0.3,0.2,0.4C61,92.4,60.8,92.5,60.7,92.5z M46.8,91.9C46.8,91.9,46.8,91.9,46.8,91.9c-0.5-0.1-1-0.2-1.4-0.2
						c-0.2,0-0.3-0.2-0.3-0.4c0-0.2,0.2-0.3,0.4-0.3c0.5,0.1,0.9,0.2,1.4,0.2c0.2,0,0.3,0.2,0.3,0.4C47.1,91.8,47,91.9,46.8,91.9z
						 M58.1,91.6C58.1,91.6,58,91.6,58.1,91.6c-0.5-0.1-1-0.3-1.4-0.4c-0.2-0.1-0.3-0.2-0.2-0.4c0-0.2,0.2-0.3,0.4-0.2
						c0.5,0.1,0.9,0.2,1.3,0.4c0.2,0.1,0.3,0.2,0.2,0.4C58.4,91.5,58.2,91.6,58.1,91.6z M44.1,91.5C44.1,91.5,44.1,91.5,44.1,91.5
						c-0.5-0.1-1-0.1-1.4-0.2c-0.2,0-0.3-0.2-0.3-0.4c0-0.2,0.2-0.3,0.4-0.3c0.5,0.1,0.9,0.1,1.4,0.2c0.2,0,0.3,0.2,0.3,0.4
						C44.4,91.4,44.3,91.5,44.1,91.5z M41.4,91.1C41.3,91.1,41.3,91.1,41.4,91.1c-0.5-0.1-1-0.1-1.4-0.2c-0.2,0-0.3-0.2-0.3-0.4
						c0-0.2,0.2-0.3,0.4-0.3c0.5,0.1,0.9,0.1,1.4,0.2c0.2,0,0.3,0.2,0.3,0.4C41.7,91,41.5,91.1,41.4,91.1z M55.4,90.8
						C55.4,90.8,55.4,90.8,55.4,90.8c-0.5-0.1-1-0.2-1.4-0.3c-0.2-0.1-0.3-0.2-0.3-0.4c0-0.2,0.2-0.3,0.4-0.3
						c0.5,0.1,0.9,0.2,1.4,0.3c0.2,0.1,0.3,0.2,0.2,0.4C55.7,90.7,55.6,90.8,55.4,90.8z M38.6,90.8C38.6,90.8,38.6,90.8,38.6,90.8
						c-0.5-0.1-1-0.1-1.4-0.1c-0.2,0-0.3-0.2-0.3-0.4c0-0.2,0.2-0.3,0.4-0.3c0.5,0,0.9,0.1,1.4,0.1c0.2,0,0.3,0.2,0.3,0.4
						C38.9,90.6,38.8,90.8,38.6,90.8z M35.9,90.5C35.9,90.5,35.8,90.5,35.9,90.5c-0.5,0-1-0.1-1.4-0.1c-0.2,0-0.3-0.2-0.3-0.4
						c0-0.2,0.2-0.3,0.4-0.3c0.4,0,0.9,0.1,1.4,0.1c0.2,0,0.3,0.2,0.3,0.4S36,90.5,35.9,90.5z M52.7,90.3
						C52.7,90.3,52.7,90.3,52.7,90.3c-0.5-0.1-1-0.2-1.4-0.2c-0.2,0-0.3-0.2-0.3-0.4c0-0.2,0.2-0.3,0.4-0.3c0.5,0.1,0.9,0.2,1.4,0.2
						c0.2,0,0.3,0.2,0.3,0.4C53,90.2,52.9,90.3,52.7,90.3z M33.1,90.3C33.1,90.3,33.1,90.3,33.1,90.3c-0.5,0-1-0.1-1.4-0.1
						c-0.2,0-0.3-0.2-0.3-0.4s0.2-0.3,0.4-0.3c0,0,0,0,0,0c0,0,0,0,0,0c0-0.2,0.1-0.4,0.3-0.4c0.4-0.1,0.9-0.1,1.4-0.2
						c0.2,0,0.4,0.1,0.4,0.3c0,0.2-0.1,0.4-0.3,0.4c-0.1,0-0.1,0-0.2,0c0.1,0.1,0.2,0.2,0.1,0.3C33.4,90.1,33.3,90.3,33.1,90.3z
						 M30.3,90.1L30.3,90.1c-0.3,0-0.5,0-0.5,0c-0.2,0-0.3-0.1-0.3-0.3s0.1-0.3,0.3-0.4c0,0,0.3-0.1,0.9-0.2c0.2,0,0.4,0.1,0.4,0.3
						c0,0.2-0.1,0.4-0.3,0.4c-0.1,0-0.1,0-0.2,0C30.5,90.1,30.4,90.1,30.3,90.1z M50,89.8C50,89.8,50,89.8,50,89.8
						c-0.5-0.1-1-0.1-1.4-0.2c-0.2,0-0.3-0.2-0.3-0.4s0.2-0.3,0.4-0.3c0.5,0.1,0.9,0.1,1.4,0.2c0.2,0,0.3,0.2,0.3,0.4
						C50.3,89.7,50.2,89.8,50,89.8z M47.3,89.5C47.2,89.5,47.2,89.5,47.3,89.5c-0.5,0-0.9-0.1-1.4-0.1c-0.2,0-0.3-0.2-0.3-0.4
						c0-0.2,0.2-0.3,0.4-0.3c0.5,0,0.9,0.1,1.4,0.1c0.2,0,0.3,0.2,0.3,0.4S47.4,89.5,47.3,89.5z M34.8,89.5c-0.2,0-0.3-0.1-0.3-0.3
						c0-0.2,0.1-0.4,0.3-0.4c0.4,0,0.9-0.1,1.4-0.1c0.2,0,0.4,0.1,0.4,0.3c0,0.2-0.1,0.4-0.3,0.4C35.8,89.4,35.3,89.5,34.8,89.5
						C34.9,89.5,34.9,89.5,34.8,89.5z M44.5,89.3C44.5,89.3,44.5,89.3,44.5,89.3c-0.5,0-0.9,0-1.4-0.1c-0.2,0-0.3-0.2-0.3-0.3
						c0-0.2,0.2-0.3,0.3-0.3c0.5,0,0.9,0,1.4,0.1c0.2,0,0.3,0.2,0.3,0.4C44.8,89.2,44.7,89.3,44.5,89.3z M37.6,89.3
						c-0.2,0-0.3-0.2-0.3-0.3c0-0.2,0.1-0.3,0.3-0.4c0.5,0,0.9,0,1.4-0.1c0.2,0,0.3,0.1,0.3,0.3c0,0.2-0.2,0.3-0.3,0.4
						C38.5,89.3,38.1,89.3,37.6,89.3L37.6,89.3z M41.8,89.3L41.8,89.3c-0.5,0-0.9,0-1.4,0l0,0c-0.2,0-0.3-0.2-0.3-0.3
						c0-0.2,0.2-0.3,0.3-0.3c0.5,0,0.9,0,1.4,0c0.2,0,0.3,0.2,0.3,0.3C42.1,89.1,41.9,89.2,41.8,89.3z"/>
				</g>
				<g>
					<path class="st2" d="M70.3,103.4c-0.1,0-0.1,0-0.2-0.1c-0.2-0.1-0.2-0.3-0.2-0.5c0.2-0.3,0.4-0.7,0.6-1
						c0.1-0.2,0.3-0.2,0.5-0.1s0.2,0.3,0.1,0.5c-0.2,0.3-0.4,0.6-0.6,1C70.6,103.3,70.4,103.4,70.3,103.4z M71.8,101.3
						c-0.1,0-0.2,0-0.2-0.1c-0.1-0.1-0.2-0.3,0-0.5c0.3-0.3,0.6-0.7,1-1c0.1-0.1,0.3-0.1,0.5,0c0.1,0.1,0.1,0.3,0,0.5
						c-0.3,0.3-0.6,0.6-0.9,1C71.9,101.2,71.9,101.3,71.8,101.3z M73.7,99.4c-0.1,0-0.2,0-0.3-0.1c-0.1-0.1-0.1-0.4,0.1-0.5
						c0.3-0.3,0.7-0.6,1.1-0.8c0.2-0.1,0.4-0.1,0.5,0.1c0.1,0.2,0.1,0.4-0.1,0.5c-0.4,0.3-0.7,0.5-1.1,0.8
						C73.9,99.3,73.8,99.4,73.7,99.4z M70.3,97.8c-0.1,0-0.2,0-0.3-0.1c-0.1-0.1-0.1-0.4,0-0.5c0.3-0.3,0.7-0.6,1.1-0.9
						c0.2-0.1,0.4-0.1,0.5,0.1c0.1,0.2,0.1,0.4-0.1,0.5c-0.4,0.3-0.7,0.6-1.1,0.8C70.5,97.8,70.4,97.8,70.3,97.8z M76,97.8
						c-0.1,0-0.2-0.1-0.3-0.2c-0.1-0.2-0.1-0.4,0.1-0.5c0.4-0.2,0.8-0.5,1.2-0.7c0.2-0.1,0.4,0,0.5,0.1c0.1,0.2,0,0.4-0.1,0.5
						c-0.4,0.2-0.8,0.4-1.2,0.7C76.1,97.8,76.1,97.8,76,97.8z M78.4,96.4c-0.1,0-0.2-0.1-0.3-0.2c-0.1-0.2,0-0.4,0.2-0.5
						c0.4-0.2,0.8-0.4,1.3-0.6c0.2-0.1,0.4,0,0.5,0.2c0.1,0.2,0,0.4-0.2,0.5c-0.4,0.2-0.8,0.4-1.2,0.6
						C78.5,96.4,78.5,96.5,78.4,96.4z M72.5,96.2c-0.1,0-0.2-0.1-0.3-0.2c-0.1-0.2-0.1-0.4,0.1-0.5c0.4-0.3,0.8-0.5,1.2-0.8
						c0.2-0.1,0.4-0.1,0.5,0.1s0.1,0.4-0.1,0.5c-0.4,0.2-0.8,0.5-1.1,0.8C72.6,96.2,72.6,96.2,72.5,96.2z M80.9,95.3
						c-0.1,0-0.3-0.1-0.3-0.2c-0.1-0.2,0-0.4,0.2-0.4c0.4-0.2,0.9-0.3,1.3-0.5c0.2-0.1,0.4,0,0.4,0.2c0.1,0.2,0,0.4-0.2,0.4
						c-0.4,0.2-0.9,0.3-1.3,0.5C81,95.3,81,95.3,80.9,95.3z M74.8,94.7c-0.1,0-0.2-0.1-0.3-0.2c-0.1-0.2,0-0.4,0.1-0.5
						c0.4-0.2,0.8-0.4,1.2-0.7c0.2-0.1,0.4,0,0.5,0.2c0.1,0.2,0,0.4-0.2,0.5c-0.4,0.2-0.8,0.4-1.2,0.7
						C74.9,94.7,74.9,94.7,74.8,94.7z M83.5,94.4c-0.1,0-0.3-0.1-0.3-0.2c-0.1-0.2,0-0.4,0.2-0.4c0.4-0.2,0.9-0.3,1.3-0.4
						c0.2-0.1,0.4,0,0.4,0.2c0.1,0.2-0.1,0.4-0.2,0.4C84.5,94.1,84,94.2,83.5,94.4C83.6,94.4,83.6,94.4,83.5,94.4z M86.2,93.6
						c-0.2,0-0.3-0.1-0.3-0.2c-0.1-0.2,0.1-0.4,0.2-0.4c0.4-0.1,0.9-0.2,1.3-0.4c0.2-0.1,0.4,0.1,0.4,0.2c0.1,0.2-0.1,0.4-0.2,0.4
						C87.1,93.3,86.7,93.4,86.2,93.6C86.2,93.6,86.2,93.6,86.2,93.6z M77.3,93.4c-0.1,0-0.3-0.1-0.3-0.2c-0.1-0.2,0-0.4,0.2-0.5
						c0.4-0.2,0.8-0.4,1.3-0.6c0.2-0.1,0.4,0,0.4,0.2c0.1,0.2,0,0.4-0.2,0.4c-0.4,0.2-0.8,0.4-1.2,0.6
						C77.4,93.4,77.3,93.4,77.3,93.4z M88.8,92.9c-0.2,0-0.3-0.1-0.3-0.3c-0.1-0.2,0.1-0.4,0.2-0.4c0.4-0.1,0.9-0.2,1.3-0.3
						c0.2,0,0.4,0.1,0.4,0.3c0,0.2-0.1,0.4-0.3,0.4C89.8,92.6,89.4,92.8,88.8,92.9C88.9,92.9,88.9,92.9,88.8,92.9z M79.8,92.3
						c-0.1,0-0.3-0.1-0.3-0.2c-0.1-0.2,0-0.4,0.2-0.4c0.4-0.2,0.9-0.3,1.3-0.5c0.2-0.1,0.4,0,0.4,0.2c0.1,0.2,0,0.4-0.2,0.4
						c-0.4,0.2-0.9,0.3-1.3,0.5C79.9,92.3,79.9,92.3,79.8,92.3z M91.5,92.2c-0.2,0-0.3-0.1-0.3-0.3c0-0.2,0.1-0.4,0.3-0.4
						c0.5-0.1,0.9-0.2,1.4-0.3c0.2,0,0.4,0.1,0.4,0.3c0,0.2-0.1,0.4-0.3,0.4C92.5,92.1,92.1,92.2,91.5,92.2
						C91.6,92.2,91.6,92.2,91.5,92.2z M94.2,91.7c-0.2,0-0.3-0.1-0.3-0.3c0-0.2,0.1-0.4,0.3-0.4c0.5-0.1,0.9-0.2,1.4-0.2
						c0.2,0,0.4,0.1,0.4,0.3c0,0.2-0.1,0.4-0.3,0.4C95.2,91.6,94.8,91.7,94.2,91.7C94.3,91.7,94.3,91.7,94.2,91.7z M82.4,91.4
						c-0.2,0-0.3-0.1-0.3-0.2c-0.1-0.2,0.1-0.4,0.2-0.4c0.4-0.1,0.9-0.3,1.3-0.4c0.2-0.1,0.4,0.1,0.4,0.2c0.1,0.2-0.1,0.4-0.2,0.4
						c-0.4,0.1-0.9,0.2-1.3,0.4C82.5,91.4,82.5,91.4,82.4,91.4z M97,91.3c-0.2,0-0.3-0.1-0.3-0.3c0-0.2,0.1-0.4,0.3-0.4
						c0.5-0.1,0.9-0.1,1.4-0.2c0.2,0,0.4,0.1,0.4,0.3c0,0.2-0.1,0.4-0.3,0.4C97.9,91.1,97.5,91.2,97,91.3C97,91.3,97,91.3,97,91.3z
						 M99.7,90.9c-0.2,0-0.3-0.1-0.3-0.3c0-0.2,0.1-0.4,0.3-0.4c0.5-0.1,0.9-0.1,1.4-0.2c0.2,0,0.4,0.1,0.4,0.3s-0.1,0.4-0.3,0.4
						C100.7,90.8,100.2,90.8,99.7,90.9C99.8,90.9,99.7,90.9,99.7,90.9z M85.1,90.7c-0.2,0-0.3-0.1-0.3-0.3c-0.1-0.2,0.1-0.4,0.2-0.4
						c0.4-0.1,0.9-0.2,1.4-0.3c0.2,0,0.4,0.1,0.4,0.3c0,0.2-0.1,0.4-0.3,0.4C86.1,90.5,85.6,90.6,85.1,90.7
						C85.2,90.7,85.1,90.7,85.1,90.7z M102.5,90.6c-0.2,0-0.3-0.1-0.3-0.3c0-0.2,0.1-0.4,0.3-0.4c0.5-0.1,0.9-0.1,1.4-0.1
						c0.2,0,0.4,0.1,0.4,0.3c0,0.2-0.1,0.4-0.3,0.4C103.4,90.5,103,90.5,102.5,90.6C102.5,90.6,102.5,90.6,102.5,90.6z M105.2,90.3
						c-0.2,0-0.3-0.1-0.3-0.3c0-0.2,0.1-0.4,0.3-0.4c0.5-0.1,0.9-0.1,1.4-0.1c0.2,0,0.3,0.1,0.4,0.3s-0.1,0.4-0.3,0.4
						C106.2,90.2,105.7,90.3,105.2,90.3C105.2,90.3,105.2,90.3,105.2,90.3z M87.8,90.1c-0.2,0-0.3-0.1-0.3-0.3
						c0-0.2,0.1-0.4,0.3-0.4c0.5-0.1,0.9-0.2,1.4-0.2c0.2,0,0.4,0.1,0.4,0.3c0,0.2-0.1,0.4-0.3,0.4C88.8,89.9,88.3,90,87.8,90.1
						C87.8,90.1,87.8,90.1,87.8,90.1z M108,90.1c-0.2,0-0.3-0.1-0.3-0.3c0-0.1,0-0.2,0.1-0.3c-0.2,0-0.5-0.1-0.7-0.1
						c-0.2,0-0.3-0.2-0.3-0.4c0-0.2,0.2-0.3,0.4-0.3c0.5,0.1,1,0.1,1.4,0.2c0.2,0,0.3,0.2,0.3,0.4c0,0,0,0.1,0,0.1
						c0.2,0,0.4,0,0.6,0c0,0,0.1,0,0.1,0c0-0.2,0.2-0.3,0.4-0.3c0.8,0.1,1.2,0.2,1.2,0.2c0.2,0,0.3,0.2,0.3,0.4
						c0,0.2-0.2,0.3-0.3,0.3l-0.2,0c-0.1,0-0.2,0-0.2-0.1c-0.2,0-0.5-0.1-0.8-0.1c0,0,0,0,0,0c0,0.1-0.2,0.2-0.3,0.3
						C109,90.1,108.5,90.1,108,90.1C108,90.1,108,90.1,108,90.1z M90.5,89.7c-0.2,0-0.3-0.1-0.3-0.3c0-0.2,0.1-0.4,0.3-0.4
						c0.5-0.1,0.9-0.1,1.4-0.2c0.2,0,0.4,0.1,0.4,0.3c0,0.2-0.1,0.4-0.3,0.4C91.5,89.5,91,89.6,90.5,89.7
						C90.6,89.7,90.5,89.7,90.5,89.7z M93.3,89.3c-0.2,0-0.3-0.1-0.3-0.3c0-0.2,0.1-0.4,0.3-0.4c0.5-0.1,0.9-0.1,1.4-0.1
						c0.2,0,0.3,0.1,0.4,0.3c0,0.2-0.1,0.3-0.3,0.4C94.2,89.3,93.7,89.3,93.3,89.3C93.3,89.3,93.3,89.3,93.3,89.3z M105.7,89.3
						C105.7,89.3,105.7,89.3,105.7,89.3c-0.5,0-0.9-0.1-1.4-0.1c-0.2,0-0.3-0.2-0.3-0.4c0-0.2,0.2-0.3,0.4-0.3
						c0.5,0,0.9,0.1,1.4,0.1c0.2,0,0.3,0.2,0.3,0.4C106,89.2,105.8,89.3,105.7,89.3z M96,89.2c-0.2,0-0.3-0.1-0.3-0.3
						s0.1-0.3,0.3-0.4c0.5,0,0.9,0,1.4-0.1c0,0,0,0,0,0c0.2,0,0.3,0.2,0.3,0.3c0,0.2-0.1,0.3-0.3,0.4C96.9,89.1,96.5,89.1,96,89.2
						C96,89.2,96,89.2,96,89.2z M102.9,89.1L102.9,89.1c-0.5,0-0.9,0-1.4-0.1c-0.2,0-0.3-0.2-0.3-0.3c0-0.2,0.2-0.3,0.3-0.3h0
						c0.5,0,0.9,0,1.4,0.1c0.2,0,0.3,0.2,0.3,0.4C103.2,89,103.1,89.1,102.9,89.1z M98.8,89.1c-0.2,0-0.3-0.2-0.3-0.3
						c0-0.2,0.2-0.3,0.3-0.3c0.5,0,0.9,0,1.4,0c0.2,0,0.3,0.2,0.3,0.3c0,0.2-0.2,0.3-0.3,0.3l0,0C99.7,89.1,99.2,89.1,98.8,89.1
						L98.8,89.1z"/>
				</g>
			</g>
		</g>
		<g>
			<g>
				<path class="st2" d="M48.8,84.5l7.2-22.9c0.8-2.3,2.2-3.5,4.4-3.5c2.2,0,3.7,1.2,4.4,3.5l7.2,22.8h-5.9l-1.8-5.6h-7.9l-1.7,5.6
					H48.8z M62.7,73.5l-2.7-8.4l-1.9,8.4H62.7z"/>
				<path class="st2" d="M73.4,63.5c0-0.5,0.1-0.9,0.2-1.3c0.7-2.6,2.4-3.8,5.2-3.8h11.4V64h-9.9c-0.6,0-0.9,0.2-1.2,0.7
					c-0.1,0.2-0.1,0.4-0.1,0.6V67c0,0.2,0,0.3,0,0.4c0.1,0.7,0.6,1,1.4,1.1c0.1,0,0.2,0,0.4,0h4.1c2.9,0,4.6,1.4,5.2,4.1
					c0.1,0.4,0.1,0.8,0.1,1.1V79c0,1.7-0.5,3.1-1.5,4.1s-2.4,1.4-4.1,1.4H73.4v-5.6h9.8l0.3-0.1c0.7-0.2,1-0.7,1-1.4v-1.9
					c0-0.8-0.4-1.2-1.2-1.3h-4.7c-1.9,0-3.4-0.8-4.4-2.3c-0.6-0.9-0.9-1.8-0.9-2.8L73.4,63.5L73.4,63.5z"/>
				<path class="st2" d="M91.8,84.5V58.4h5.6v26.1C97.4,84.5,91.8,84.5,91.8,84.5z"/>
				<path class="st2" d="M99.3,78.7V64.3c0-2.3,0.4-3.8,1.3-4.7c0.9-0.8,2.5-1.3,4.8-1.3h11V64h-10.2c-0.7,0.1-1.2,0.5-1.3,1.2v11.4
					c0,0.8,0.1,1.4,0.3,1.6c0.2,0.4,0.7,0.6,1.4,0.6h9.8v5.6h-11.8c-0.6,0-1.3-0.1-2-0.4C100.4,83.2,99.3,81.4,99.3,78.7z"/>
			</g>
			<path class="st2" d="M46.2,70.8c1.8-1,2.7-2.8,2.7-5.4c0-2.8-0.7-4.7-2-5.7c-1.3-1-3.6-1.5-7-1.5H25.7v26.3h15
				c3.2,0,5.5-0.6,6.8-1.7c1.4-1.2,2.1-3.1,2.1-5.9C49.6,73.9,48.5,71.8,46.2,70.8z M32.3,73.5h6c3,0,3.8,0.3,4,0.5
				c0.2,0.1,0.6,0.6,0.6,2.3c0,1.6-0.4,2.1-0.6,2.3c-0.2,0.2-1,0.5-3.1,0.5l-1.8,0h-5.1V73.5z M41.7,68.1c-0.2,0.2-1,0.5-3.6,0.5
				h-5.8v-5.1h6.8c2.7,0,3.1,1.2,3.1,2.3C42.2,67.5,41.9,68,41.7,68.1z"/>
		</g>
	</g>
</g>
<g id="Capa_2_1_" class="st0">
	<g class="st1">
		<g>
			<g>
				<g>
					<g>
						<g>
							<g>
								<path class="st3" d="M55.3,70.8c1.7-1,2.6-2.8,2.6-5.3c0-2.7-0.7-4.6-2-5.7c-1.3-1-3.5-1.5-6.8-1.5H35.1v25.9h14.8
									c3.2,0,5.4-0.6,6.7-1.7c1.3-1.1,2-3.1,2-5.8C58.6,73.8,57.5,71.8,55.3,70.8z M41.6,73.4h6c2.9,0,3.7,0.3,3.9,0.5
									c0.2,0.1,0.6,0.6,0.6,2.2c0,1.6-0.4,2.1-0.6,2.3c-0.2,0.2-1,0.5-3,0.5l-1.8,0h-5V73.4z M50.8,68.2c-0.2,0.2-1,0.5-3.5,0.5
									h-5.7v-5.1h6.7c2.7,0,3,1.2,3,2.3C51.4,67.5,51,68,50.8,68.2z"/>
								<polygon class="st3" points="67.6,58.3 61,58.3 61,84.3 80.3,84.3 80.3,78.8 67.6,78.8 								"/>
								<path class="st3" d="M99.2,58.3v17.1c0,2.2-0.5,2.9-0.8,3.1c-0.3,0.2-1.4,0.6-4.8,0.6c-3.3,0-4.4-0.4-4.7-0.6
									c-0.5-0.3-0.8-1.4-0.8-2.9V58.3h-6.5v17.3c0,3.6,0.8,6,2.5,7.2c1.6,1.1,4.8,1.7,9.7,1.7c4.7,0,7.8-0.6,9.3-1.8
									c1.7-1.2,2.4-3.6,2.4-7.3v-17H99.2z"/>
							</g>
						</g>
					</g>
				</g>
				<g>
					<g>
						<path class="st3" d="M44.1,95v-6.5h3.2c0.9,0,1.5,0.2,1.9,0.6c0.4,0.4,0.5,1.1,0.5,2.1c0,1.6-0.2,2.7-0.4,3.1
							c-0.3,0.5-1,0.7-2,0.7C47.3,95,44.1,95,44.1,95z M45.3,93.9h1.8c0.6,0,1-0.1,1.2-0.4c0.2-0.3,0.3-0.9,0.3-1.8
							c0-1-0.1-1.6-0.2-1.8c-0.2-0.3-0.5-0.4-1.1-0.4h-1.8V93.9z"/>
						<path class="st3" d="M47.3,95.1h-3.4v-6.9h3.4c1,0,1.6,0.2,2,0.7c0.4,0.4,0.6,1.2,0.6,2.2c0,1.7-0.2,2.7-0.5,3.2
							C49.1,94.9,48.4,95.1,47.3,95.1z M44.3,94.8h3.1c1,0,1.6-0.2,1.8-0.6c0.3-0.4,0.4-1.5,0.4-3c0-0.9-0.2-1.6-0.5-2
							c-0.3-0.4-0.9-0.5-1.8-0.5h-3V94.8z M47.1,94.1h-1.9v-4.8h2c0.6,0,1.1,0.2,1.2,0.5c0.2,0.3,0.3,0.9,0.3,1.9
							c0,1-0.1,1.6-0.3,1.9C48.2,93.9,47.8,94.1,47.1,94.1z M45.5,93.7h1.6c0.5,0,0.9-0.1,1-0.3c0.1-0.2,0.2-0.6,0.2-1.7
							c0-1.2-0.1-1.6-0.2-1.8c-0.1-0.2-0.5-0.3-1-0.3h-1.7V93.7z"/>
					</g>
					<g>
						<path class="st3" d="M53.8,88.4V95h-1.2v-6.5H53.8z"/>
						<path class="st3" d="M54,95.1h-1.6v-6.9H54V95.1z M52.8,94.8h0.9v-6.2h-0.9V94.8z"/>
					</g>
					<g>
						<path class="st3" d="M61.1,88.4h1.3L60.4,95h-1.9l-2.1-6.5h1.3l1.2,3.7c0.1,0.3,0.3,0.9,0.5,1.8h0l0.1-0.4
							c0.2-0.6,0.3-1,0.4-1.3L61.1,88.4z"/>
						<path class="st3" d="M60.5,95.1h-2.2l-2.2-6.9h1.7l1.3,3.8c0.1,0.3,0.2,0.7,0.4,1.2c0.2-0.5,0.3-0.9,0.4-1.2l1.2-3.8h1.7
							L60.5,95.1z M58.6,94.8h1.7l2-6.2h-0.9l-1.2,3.6c-0.1,0.3-0.2,0.7-0.4,1.3l-0.2,0.6h-0.3L59.2,94c-0.2-0.8-0.4-1.4-0.5-1.8
							l-1.2-3.6h-0.9L58.6,94.8z"/>
					</g>
					<g>
						<path class="st3" d="M66.2,88.4V95H65v-6.5H66.2z"/>
						<path class="st3" d="M66.4,95.1h-1.6v-6.9h1.6V95.1z M65.1,94.8H66v-6.2h-0.9V94.8z"/>
					</g>
					<g>
						<path class="st3" d="M74.2,90.3h-1.2c0-0.1,0-0.1,0-0.1c0-0.4-0.1-0.6-0.2-0.7c-0.1-0.1-0.4-0.1-0.9-0.1c-0.6,0-1,0.1-1.2,0.2
							s-0.3,0.3-0.3,0.7c0,0.4,0.1,0.7,0.2,0.7c0.2,0.1,0.6,0.2,1.4,0.2c1,0.1,1.6,0.2,1.9,0.4s0.4,0.7,0.4,1.4
							c0,0.9-0.2,1.4-0.5,1.7c-0.3,0.2-1.1,0.4-2.2,0.4c-1,0-1.7-0.1-2-0.4c-0.3-0.2-0.5-0.8-0.5-1.5l0-0.2h1.2V93
							c0,0.5,0.1,0.7,0.2,0.8c0.2,0.1,0.6,0.2,1.3,0.2c0.6,0,0.9-0.1,1.1-0.2c0.2-0.1,0.2-0.4,0.2-0.8c0-0.3-0.1-0.5-0.2-0.6
							s-0.4-0.2-0.8-0.2l-0.7,0c-1-0.1-1.7-0.2-2-0.4s-0.4-0.7-0.4-1.5c0-0.8,0.2-1.3,0.5-1.5c0.3-0.3,1-0.4,2.1-0.4
							c1,0,1.6,0.1,2,0.3c0.3,0.2,0.5,0.7,0.5,1.4L74.2,90.3L74.2,90.3z"/>
						<path class="st3" d="M71.6,95.2c-1.1,0-1.8-0.1-2.2-0.4c-0.4-0.3-0.6-0.8-0.6-1.7l0-0.4h1.6l0,0.3c0,0.6,0.1,0.7,0.2,0.7
							c0.1,0,0.3,0.1,1.2,0.1c0.7,0,0.9-0.1,0.9-0.1s0.2-0.2,0.2-0.7c0-0.3-0.1-0.5-0.1-0.5c0,0-0.2-0.1-0.7-0.1l-0.7,0
							c-1.1-0.1-1.8-0.2-2.1-0.5c-0.3-0.3-0.5-0.8-0.5-1.6c0-0.8,0.2-1.4,0.6-1.7c0.4-0.3,1.1-0.4,2.2-0.4c1,0,1.7,0.1,2.1,0.4
							c0.4,0.3,0.6,0.8,0.6,1.5v0.4h-1.5l0-0.2c0-0.1,0-0.1,0-0.2c0-0.4-0.1-0.5-0.2-0.6c-0.1,0-0.2-0.1-0.8-0.1
							c-0.7,0-1,0.1-1.1,0.1c-0.1,0.1-0.2,0.2-0.2,0.5c0,0.5,0.1,0.6,0.1,0.6c0.1,0,0.3,0.1,1.4,0.2c1,0.1,1.7,0.2,2,0.4
							c0.3,0.3,0.5,0.8,0.5,1.5c0,0.9-0.2,1.5-0.6,1.8C73.5,95.1,72.8,95.2,71.6,95.2z M69.2,93.1L69.2,93.1c0,0.8,0.2,1.2,0.4,1.4
							c0.2,0.2,0.7,0.3,1.9,0.3c1.4,0,1.9-0.2,2.1-0.3c0.3-0.2,0.4-0.8,0.4-1.5c0-0.7-0.1-1.1-0.4-1.2c-0.2-0.1-0.6-0.3-1.8-0.4
							c-1.1-0.1-1.4-0.2-1.5-0.2c-0.2-0.1-0.3-0.4-0.3-0.9c0-0.4,0.1-0.7,0.3-0.8c0.2-0.1,0.6-0.2,1.2-0.2c0.7,0,0.9,0.1,1.1,0.2
							c0.2,0.1,0.3,0.4,0.3,0.8H74v-0.1c0-0.6-0.2-1-0.4-1.2c-0.3-0.2-0.9-0.3-1.9-0.3c-1,0-1.7,0.1-2,0.3c-0.3,0.2-0.4,0.7-0.4,1.4
							c0,0.7,0.1,1.1,0.4,1.3c0.2,0.1,0.7,0.3,1.9,0.4l0.7,0c0.4,0,0.7,0.1,0.9,0.2c0.2,0.1,0.2,0.4,0.2,0.8c0,0.5-0.1,0.8-0.3,0.9
							c-0.2,0.2-0.5,0.2-1.2,0.2c-1,0-1.3-0.1-1.4-0.2C70.1,93.9,70,93.6,70,93L69.2,93.1L69.2,93.1z"/>
					</g>
					<g>
						<path class="st3" d="M78.4,88.4V95h-1.2v-6.5H78.4z"/>
						<path class="st3" d="M78.5,95.1H77v-6.9h1.6V95.1z M77.3,94.8h0.9v-6.2h-0.9V94.8z"/>
					</g>
					<g>
						<path class="st3" d="M84.2,88.4c1.2,0,1.9,0.2,2.3,0.6c0.3,0.4,0.5,1.3,0.5,2.6c0,1.5-0.2,2.4-0.5,2.8
							C86.1,94.8,85.3,95,84,95c-1.2,0-1.9-0.2-2.3-0.6c-0.3-0.4-0.5-1.2-0.5-2.5c0-1.6,0.2-2.5,0.5-2.9
							C82,88.6,82.9,88.4,84.2,88.4z M84.1,89.4c-0.8,0-1.3,0.1-1.5,0.3s-0.2,0.9-0.2,2.2c0,0.9,0.1,1.5,0.2,1.7
							c0.2,0.2,0.7,0.3,1.4,0.3c0.8,0,1.2-0.1,1.4-0.3c0.2-0.2,0.2-0.9,0.2-2s-0.1-1.7-0.2-1.9C85.4,89.5,84.9,89.4,84.1,89.4z"/>
						<path class="st3" d="M84,95.2c-1.2,0-2-0.2-2.4-0.6c-0.4-0.4-0.6-1.3-0.6-2.7c0-1.6,0.2-2.6,0.6-3.1c0.4-0.4,1.2-0.7,2.6-0.7
							c1.2,0,2.1,0.2,2.4,0.7c0.4,0.4,0.6,1.3,0.6,2.8c0,1.6-0.2,2.5-0.6,2.9S85.4,95.2,84,95.2z M84.2,88.6c-1.6,0-2.2,0.3-2.4,0.5
							s-0.5,0.9-0.5,2.8c0,1.2,0.2,2.1,0.5,2.4c0.3,0.3,1,0.5,2.2,0.5c1.6,0,2.2-0.3,2.4-0.5c0.2-0.2,0.5-0.9,0.5-2.7
							c0-1.6-0.3-2.3-0.5-2.5C86.1,88.7,85.3,88.6,84.2,88.6z M84.1,94.1c-0.9,0-1.4-0.1-1.6-0.3c-0.1-0.2-0.3-0.5-0.3-1.8
							c0-1.7,0.1-2.2,0.2-2.3c0.2-0.3,0.7-0.4,1.6-0.4c0.9,0,1.4,0.1,1.6,0.4c0.1,0.2,0.2,0.5,0.2,2s-0.2,1.9-0.3,2.1
							C85.5,94,85,94.1,84.1,94.1z M84.1,89.6c-1.1,0-1.3,0.2-1.3,0.2c-0.1,0.1-0.2,0.5-0.2,2.1c0,1.2,0.1,1.5,0.2,1.6
							s0.3,0.2,1.3,0.2c1,0,1.2-0.2,1.2-0.2c0.1-0.1,0.2-0.5,0.2-1.9c0-1.4-0.1-1.7-0.2-1.8C85.3,89.8,85.1,89.6,84.1,89.6z"/>
					</g>
					<g>
						<path class="st3" d="M95.8,88.4V95h-2.1l-1.9-3.6c-0.1-0.2-0.2-0.5-0.4-0.9L91.2,90L91,89.5H91l0,0.4l0,0.4l0,0.8v3.7h-1.2
							v-6.5h2.1l1.7,3.3c0.2,0.3,0.3,0.7,0.5,1.1l0.2,0.5l0.2,0.5h0l0-0.4l0-0.4l0-0.8v-3.8L95.8,88.4L95.8,88.4z"/>
						<path class="st3" d="M96,95.1h-2.4l-1.9-3.7c-0.1-0.2-0.2-0.5-0.4-0.9l-0.1-0.2l0,0.9v3.9h-1.6v-6.9H92l1.8,3.4
							c0.2,0.3,0.3,0.7,0.5,1.1l0.2,0.4V93l0-0.8v-3.9H96L96,95.1L96,95.1z M93.8,94.8h1.8v-6.2h-0.9l0,5.4h-0.3L94.4,94l-0.5-1.1
							c-0.2-0.4-0.4-0.8-0.5-1.1l-1.7-3.2H90v6.2h0.9l-0.1-5.5h0.3l0.5,1c0.2,0.4,0.3,0.8,0.4,0.9L93.8,94.8z"/>
					</g>
				</g>
			</g>
		</g>
		<g>
			<g>
				<g>
					<polygon class="st3" points="56,45 56,56.3 51.3,56.3 49.8,50.7 51.2,45 					"/>
					<g>
						<path class="st3" d="M63.5,45.1c-3.1,0-5.7,2.5-5.7,5.6c0,3.1,2.5,5.6,5.7,5.6c3.1,0,5.7-2.5,5.7-5.6
							C69.2,47.6,66.6,45.1,63.5,45.1 M63.5,54.6c-2.2,0-4-1.8-4-3.9c0-2.2,1.8-3.9,4-3.9c2.2,0,4,1.8,4,3.9
							C67.5,52.8,65.7,54.6,63.5,54.6"/>
						<path class="st3" d="M80.1,45.7c-0.8-0.4-1.6-0.6-2.6-0.6c-3.1,0-5.7,2.5-5.7,5.6c0,3.1,2.5,5.6,5.7,5.6
							c3.1,0,5.7-2.5,5.7-5.6c0-0.5-0.1-0.9-0.2-1.3h-5.6V51l4,0c-0.2,2-1.9,3.6-3.9,3.6c-2.2,0-4-1.8-4-3.9c0-2.2,1.8-3.9,4-3.9
							c0.4,0,0.9,0.1,1.3,0.2L80.1,45.7z"/>
						<path class="st3" d="M73.1,45.7c-0.8-0.4-1.6-0.6-2.6-0.6c-3.1,0-5.7,2.5-5.7,5.6c0,3.1,2.5,5.6,5.7,5.6
							c3.1,0,5.7-2.5,5.7-5.6c0-0.5-0.1-0.9-0.2-1.3h-5.6V51l4,0c-0.2,2-1.9,3.6-4,3.6c-2.2,0-4-1.8-4-3.9c0-2.2,1.8-3.9,4-3.9
							c0.4,0,0.9,0.1,1.3,0.2L73.1,45.7z"/>
						<g>
							<rect x="84" y="45" class="st3" width="1.8" height="11.3"/>
							<path class="st3" d="M89.2,45c-0.6,0-1.2,0.2-1.6,0.7c-0.4,0.4-0.7,1-0.7,1.6c0,1.2,1,2.3,2.3,2.3l0,0c1.2,0,2.3-1,2.2-2.3
								C91.5,46,90.5,45,89.2,45z M89.2,45.4v0.2c0.9,0,1.7,0.8,1.7,1.7c0,0.5-0.2,0.9-0.5,1.2l-0.7-1c0.4-0.1,0.7-0.3,0.7-0.8
								c0-0.3-0.1-0.5-0.3-0.6c-0.2-0.1-0.4-0.1-0.7-0.1h-1.2l0,2.7h0.6v-1.1h0.3l0.7,1.1h0.5C90,48.9,89.7,49,89.2,49
								c-0.9,0-1.7-0.8-1.7-1.7s0.8-1.7,1.7-1.7L89.2,45.4L89.2,45.4z M89.9,46.7c0,0.2-0.1,0.2-0.1,0.2c-0.1,0-0.2,0-0.4,0h-0.5
								v-0.5h0.5C89.8,46.5,89.9,46.5,89.9,46.7z"/>
						</g>
					</g>
				</g>
			</g>
		</g>
		<g>
			<path class="st3" d="M70.6,124.2c-29.2,0-53-23.8-53-53s23.8-53,53-53c29.2,0,53,23.8,53,53S99.9,124.2,70.6,124.2z M70.6,22.7
				c-26.8,0-48.5,21.8-48.5,48.5s21.8,48.5,48.5,48.5c26.8,0,48.6-21.8,48.6-48.5C119.2,44.4,97.4,22.7,70.6,22.7z"/>
		</g>
	</g>
</g>
<g id="Grupo_361" transform="translate(-422.04 -793.04)">
	<path id="Trazado_928" class="st4" d="M493.3,823.9c22.1,0,40,17.9,40,40c0,22.1-17.9,40-40,40c-22.1,0-40-17.9-40-40
		C453.3,841.8,471.2,823.9,493.3,823.9C493.3,823.9,493.3,823.9,493.3,823.9z M516.2,841.9l-19.2,19.2 M489.5,862.2l-14.9-8.6"/>
	<g id="Elipse_140" transform="translate(436 807)">
		<circle class="st5" cx="56.4" cy="56" r="6.3"/>
		<circle class="st6" cx="56.4" cy="56" r="5"/>
	</g>
</g>
</svg>
