<?xml version="1.0" encoding="utf-8"?>
<!-- Generator: Adobe Illustrator 24.3.0, SVG Export Plug-In . SVG Version: 6.00 Build 0)  -->
<svg version="1.1" id="Capa_1" xmlns="http://www.w3.org/2000/svg" xmlns:xlink="http://www.w3.org/1999/xlink" x="0px" y="0px"
	 viewBox="0 0 36.9 36.9" style="enable-background:new 0 0 36.9 36.9;" xml:space="preserve">
<style type="text/css">
	.st0{fill:#333333;}
</style>
<g transform="translate(-687.469 -112.203)">
	<path class="st0" d="M706,112.2c-10.1,0-18.5,8.3-18.5,18.5s8.3,18.5,18.5,18.5c10.1,0,18.5-8.3,18.5-18.5S716.1,112.2,706,112.2z
		 M706,147.7c-9.5,0-17.1-7.6-17.1-17.1s7.6-17.1,17.1-17.1s17.1,7.6,17.1,17.1l0,0C723,140.1,715.3,147.7,706,147.7L706,147.7z"/>
</g>
<path class="st0" d="M28.4,15.5c-0.2,0-0.4,0-0.6,0c-2.1,0-4-1.1-5.2-2.8v9.5c0,3.9-3.2,7-7,7s-7-3.2-7-7s3.2-7,7-7l0,0
	c0.1,0,0.3,0,0.4,0v3.5c-0.1,0-0.3,0-0.4,0c-2,0-3.6,1.6-3.6,3.6c0,2,1.6,3.6,3.6,3.6c2,0,3.7-1.6,3.7-3.5l0-16.2h3.3
	c0.3,3,2.7,5.3,5.7,5.5L28.4,15.5"/>
</svg>
