<?xml version="1.0" encoding="utf-8"?>
<!-- Generator: Adobe Illustrator 24.3.0, SVG Export Plug-In . SVG Version: 6.00 Build 0)  -->
<svg version="1.1" id="Capa_1" xmlns="http://www.w3.org/2000/svg" xmlns:xlink="http://www.w3.org/1999/xlink" x="0px" y="0px"
	 viewBox="0 0 32 32" style="enable-background:new 0 0 32 32;" xml:space="preserve">
<style type="text/css">
	.st0{fill:#333333;}
</style>
<g transform="translate(-687.469 -112.203)">
	<path class="st0" d="M703.5,112.2c-8.8,0-16,7.2-16,16s7.2,16,16,16s16-7.2,16-16C719.5,119.4,712.3,112.2,703.5,112.2z M703.5,143
		c-8.2,0-14.8-6.6-14.8-14.8c0-8.2,6.6-14.8,14.8-14.8c8.2,0,14.8,6.6,14.8,14.8c0,0,0,0,0,0C718.3,136.4,711.6,143,703.5,143
		L703.5,143z"/>
</g>
<path class="st0" d="M12.3,24.1c7.3,0,11.3-6,11.3-11.3c0-0.2,0-0.3,0-0.5c0.8-0.6,1.4-1.3,2-2.1c-0.7,0.3-1.5,0.5-2.3,0.6
	c0.8-0.5,1.4-1.3,1.7-2.2c-0.8,0.5-1.6,0.8-2.5,1c-0.7-0.8-1.8-1.3-2.9-1.3c-2.2,0-4,1.8-4,4c0,0.3,0,0.6,0.1,0.9
	c-3.3-0.2-6.2-1.7-8.2-4.1c-0.4,0.6-0.5,1.3-0.5,2c0,1.4,0.7,2.6,1.8,3.3c-0.6,0-1.2-0.2-1.8-0.5c0,0,0,0,0,0.1
	c0,1.9,1.4,3.5,3.2,3.9C9.9,18,9.5,18,9.2,18c-0.3,0-0.5,0-0.7-0.1c0.5,1.6,2,2.7,3.7,2.8c-1.4,1.1-3.1,1.7-4.9,1.7
	c-0.3,0-0.6,0-0.9-0.1C8,23.5,10.1,24.1,12.3,24.1"/>
</svg>
