<?xml version="1.0" encoding="utf-8"?>
<!-- Generator: Adobe Illustrator 24.3.0, SVG Export Plug-In . SVG Version: 6.00 Build 0)  -->
<svg version="1.1" id="Capa_1" xmlns="http://www.w3.org/2000/svg" xmlns:xlink="http://www.w3.org/1999/xlink" x="0px" y="0px"
	 viewBox="0 0 32 32" style="enable-background:new 0 0 32 32;" xml:space="preserve">
<style type="text/css">
	.st0{fill:#333333;}
</style>
<g transform="translate(-687.469 -112.203)">
	<path class="st0" d="M703.5,112.2c-8.8,0-16,7.2-16,16s7.2,16,16,16s16-7.2,16-16C719.5,119.4,712.3,112.2,703.5,112.2z M703.5,143
		c-8.2,0-14.8-6.6-14.8-14.8c0-8.2,6.6-14.8,14.8-14.8c8.2,0,14.8,6.6,14.8,14.8c0,0,0,0,0,0C718.3,136.4,711.6,143,703.5,143
		L703.5,143z"/>
	<path class="st0" d="M701.1,122.5v2.5h-1.9v3.2h1.9v9.3h3.7v-9.4h2.6l0.3-3.1h-2.9v-1.8c0-0.7,0.1-1,0.9-1h2v-3.3h-2.6
		C702.4,118.9,701.1,120.1,701.1,122.5z"/>
</g>
</svg>
