<?xml version="1.0" encoding="utf-8"?>
<!-- Generator: Adobe Illustrator 24.3.0, SVG Export Plug-In . SVG Version: 6.00 Build 0)  -->
<svg version="1.1" id="Capa_1" xmlns="http://www.w3.org/2000/svg" xmlns:xlink="http://www.w3.org/1999/xlink" x="0px" y="0px"
	 viewBox="0 0 36.9 36.9" style="enable-background:new 0 0 36.9 36.9;" xml:space="preserve">
<style type="text/css">
	.st0{fill:#333333;}
</style>
<g transform="translate(-687.469 -112.203)">
	<path class="st0" d="M706,112.2c-10.1,0-18.5,8.3-18.5,18.5s8.3,18.5,18.5,18.5c10.1,0,18.5-8.3,18.5-18.5S716.1,112.2,706,112.2z
		 M706,147.7c-9.5,0-17.1-7.6-17.1-17.1s7.6-17.1,17.1-17.1s17.1,7.6,17.1,17.1l0,0C723,140.1,715.3,147.7,706,147.7L706,147.7z"/>
</g>
<path class="st0" d="M27.2,25.4c-0.2,0.6-0.9,0.7-1.5,0.5c-4.2-2.2-9.2-2.5-15.1-0.8c-0.6,0.1-1.2-0.1-1.3-0.7s0.1-1.2,0.7-1.3
	c6.5-1.8,12.1-1.5,16.7,1C27.3,24.2,27.6,24.9,27.2,25.4z"/>
<path class="st0" d="M29.1,20.6c-0.3,0.7-1.2,0.9-1.8,0.6c-4.7-2.5-11.9-3-17.2-1c-0.7,0.2-1.5-0.1-1.7-0.8
	c-0.2-0.7,0.1-1.5,0.8-1.7c6.1-2.2,14-1.7,19.4,1.3C29.2,19.1,29.4,20,29.1,20.6L29.1,20.6z"/>
<path class="st0" d="M29.1,15.8c-5.7-3-14.9-2.8-20.1-0.9c-0.8,0.3-1.7-0.1-2.1-0.9s0.1-1.7,0.9-2.1c6-2.2,16-2.3,22.6,1
	c0.8,0.5,1,1.4,0.7,2.2C30.8,15.9,29.8,16.1,29.1,15.8z"/>
</svg>
