<?xml version="1.0" encoding="utf-8"?>
<!-- Generator: Adobe Illustrator 24.3.0, SVG Export Plug-In . SVG Version: 6.00 Build 0)  -->
<svg version="1.1" id="Capa_1" xmlns="http://www.w3.org/2000/svg" xmlns:xlink="http://www.w3.org/1999/xlink" x="0px" y="0px"
	 viewBox="0 0 32 32" style="enable-background:new 0 0 32 32;" xml:space="preserve">
<style type="text/css">
	.st0{fill:#333333;}
	.st1{fill:none;}
	.st2{fill:none;stroke:#333333;stroke-width:1.2512;}
</style>
<g transform="translate(-712.702 -165.816)">
	<path class="st0" d="M728.7,165.8c-8.8,0-16,7.2-16,16s7.2,16,16,16s16-7.2,16-16S737.5,165.8,728.7,165.8z M728.7,196.6
		c-8.2,0-14.8-6.6-14.8-14.8s6.6-14.8,14.8-14.8s14.8,6.6,14.8,14.8l0,0C743.5,190,736.9,196.6,728.7,196.6L728.7,196.6z"/>
	<g transform="translate(717.702 174.816)">
		<path class="st1" d="M4.2,1.4h13.3c1.4,0,2.5,1.1,2.5,2.5v7.5c0,1.4-1.1,2.5-2.5,2.5H4.2c-1.4,0-2.5-1.1-2.5-2.5V3.9
			C1.7,2.4,2.7,1.4,4.2,1.4z"/>
		<path class="st2" d="M4.2,2h13.3c1,0,1.8,0.8,1.8,1.8v7.5c0,1-0.8,1.8-1.8,1.8H4.2c-1,0-1.8-0.8-1.8-1.8V3.9C2.3,2.9,3.2,2,4.2,2z
			"/>
	</g>
	<path class="st0" d="M727,179.8v4.3l4.2-2.1l-2.3-1.3L727,179.8z"/>
</g>
</svg>
