<?xml version="1.0" encoding="utf-8"?>
<!-- Generator: Adobe Illustrator 24.3.0, SVG Export Plug-In . SVG Version: 6.00 Build 0)  -->
<svg version="1.1" id="Capa_1" xmlns="http://www.w3.org/2000/svg" xmlns:xlink="http://www.w3.org/1999/xlink" x="0px" y="0px"
	 viewBox="0 0 32 32" style="enable-background:new 0 0 32 32;" xml:space="preserve">
<style type="text/css">
	.st0{fill:#333333;}
</style>
<g transform="translate(-712.702 -165.816)">
	<path class="st0" d="M728.7,165.8c-8.8,0-16,7.2-16,16s7.2,16,16,16s16-7.2,16-16C744.7,173,737.5,165.8,728.7,165.8z M728.7,196.6
		c-8.2,0-14.8-6.6-14.8-14.8c0-8.2,6.6-14.8,14.8-14.8c8.2,0,14.8,6.6,14.8,14.8c0,0,0,0,0,0C743.5,190,736.9,196.6,728.7,196.6
		L728.7,196.6z"/>
	<path class="st0" d="M736.7,176.3c-0.4-1.1-1.3-2-2.5-2.5c-0.7-0.2-1.3-0.4-2-0.4c-0.9,0-1.2-0.1-3.5-0.1s-2.6,0-3.5,0.1
		c-0.7,0-1.4,0.1-2,0.4c-1.1,0.4-2,1.3-2.5,2.5c-0.2,0.7-0.4,1.3-0.4,2c0,0.9-0.1,1.2-0.1,3.5s0,2.6,0.1,3.5c0,0.7,0.1,1.4,0.4,2
		c0.4,1.1,1.3,2,2.5,2.5c0.7,0.2,1.3,0.4,2,0.4c0.9,0,1.2,0.1,3.5,0.1s2.6,0,3.5-0.1c0.7,0,1.4-0.1,2-0.4c1.1-0.4,2-1.3,2.5-2.5
		c0.2-0.7,0.4-1.3,0.4-2c0-0.9,0.1-1.2,0.1-3.5s0-2.6-0.1-3.5C737.1,177.6,736.9,176.9,736.7,176.3z M735.6,185.2
		c0,0.5-0.1,1.1-0.3,1.6c-0.3,0.7-0.9,1.3-1.6,1.6c-0.5,0.2-1,0.3-1.6,0.3c-0.9,0-1.2,0-3.4,0s-2.5,0-3.4,0c-0.5,0-1.1-0.1-1.6-0.3
		c-0.7-0.3-1.3-0.9-1.6-1.6c-0.2-0.5-0.3-1-0.3-1.6c0-0.9,0-1.2,0-3.4s0-2.5,0-3.4c0-0.5,0.1-1.1,0.3-1.6c0.3-0.7,0.9-1.3,1.6-1.6
		c0.5-0.2,1-0.3,1.6-0.3c0.9,0,1.2,0,3.4,0s2.5,0,3.4,0c0.5,0,1.1,0.1,1.6,0.3c0.7,0.3,1.3,0.9,1.6,1.6c0.2,0.5,0.3,1,0.3,1.6
		c0,0.9,0,1.2,0,3.4S735.6,184.3,735.6,185.2z"/>
	<path class="st0" d="M728.7,177.5c-2.4,0-4.3,1.9-4.3,4.3c0,2.4,1.9,4.3,4.3,4.3c2.4,0,4.3-1.9,4.3-4.3
		C733,179.4,731.1,177.5,728.7,177.5C728.7,177.5,728.7,177.5,728.7,177.5z M728.7,184.6c-1.6,0-2.8-1.3-2.8-2.8
		c0-1.6,1.3-2.8,2.8-2.8c1.6,0,2.8,1.3,2.8,2.8C731.5,183.4,730.3,184.6,728.7,184.6z"/>
	<path class="st0" d="M733.2,176.3c-0.6,0-1,0.5-1,1s0.5,1,1,1s1-0.5,1-1S733.8,176.3,733.2,176.3L733.2,176.3z"/>
</g>
</svg>
